<svg width="346" height="230" viewBox="0 0 346 230" fill="none" xmlns="http://www.w3.org/2000/svg">
<path fill-rule="evenodd" clip-rule="evenodd" d="M51.8104 181.846H111.593V187.404H53.7539L68.2707 230H62.8153L25.2393 122.087L30.2493 120.184L51.8104 181.846Z" fill="black"/>
<path fill-rule="evenodd" clip-rule="evenodd" d="M8.04957 223.707C8.04957 223.707 8.78653 187.636 9.35077 160.021C9.71185 142.335 23.079 127.922 40.0262 126.945C77.4739 124.767 114.443 124.213 150.65 126.241C168.237 127.229 182.759 140.915 185.465 159.053C185.475 159.051 185.475 159.051 185.475 159.051C186.957 168.972 184.37 179.084 178.346 186.919C170.702 196.824 157.796 210.624 137.813 223.788C137.813 223.788 145.203 226.014 145.958 229.454C145.958 229.454 89.7318 229.386 75.4025 229.37C74.8746 229.368 74.4013 229.03 74.2106 228.517C74.0199 228.005 74.1509 227.421 74.5404 227.051C84.6064 217.462 122.514 181.351 122.514 181.351L58.5725 182.027C58.5725 182.027 57.5455 219.283 57.3041 228.035C57.2762 229.048 56.4759 229.854 55.5024 229.847C45.8926 229.777 0.00156436 229.449 0.00156436 229.449C0.00156436 229.449 -0.314779 225.952 8.04957 223.707Z" fill="url(#paint0_linear)"/>
<path fill-rule="evenodd" clip-rule="evenodd" d="M152.828 212.808L103.88 199.112L105.353 197.708L154.474 211.453C153.933 211.904 153.384 212.356 152.828 212.808ZM58.1714 196.986L8.5813 198.234L8.61712 196.479L58.2198 195.231L58.1714 196.986Z" fill="#82B5B2"/>
<path fill-rule="evenodd" clip-rule="evenodd" d="M122.45 181.428L139.848 181.386C140.014 181.386 140.155 181.512 140.181 181.684C140.206 181.856 140.108 182.021 139.948 182.073L112.319 191.079L122.45 181.428ZM58.5888 182.08L58.3636 190.252L43.6884 183.367C43.4042 183.234 43.2481 182.911 43.3137 182.594C43.3795 182.275 43.6492 182.049 43.9608 182.051L58.5888 182.08Z" fill="#346864"/>
<path fill-rule="evenodd" clip-rule="evenodd" d="M143.566 50.9658C143.566 50.9658 126.669 27.1883 88.6587 37.5729C83.54 38.9714 42.9969 52.3823 27.0033 90.0611C25.4394 93.7455 17.0073 110.497 29.2315 119.452C37.7605 125.702 46.906 124.544 78.9519 113.366C81.6636 112.42 98.3674 108.742 95.3476 104.722C95.3476 104.722 96.6954 105.006 97.3425 104.071C97.3425 104.071 97.4165 104.553 97.4714 104.909C97.5087 105.152 97.619 105.377 97.7865 105.551C98.5526 106.347 100.853 108.737 102.301 110.241C102.55 110.499 102.913 110.597 103.251 110.495C103.589 110.395 103.847 110.111 103.927 109.754C104.354 107.836 104.976 105.043 104.976 105.043C104.976 105.043 120.179 108.481 129.341 93.0414C129.341 93.0414 129.723 108.292 141.05 114.448C144.358 116.246 162.726 120.065 167.546 100.322C170.917 86.5117 173.379 61.8358 175.533 44.1063C175.533 44.1063 186.789 36.7419 187.64 33.2145C187.946 31.9476 186.712 29.8667 183.96 31.9711C183.96 31.9711 188.069 28.33 186.698 26.6142C185.935 25.6598 184.372 25.6099 181.278 28.3714C181.278 28.3714 185.133 24.2569 183.372 22.6103C181.478 20.8419 179.28 24.4791 177.265 26.437C177.265 26.437 181.749 19.2618 179.213 18.0227C178.138 17.4977 176.978 17.4317 173.064 22.568C169.44 27.3246 164.3 27.8154 160.575 27.3488C160.575 27.3488 162.042 18.3869 160.362 17.5186C158.465 16.5374 156.754 18.2916 152.632 27.1043C148.562 35.8013 146.532 44.4184 143.566 50.9658Z" fill="url(#paint1_linear)"/>
<path fill-rule="evenodd" clip-rule="evenodd" d="M98.8673 35.5004C128.26 31.6504 142.234 49.1628 143.499 50.839C141.582 57.9669 138.294 73.1943 138.294 73.1943L134.834 73.1438C134.89 82.0416 129.385 92.6758 129.385 92.6758L129.364 93.05C120.652 107.721 106.291 105.288 104.934 105.078L105.378 102.758L104.226 99.3916L103.868 98.4379C103.868 98.4379 105.457 96.2191 106.864 94.2531C108.051 92.5943 107.774 90.2548 106.235 88.9471C103.157 86.3319 98.5984 82.4589 98.5984 82.4589C98.5718 82.4377 98.5454 82.4165 98.5192 82.3956C94.8572 79.4757 90.23 78.1966 85.6611 78.8417C75.9784 80.2083 56.5106 82.9567 56.5106 82.9567L44.7571 64.017C58.4693 50.2297 74.5536 42.7167 83.1189 39.457L98.8673 35.5004Z" fill="#82B5B2"/>
<path fill-rule="evenodd" clip-rule="evenodd" d="M97.3457 104.106C97.6737 103.691 98.7576 102.122 97.7855 100.608L96.4174 98.8836C96.4174 98.8836 98.3364 99.1721 99.1163 99.0948C99.1163 99.0948 99.0092 101.097 100.596 101.445C101.03 101.539 101.478 101.37 101.753 101.008C102.519 100.005 104.234 97.7518 104.234 97.7518C104.234 97.7518 105.19 102.052 105.363 102.83C105.38 102.909 105.381 102.991 105.364 103.07C105.206 103.813 104.371 107.748 104.371 107.748L103.925 109.754C103.845 110.111 103.586 110.395 103.249 110.495C102.911 110.597 102.547 110.498 102.299 110.241C100.851 108.737 98.5504 106.347 97.7843 105.551C97.6168 105.377 97.5065 105.152 97.4691 104.909L97.3457 104.106ZM90.5695 78.8402C90.5695 78.8402 96.6595 79.7698 100.567 84.2858L97.8751 70.7437L88.9536 70.7975L90.5695 78.8402Z" fill="#FFBF2F"/>
<path fill-rule="evenodd" clip-rule="evenodd" d="M104.402 107.53L104.356 107.749L103.909 109.754C103.829 110.111 103.571 110.395 103.233 110.495C102.895 110.597 102.532 110.499 102.283 110.241L100.235 108.113L104.402 107.53ZM98.3563 99.0951C98.6434 99.1109 98.907 99.1144 99.1005 99.0951C99.1005 99.0951 98.9934 101.097 100.58 101.446C100.753 101.483 100.927 101.479 101.092 101.437L101.339 102.634L105.053 101.508L105.347 102.83C105.356 102.871 105.36 102.913 105.36 102.954L97.6066 105.338C97.5292 105.208 97.4769 105.062 97.4534 104.909L97.33 104.107C97.3888 104.032 97.4719 103.921 97.563 103.779L99.2228 103.276L98.3563 99.0951ZM94.3978 79.9959L92.4871 70.7764L94.7627 70.7627L96.9317 81.2744C96.0617 80.7477 95.1969 80.3279 94.3978 79.9959Z" fill="black"/>
<path fill-rule="evenodd" clip-rule="evenodd" d="M95.6738 106.032L90.558 105.605C90.1878 105.575 89.9113 105.236 89.9409 104.851C89.9705 104.465 90.2949 104.177 90.6651 104.208L96.4277 104.688C95.8747 104.833 95.348 104.722 95.348 104.722C95.68 105.164 95.7737 105.601 95.6738 106.032ZM97.9911 99.42C98.0382 99.3832 98.091 99.3523 98.1485 99.3288C98.1485 99.3288 98.793 99.0654 99.4797 98.7846C100.288 98.454 100.889 97.7294 101.085 96.8474C101.085 96.8472 101.085 96.8472 101.085 96.847C101.485 95.0481 100.765 93.1802 99.2814 92.1704C97.5964 91.0232 95.793 89.7954 95.793 89.7954C95.4822 89.5838 95.3946 89.1489 95.5978 88.825C95.8008 88.5011 96.218 88.4098 96.5288 88.6215L99.884 90.9056L99.9738 90.1107C100.017 89.7263 100.352 89.4511 100.72 89.4963C101.089 89.5415 101.353 89.8904 101.31 90.2746L101.117 91.9797C102.309 93.3641 102.812 95.2921 102.396 97.1636C102.396 97.1638 102.396 97.1638 102.396 97.1639C102.1 98.4961 101.193 99.5907 99.9709 100.09C99.2842 100.371 98.6398 100.634 98.6398 100.634C98.4001 100.732 98.1389 100.677 97.956 100.514C97.7859 100.646 97.5587 100.692 97.3421 100.618L91.6022 98.6444C91.2495 98.5231 91.0578 98.1264 91.1742 97.7588C91.2904 97.3914 91.6711 97.1915 92.0236 97.3128L97.7637 99.2864C97.8498 99.316 97.9264 99.3619 97.9911 99.42ZM138.504 65.5133C138.504 65.5133 133.603 86.9304 132.529 96.4956C132.485 96.8798 132.749 97.2284 133.119 97.2735C133.487 97.3185 133.822 97.043 133.864 96.6588C134.935 87.1435 139.814 65.8388 139.814 65.8388C139.9 65.4625 139.676 65.0839 139.315 64.9942C138.955 64.9044 138.591 65.137 138.504 65.5133ZM60.1022 80.1495C48.4352 82.8751 41.3066 85.1904 37.8418 87.2007C37.4363 87.4359 37.2903 87.97 37.5162 88.3926C37.7419 88.8154 38.2543 88.9673 38.6598 88.7321C42.053 86.7635 49.044 84.5293 60.4702 81.8599C60.9229 81.7542 61.2083 81.285 61.1067 80.8131C61.0052 80.3411 60.5551 80.0438 60.1022 80.1495ZM175.742 43.9672C175.606 44.058 175.533 44.1062 175.533 44.1062C175.377 45.3898 175.219 46.7098 175.061 48.0591L171.61 47.1132C171.479 47.0771 171.381 46.9615 171.364 46.8208C171.346 46.6802 171.411 46.5423 171.529 46.472L175.742 43.9672ZM186.917 27.0247C187.484 28.849 183.961 31.9711 183.961 31.9711C184.062 31.8938 184.161 31.8223 184.257 31.7562C181.8 34.1039 178.482 36.8894 175.278 38.3592C174.938 38.5152 174.541 38.3543 174.391 38C174.242 37.6459 174.397 37.2318 174.736 37.0759C180.13 34.6013 185.849 28.2455 186.917 27.0247ZM183.831 23.778C183.801 25.6784 181.278 28.3714 181.278 28.3714C181.463 28.2049 181.645 28.0485 181.822 27.9022C179.346 30.3831 175.76 33.6618 172.61 35.3289C172.279 35.5042 171.874 35.3663 171.706 35.0213C171.538 34.6762 171.67 34.2539 172.002 34.0787C177.082 31.3895 183.32 24.361 183.831 23.778ZM179.723 21.1882C179.038 23.6017 177.266 26.437 177.266 26.437C177.321 26.3837 177.377 26.3292 177.43 26.2738C175.379 28.5118 172.609 30.9618 169.492 32.1939C169.144 32.3309 168.756 32.1487 168.625 31.7869C168.493 31.4251 168.668 31.0199 169.015 30.8826C174.395 28.7563 178.663 22.7729 179.723 21.1882Z" fill="#82B5B2"/>
<path fill-rule="evenodd" clip-rule="evenodd" d="M77.1194 80.0427L82.3206 74.2878C82.5547 74.0289 82.9177 73.9468 83.2335 74.0818C83.5495 74.2166 83.753 74.5403 83.7454 74.8962L83.6563 79.1201L77.1194 80.0427ZM134.803 74.0087C134.788 73.2445 134.684 68.7217 134.236 65.6182C134.203 65.4715 134.28 65.3218 134.416 65.2693C134.551 65.2167 134.704 65.2778 134.77 65.4119C135.742 67.3416 137.218 70.4705 138.064 73.1893L134.815 73.142C134.817 73.4292 134.812 73.7185 134.803 74.0087Z" fill="#346864"/>
<path d="M97.5932 30.323C104.843 30.323 110.72 24.1774 110.72 16.5964C110.72 9.01546 104.843 2.86987 97.5932 2.86987C90.3437 2.86987 84.4667 9.01546 84.4667 16.5964C84.4667 24.1774 90.3437 30.323 97.5932 30.323Z" fill="#99C3C0"/>
<path fill-rule="evenodd" clip-rule="evenodd" d="M88.8666 26.8467C86.1674 24.3313 84.4667 20.6699 84.4667 16.5964C84.4667 9.02044 90.3486 2.86987 97.5932 2.86987C102.031 2.86987 105.957 5.17725 108.333 8.70686L97.5833 18.7243C97.4545 18.3295 97.2577 17.9446 96.992 17.5906C95.8689 16.0942 93.9364 15.7114 92.6792 16.7363C91.4221 17.7611 91.3133 19.808 92.4364 21.3044C92.7853 21.7694 93.2123 22.1268 93.6732 22.368L88.8666 26.8467Z" fill="black"/>
<path d="M243.744 40.3652H233.714L237.943 55.5495H247.974L243.744 40.3652Z" fill="white"/>
<path fill-rule="evenodd" clip-rule="evenodd" d="M238.186 55.2023H241.352C241.534 55.2023 241.684 55.3575 241.684 55.5487C241.684 55.7398 241.535 55.895 241.351 55.895H237.936C237.789 55.895 237.659 55.7932 237.618 55.6452L233.389 40.461C233.359 40.3563 233.379 40.2435 233.442 40.1565C233.505 40.0693 233.602 40.0181 233.708 40.0181H240.744C240.927 40.0181 241.076 40.1732 241.076 40.3644C241.076 40.5556 240.927 40.7108 240.744 40.7108H234.149L238.186 55.2023Z" fill="black"/>
<path fill-rule="evenodd" clip-rule="evenodd" d="M243.496 40.7108H240.751C240.567 40.7108 240.419 40.5556 240.419 40.3644C240.419 40.1732 240.567 40.0181 240.751 40.0181H243.745C243.892 40.0181 244.022 40.1198 244.064 40.2678L248.293 55.4521C248.322 55.5568 248.303 55.6696 248.24 55.7567C248.177 55.8437 248.079 55.895 247.975 55.895H241.358C241.175 55.895 241.026 55.7398 241.026 55.5487C241.026 55.3575 241.176 55.2023 241.359 55.2023H247.532L243.496 40.7108Z" fill="black"/>
<path d="M243.308 41.7278H235.004L235.561 43.4072H243.865L243.308 41.7278Z" fill="black"/>
<path d="M244.149 44.4863H235.845L236.402 46.1658H244.706L244.149 44.4863Z" fill="black"/>
<path d="M244.935 47.2427H236.63L237.187 48.9221H245.492L244.935 47.2427Z" fill="black"/>
<path d="M245.776 50.0012H237.471L238.028 51.6807H246.333L245.776 50.0012Z" fill="black"/>
<path d="M246.561 52.7576H238.257L238.814 54.437H247.118L246.561 52.7576Z" fill="black"/>
<path fill-rule="evenodd" clip-rule="evenodd" d="M246.009 49.0838C245.681 48.1201 243.723 42.0894 245.235 39.5287C245.338 39.362 245.501 39.2464 245.686 39.2094C246.224 39.1186 247.371 39.355 248.994 42.082C248.994 42.082 263.73 65.148 269.049 68.5941C269.049 68.5941 269.191 50.9813 289.088 48.1017C291.849 47.7019 311.26 43.7696 322.14 71.8398C325.739 81.1267 325.699 88.552 325.635 96.489C325.593 102.781 322.459 108.611 317.332 111.932C310.613 116.286 302.281 116.966 294.994 113.754C290.105 111.606 283.795 109.424 276.633 108.325L260.908 106.741C260.908 106.741 261.693 111.219 255.183 110.357C255.183 110.357 250.057 109.652 251.081 106.069C251.081 106.069 247.627 105.486 248.34 102.006C248.34 102.006 245.065 99.3436 247.973 96.0929C247.973 96.0929 238.52 95.9744 236.598 91.2824C236.436 90.8764 236.426 90.4212 236.572 90.0084C236.749 89.4982 237.207 88.9548 238.322 88.915C238.322 88.915 251.399 88.7056 254.84 87.6786L247.364 74.4238C247.364 74.4238 241.542 71.0884 240.2 65.7565C238.818 65.7632 237.644 64.6519 237.538 63.1924C237.447 61.9439 238.167 60.8249 239.233 60.3963L238.621 60.4445C237.175 60.5581 235.913 59.4272 235.804 57.9207C235.716 56.7047 236.406 55.6135 237.435 55.1779C236.039 55.245 234.837 54.1418 234.731 52.6809C234.623 51.1933 235.695 49.8944 237.121 49.7822L246.009 49.0838Z" fill="url(#paint2_linear)"/>
<path fill-rule="evenodd" clip-rule="evenodd" d="M260.711 108.467C257.633 108.283 255.163 109.052 255.163 109.052C254.717 109.192 254.248 108.928 254.115 108.465C253.982 108.002 254.235 107.513 254.68 107.373C254.68 107.373 258.274 106.25 262.352 106.884L260.926 106.74C260.926 106.74 261.074 107.583 260.711 108.467ZM249.517 105.382C250.106 103.522 252.109 99.4189 258.473 98.4069C258.93 98.3339 259.361 98.6629 259.43 99.1411C259.5 99.6193 259.184 100.067 258.725 100.14C253.113 101.032 251.492 104.708 251.078 106.064C250.947 106.039 250.205 105.879 249.517 105.382ZM247.144 100.401C247.967 98.5727 250.208 95.602 256.232 94.4326C256.688 94.344 257.129 94.6581 257.213 95.1337C257.299 95.6092 256.996 96.0672 256.54 96.1558C249.024 97.6148 248.335 102.117 248.358 102.006C248.358 102.006 247.607 101.395 247.144 100.401ZM245.905 95.9409C246.889 94.6117 250.003 90.913 254.599 90.2266C255.059 90.1578 255.486 90.4909 255.551 90.9697C255.617 91.4486 255.297 91.8929 254.838 91.9616C251.603 92.4447 249.231 94.655 247.98 96.0997C247.824 96.0965 247.013 96.0669 245.905 95.9409ZM294.816 87.0699L305.083 90.8316C305.52 90.992 306.001 90.7519 306.156 90.2954C306.309 89.8392 306.079 89.3384 305.642 89.178L295.374 85.4162C294.935 85.2558 294.456 85.4961 294.301 85.9524C294.148 86.4088 294.379 86.9094 294.816 87.0699ZM253.982 86.1226C255.06 85.9005 266.925 83.4993 275.58 83.5962C276.044 83.6015 276.417 83.9983 276.412 84.4821C276.407 84.9657 276.025 85.3541 275.561 85.349C266.634 85.249 254.628 87.7472 254.858 87.6782L253.982 86.1226ZM247.383 74.4233L249.985 75.6431C250.323 75.8063 250.467 76.2236 250.313 76.5745C250.155 76.9254 249.754 77.0779 249.418 76.9148L248.552 76.4946L247.383 74.4233ZM245.587 47.6572C247.109 47.9156 248.192 48.7627 248.585 49.4326C249.465 50.9279 249.117 52.3956 248.276 53.4409C248.33 53.7195 248.422 54.1445 248.562 54.6623C248.765 54.8114 248.937 54.9667 249.08 55.1217C249.859 55.9648 249.909 56.8594 249.924 57.1355C249.941 57.4682 249.912 57.7775 249.845 58.0646C250.578 59.503 251.611 60.9215 253.069 61.7378C253.395 61.9208 253.518 62.3462 253.343 62.6871C253.168 63.028 252.76 63.1562 252.432 62.9732C251.814 62.6272 251.259 62.1909 250.76 61.695C250.762 61.7017 250.763 61.7082 250.765 61.7148C251.312 63.4952 250.435 65.4171 248.76 66.0974C246.211 67.1401 242.639 67.2093 240.686 67.1536C240.498 66.7047 240.34 66.2386 240.219 65.7561C240.047 65.757 245.328 65.9948 248.269 64.7914C249.295 64.3749 249.825 63.1914 249.473 62.1045C249.468 62.0924 249.465 62.0801 249.462 62.0679C249.209 61.3448 248.52 60.8881 247.783 60.9606L246.397 61.0972C246.132 61.1794 245.964 61.2153 245.964 61.2153C245.829 61.244 245.694 61.2284 245.577 61.178L237.74 61.9499C238.014 61.2433 238.559 60.6742 239.252 60.3959L246.15 59.7131C246.559 59.5784 247.176 59.3275 247.702 58.916C248.197 58.5288 248.622 57.987 248.58 57.2128C248.572 57.0596 248.543 56.563 248.111 56.0947C247.576 55.5175 246.527 55.0312 244.521 54.9829C244.467 54.9816 244.415 54.9738 244.366 54.9601C242.016 55.0411 239.608 55.0788 237.213 55.1773C236.334 55.135 235.555 54.6302 235.116 53.8776C238.596 53.6716 242.148 53.6571 245.541 53.5117C246.021 53.4912 246.544 53.2336 246.962 52.8432C247.02 52.7374 247.104 52.6476 247.206 52.585C247.728 51.9577 247.95 51.0848 247.438 50.165C246.964 49.3127 246.027 49.0833 246.027 49.0833C245.95 48.8547 245.78 48.3413 245.587 47.6572ZM249.84 61.2374C249.613 61.3373 249.578 61.4416 249.561 61.4754C249.596 61.4223 249.64 61.3739 249.689 61.3326C249.734 61.2949 249.785 61.2628 249.84 61.2375L249.852 61.2326L249.84 61.2374ZM249.085 59.5007C249.021 59.5738 248.952 59.6444 248.883 59.7124C249.043 59.7687 249.198 59.8388 249.346 59.9219C249.255 59.7827 249.169 59.6422 249.085 59.5007Z" fill="#FD9500"/>
<path fill-rule="evenodd" clip-rule="evenodd" d="M268.992 68.5576L269.048 68.5937C269.048 68.5937 269.189 50.9809 289.086 48.1012C291.848 47.7014 311.259 43.7692 322.139 71.8394C322.177 71.937 322.214 72.0343 322.251 72.1312C315.803 79.2046 308.715 73.8731 308.715 73.8731C305.248 84.9166 294.165 80.1718 294.165 80.1718L297.751 88.1506C289.377 84.9454 273.089 85.4106 273.089 85.4106C269.712 80.9753 269.072 72.9876 268.992 68.5576Z" fill="#FD9500"/>
<path fill-rule="evenodd" clip-rule="evenodd" d="M293.821 86.9721C293.821 86.9721 291.659 79.6966 290.101 74.464C290.032 74.2295 290.147 73.9783 290.364 73.8856C290.582 73.793 290.833 73.8898 290.941 74.1084C293.697 79.7257 297.853 88.1905 297.853 88.1905L293.821 86.9721Z" fill="#E86135"/>
<path fill-rule="evenodd" clip-rule="evenodd" d="M232.347 134.077C247.959 114.34 280.288 121.662 287.406 122.64C333.468 128.969 323.251 165.846 321.586 170.556C317.93 180.892 309.128 184.89 295.991 186.28V226.396C295.991 226.396 291.982 222.665 291.06 218.426C291.06 218.426 289.479 218.325 286.745 218.039C286.745 218.039 288.825 223.923 289.92 227.022C290.071 227.446 290.012 227.92 289.763 228.289C289.516 228.661 289.111 228.882 288.677 228.882H236.37C239.219 223.462 244.828 223.508 244.828 223.508C242.637 217.787 240.376 212.223 238.151 206.544C223.826 200.579 211.194 191.724 207.341 178.65C205.846 173.578 204.963 151.259 232.347 134.077Z" fill="url(#paint3_linear)"/>
<path fill-rule="evenodd" clip-rule="evenodd" d="M239.715 210.503C244.924 213.243 253.94 215.785 259.915 205.333C260.041 205.11 260.255 204.959 260.499 204.915C260.742 204.873 260.991 204.945 261.181 205.112C261.181 205.112 264.918 208.405 269.515 210.032C272.165 210.97 275.112 211.366 277.759 210.121C279.511 209.296 281.119 207.748 282.432 205.201C282.651 204.775 283.161 204.614 283.571 204.844C283.98 205.073 284.133 205.604 283.912 206.03C282.387 208.991 280.488 210.759 278.45 211.718C275.408 213.15 272.019 212.77 268.973 211.692C265.356 210.411 262.238 208.162 260.855 207.073C254.846 216.705 246.336 215.343 240.642 212.84L240.245 211.843C240.105 211.49 239.966 211.138 239.826 210.786L239.715 210.503Z" fill="#FD9500"/>
<path fill-rule="evenodd" clip-rule="evenodd" d="M277.468 186.645C277.468 186.645 263.19 186.584 255.333 186.55C255.012 186.549 254.737 186.797 254.695 187.13C254.655 187.464 254.857 187.777 255.168 187.861C263.402 190.112 279.174 194.424 279.174 194.424L277.468 186.645Z" fill="#FD9500"/>
<path fill-rule="evenodd" clip-rule="evenodd" d="M297.02 186.165C296.679 186.205 296.337 186.244 295.991 186.281V187.992C289.721 188.402 283.912 188.503 278.248 188.423L288.541 218.217C288.016 218.168 287.414 218.11 286.744 218.04L288.245 222.285C288.159 222.196 288.088 222.085 288.045 221.957L276.45 188.393C275.391 188.37 274.336 188.342 273.282 188.309C272.819 188.295 272.454 187.89 272.468 187.408C272.481 186.924 272.87 186.544 273.332 186.558C280.877 186.794 288.51 186.766 297.02 186.165ZM236.572 129.69C226.987 138.598 223.207 148.319 225.85 165.254C227.65 176.788 232.396 191.609 240.277 211.677C240.329 211.809 240.347 211.947 240.337 212.08C239.607 210.242 238.878 208.399 238.151 206.545C237.48 206.266 236.814 205.98 236.151 205.688C229.735 188.777 225.8 175.85 224.191 165.536C222.221 152.927 223.689 144.154 228.316 136.785C229.586 135.87 230.928 134.968 232.347 134.077C233.647 132.433 235.063 130.976 236.572 129.69Z" fill="#FD9500"/>
<path d="M273.871 47.1342C280.685 47.1342 286.208 41.3346 286.208 34.1804C286.208 27.0262 280.685 21.2266 273.871 21.2266C267.057 21.2266 261.533 27.0262 261.533 34.1804C261.533 41.3346 267.057 47.1342 273.871 47.1342Z" fill="#FFBF2F"/>
<path fill-rule="evenodd" clip-rule="evenodd" d="M264.286 26.0187C266.55 23.0954 270.001 21.226 273.866 21.226C280.675 21.226 286.203 27.0302 286.203 34.1797C286.203 35.641 285.973 37.0461 285.547 38.3561C283.371 38.1575 282.135 36.4685 281.71 35.7623C282.505 35.3353 283.058 34.3941 283.058 33.3028C283.058 31.8104 282.024 30.5987 280.749 30.5987C279.475 30.5987 278.44 31.8104 278.44 33.3028C278.44 33.6554 278.497 33.9927 278.603 34.3019C270.786 35.1795 265.815 28.4535 264.286 26.0187ZM269.89 19.1642C270.21 19.2764 270.561 19.1481 270.744 18.8527C270.926 18.5575 270.894 18.1707 270.664 17.9136C270.598 17.8293 270.524 17.7472 270.447 17.6627C268.503 15.5497 266.313 13.6322 263.98 12.0101C256.806 7.01975 248.257 3.28699 239.853 1.30633C231.172 -0.739538 220.336 -0.854693 212.666 4.43998C207.619 7.92297 203.845 15.2928 208.195 21.0479C209.756 23.1122 211.998 24.5469 214.316 25.513C223.696 29.4238 233.478 26.9566 242.39 23.0405C247.463 20.8108 252.509 17.855 258.035 16.9378C261.505 16.362 266.858 18.045 269.89 19.1642Z" fill="black"/>
<path fill-rule="evenodd" clip-rule="evenodd" d="M317.514 186.72L340.99 120.662L346 122.566L308.722 229.175H302.427L315.539 192.276H278.19V186.72H317.514Z" fill="black"/>
<path d="M227.392 51.8752H156.819L165.217 103.533H235.79L227.392 51.8752Z" fill="black"/>
<path d="M209.312 100.959H193.556L195.848 115.14H211.604L209.312 100.959Z" fill="black"/>
<path d="M223.541 55.8137H161.811L168.713 98.5185H230.444L223.541 55.8137Z" fill="#EAEAEB"/>
<path d="M221.598 59.5859H200.623L203.689 78.555H224.664L221.598 59.5859Z" fill="white"/>
<path fill-rule="evenodd" clip-rule="evenodd" d="M201.2 60.1115L202.267 66.6731C202.313 66.9592 202.128 67.2307 201.854 67.2789C201.579 67.3272 201.318 67.134 201.272 66.8477L200.105 59.673C200.08 59.5204 200.121 59.3642 200.217 59.2461C200.313 59.1279 200.454 59.0598 200.602 59.0598H221.578C221.824 59.0598 222.034 59.2451 222.075 59.4983L223.242 66.6731C223.288 66.9592 223.103 67.2307 222.829 67.2789C222.554 67.3272 222.294 67.134 222.247 66.8477L221.152 60.1115H201.2Z" fill="black"/>
<path fill-rule="evenodd" clip-rule="evenodd" d="M224.065 78.0295L222.258 66.8484C222.212 66.5622 222.397 66.2907 222.671 66.2425C222.946 66.1943 223.206 66.3875 223.253 66.6737L225.159 78.468C225.184 78.6205 225.143 78.7767 225.047 78.8949C224.951 79.013 224.81 79.081 224.662 79.081H203.686C203.44 79.081 203.23 78.8958 203.189 78.6426L201.282 66.8484C201.236 66.5622 201.422 66.2907 201.696 66.2425C201.971 66.1943 202.231 66.3875 202.278 66.6737L204.113 78.0295H224.065Z" fill="black"/>
<path fill-rule="evenodd" clip-rule="evenodd" d="M211.293 78.5551H210.271L207.185 59.5859H208.209L211.293 78.5551ZM218.755 78.5551H217.731L214.647 59.5859H215.669L218.755 78.5551Z" fill="black"/>
<path fill-rule="evenodd" clip-rule="evenodd" d="M223.954 74.1902H202.978L202.809 73.1385H223.784L223.954 74.1902ZM223.199 69.5146H202.223L202.053 68.4629H223.029L223.199 69.5146ZM222.386 64.4865H201.411L201.24 63.4348H222.216L222.386 64.4865Z" fill="black"/>
<path fill-rule="evenodd" clip-rule="evenodd" d="M195.29 94.7506H212.03L207.379 65.9739H195.29" fill="white"/>
<path fill-rule="evenodd" clip-rule="evenodd" d="M206.988 66.4994H195.326C195.047 66.4994 194.822 66.2638 194.821 65.9736C194.821 65.6834 195.048 65.4478 195.326 65.4478H207.415C207.661 65.4478 207.872 65.6331 207.912 65.8862L212.564 94.6629C212.589 94.8155 212.547 94.9716 212.452 95.0898C212.355 95.2079 212.215 95.276 212.066 95.276H195.326C195.047 95.276 194.822 95.0404 194.821 94.7502C194.821 94.4599 195.048 94.2243 195.326 94.2243H211.47L206.988 66.4994Z" fill="black"/>
<path fill-rule="evenodd" clip-rule="evenodd" d="M195.32 65.9739H171.064L175.716 94.7506H195.32" fill="white"/>
<path fill-rule="evenodd" clip-rule="evenodd" d="M176.149 94.2244H195.327C195.605 94.2244 195.832 94.46 195.832 94.7502C195.832 95.0404 195.607 95.276 195.328 95.276H175.724C175.477 95.276 175.267 95.0907 175.226 94.8376L170.547 66.061C170.523 65.9084 170.564 65.7523 170.659 65.634C170.755 65.5159 170.896 65.4478 171.044 65.4478H195.3C195.578 65.4478 195.805 65.6834 195.806 65.9736C195.805 66.2638 195.58 66.4994 195.301 66.4994H171.642L176.149 94.2244Z" fill="black"/>
<path d="M207.409 65.9739H171.064L171.623 69.4296H207.968L207.409 65.9739Z" fill="black"/>
<path fill-rule="evenodd" clip-rule="evenodd" d="M210.705 86.6527H174.36L174.19 85.601H210.535L210.705 86.6527ZM209.206 77.3849H172.863L172.691 76.3333H209.036L209.206 77.3849Z" fill="black"/>
<path fill-rule="evenodd" clip-rule="evenodd" d="M185.013 94.7504H183.99L179.31 65.9739H180.332L185.013 94.7504ZM194.917 94.7504H193.892L189.212 65.9739H190.236L194.917 94.7504ZM204.696 94.7504H203.674L198.993 65.9739H200.016L204.696 94.7504Z" fill="black"/>
<path d="M208.047 82.6413C208.069 82.9284 208.016 83.1945 207.889 83.4399C207.755 83.6791 207.558 83.8764 207.285 84.0329C207.011 84.1827 206.681 84.2766 206.292 84.3081C205.825 84.346 205.437 84.2902 205.121 84.1345C204.9 84.0248 204.71 83.8656 204.562 83.6627C204.407 83.4603 204.326 83.2587 204.311 83.0585C204.302 82.9383 204.334 82.835 204.413 82.748C204.486 82.6548 204.581 82.6067 204.706 82.5966C204.805 82.5886 204.893 82.615 204.97 82.6692C205.048 82.7301 205.114 82.8254 205.17 82.9485C205.241 83.0972 205.316 83.2187 205.396 83.313C205.47 83.4078 205.575 83.4865 205.705 83.5431C205.842 83.5992 206.009 83.6192 206.213 83.6027C206.496 83.5798 206.721 83.4943 206.889 83.3464C207.056 83.1985 207.129 83.0247 207.114 82.8244C207.102 82.6642 207.046 82.5412 206.94 82.449C206.84 82.3564 206.71 82.2931 206.554 82.252C206.399 82.2109 206.191 82.174 205.936 82.1342C205.595 82.0813 205.304 82.0108 205.066 81.9227C204.828 81.8346 204.639 81.7021 204.487 81.5265C204.341 81.3502 204.258 81.1286 204.237 80.8483C204.217 80.5879 204.272 80.3485 204.394 80.1303C204.524 79.9183 204.716 79.7416 204.971 79.6134C205.232 79.4781 205.544 79.3991 205.906 79.3697C206.196 79.3462 206.448 79.3593 206.665 79.4157C206.881 79.472 207.066 79.5577 207.213 79.6667C207.361 79.7756 207.469 79.8944 207.545 80.0226C207.621 80.1508 207.663 80.2749 207.673 80.4017C207.681 80.5152 207.65 80.6252 207.578 80.7184C207.499 80.8188 207.404 80.8735 207.285 80.8831C207.173 80.8922 207.092 80.8719 207.029 80.8233C206.965 80.768 206.9 80.6861 206.824 80.5646C206.725 80.3913 206.609 80.2597 206.483 80.1691C206.357 80.0786 206.162 80.0407 205.892 80.0626C205.649 80.0823 205.455 80.1517 205.313 80.2775C205.169 80.3966 205.1 80.5365 205.112 80.69C205.119 80.7834 205.152 80.8681 205.21 80.9306C205.268 80.9997 205.338 81.0478 205.434 81.0937C205.53 81.1329 205.625 81.1655 205.719 81.1914C205.814 81.2107 205.968 81.2384 206.183 81.2748C206.451 81.3202 206.699 81.3672 206.922 81.423C207.139 81.486 207.33 81.5645 207.49 81.659C207.649 81.7535 207.778 81.8841 207.876 82.0441C207.974 82.204 208.029 82.401 208.047 82.6413Z" fill="black"/>
<path fill-rule="evenodd" clip-rule="evenodd" d="M205.291 79.1463L206.009 84.599C206.047 84.8865 206.301 85.0879 206.576 85.0485C206.853 85.0092 207.046 84.7436 207.009 84.4561L206.291 79.0033C206.254 78.7158 205.998 78.5145 205.723 78.5538C205.446 78.5933 205.254 78.8587 205.291 79.1463Z" fill="black"/>
<path fill-rule="evenodd" clip-rule="evenodd" d="M175.727 71.1119L176.304 74.6071C176.351 74.8932 176.614 75.0853 176.888 75.0362C177.162 74.9869 177.347 74.7147 177.298 74.4287L176.721 70.9336C176.674 70.6476 176.413 70.4553 176.139 70.5045C175.865 70.5538 175.68 70.8258 175.727 71.1119Z" fill="black"/>
<path fill-rule="evenodd" clip-rule="evenodd" d="M178.924 88.9698L179.501 92.465C179.548 92.7511 179.81 92.9432 180.084 92.8941C180.359 92.8449 180.544 92.5727 180.495 92.2866L179.918 88.7915C179.871 88.5055 179.61 88.3132 179.336 88.3624C179.062 88.4117 178.877 88.6837 178.924 88.9698Z" fill="black"/>
<path fill-rule="evenodd" clip-rule="evenodd" d="M187.356 80.1081C187.51 80.0848 187.64 80.217 187.764 80.3799C187.971 80.6473 188.123 81.0386 188.185 81.4844C188.247 81.9303 188.208 82.3503 188.083 82.6679C188.008 82.8609 187.92 83.0259 187.766 83.0492C187.49 83.0909 187.3 83.3579 187.34 83.6451C187.38 83.9322 187.635 84.1318 187.911 84.0901C188.3 84.0313 188.644 83.7747 188.883 83.3514C189.157 82.8639 189.294 82.1281 189.183 81.3333C189.073 80.5385 188.741 79.8738 188.345 79.4875C188.001 79.1524 187.6 79.0086 187.212 79.0674C186.936 79.1091 186.745 79.3759 186.785 79.6632C186.825 79.9504 187.081 80.1498 187.356 80.1081Z" fill="black"/>
<path fill-rule="evenodd" clip-rule="evenodd" d="M187.77 83.0503C187.617 83.0733 187.486 82.9412 187.362 82.7784C187.156 82.5106 187.004 82.1194 186.942 81.6735C186.879 81.2277 186.918 80.8077 187.041 80.4907C187.116 80.2977 187.205 80.1325 187.358 80.1096C187.634 80.0681 187.825 79.8013 187.785 79.5141C187.745 79.2268 187.488 79.0275 187.212 79.069C186.823 79.1274 186.48 79.3834 186.241 79.8065C185.967 80.2938 185.831 81.029 185.943 81.8237C186.054 82.6184 186.385 83.2836 186.782 83.6699C187.127 84.0052 187.527 84.1495 187.915 84.0911C188.191 84.0496 188.383 83.7826 188.343 83.4955C188.302 83.2083 188.045 83.0089 187.77 83.0503Z" fill="black"/>
<path fill-rule="evenodd" clip-rule="evenodd" d="M188.703 89.3366C188.857 89.3133 188.986 89.4455 189.11 89.6085C189.317 89.8758 189.469 90.2671 189.531 90.7129C189.593 91.1588 189.554 91.5788 189.429 91.8964C189.354 92.0894 189.266 92.2544 189.112 92.2777C188.836 92.3194 188.646 92.5864 188.686 92.8736C188.726 93.1607 188.981 93.3603 189.257 93.3186C189.646 93.2598 189.99 93.0032 190.23 92.5799C190.503 92.0924 190.64 91.3566 190.53 90.5618C190.419 89.767 190.087 89.1023 189.692 88.716C189.347 88.381 188.946 88.2371 188.558 88.2959C188.282 88.3376 188.092 88.6044 188.132 88.8918C188.172 89.1789 188.427 89.3783 188.703 89.3366Z" fill="black"/>
<path fill-rule="evenodd" clip-rule="evenodd" d="M189.116 92.2789C188.963 92.3018 188.832 92.1697 188.708 92.0069C188.502 91.7391 188.35 91.3479 188.288 90.902C188.225 90.4563 188.264 90.0362 188.387 89.7192C188.462 89.5262 188.551 89.361 188.704 89.3381C188.98 89.2966 189.172 89.0298 189.131 88.7426C189.091 88.4554 188.834 88.256 188.558 88.2975C188.169 88.356 187.826 88.6119 187.588 89.035C187.313 89.5223 187.178 90.2575 187.289 91.0522C187.4 91.8469 187.731 92.5121 188.129 92.8984C188.474 93.2337 188.873 93.378 189.262 93.3196C189.537 93.2781 189.729 93.0111 189.689 92.724C189.649 92.4369 189.392 92.2374 189.116 92.2789Z" fill="black"/>
<path fill-rule="evenodd" clip-rule="evenodd" d="M198.518 89.331C198.672 89.3077 198.801 89.4399 198.926 89.6028C199.132 89.8702 199.284 90.2615 199.346 90.7073C199.408 91.1532 199.369 91.5732 199.244 91.8908C199.169 92.0838 199.082 92.2488 198.928 92.2721C198.652 92.3138 198.461 92.5808 198.501 92.868C198.541 93.1551 198.797 93.3547 199.073 93.313C199.461 93.2542 199.806 92.9976 200.045 92.5743C200.319 92.0868 200.456 91.351 200.345 90.5562C200.234 89.7614 199.902 89.0967 199.507 88.7104C199.162 88.3754 198.762 88.2315 198.373 88.2903C198.097 88.332 197.907 88.5988 197.947 88.8861C197.987 89.1733 198.242 89.3727 198.518 89.331Z" fill="black"/>
<path fill-rule="evenodd" clip-rule="evenodd" d="M198.931 92.2732C198.779 92.2962 198.648 92.1641 198.523 92.0013C198.318 91.7335 198.166 91.3423 198.103 90.8964C198.041 90.4506 198.079 90.0306 198.203 89.7136C198.278 89.5206 198.367 89.3554 198.519 89.3325C198.795 89.291 198.987 89.0242 198.947 88.737C198.907 88.4497 198.649 88.2504 198.374 88.2919C197.985 88.3503 197.642 88.6063 197.403 89.0294C197.128 89.5167 196.993 90.2519 197.104 91.0466C197.216 91.8413 197.547 92.5065 197.944 92.8928C198.289 93.2281 198.688 93.3724 199.077 93.314C199.353 93.2725 199.545 93.0055 199.504 92.7184C199.464 92.4312 199.207 92.2318 198.931 92.2732Z" fill="black"/>
<path d="M187.528 20.214L167.924 11.7642L156.667 37.4714L176.271 45.9212L187.528 20.214Z" fill="#DD6140"/>
<path d="M184.676 22.1406L168.485 15.1619L167.022 18.5035L183.212 25.4823L184.676 22.1406Z" fill="white"/>
<path fill-rule="evenodd" clip-rule="evenodd" d="M167.892 21.4735C168.574 21.7813 168.902 22.5845 168.618 23.2697C168.333 23.955 167.547 24.2555 166.864 23.9477L166.664 24.4302C167.606 24.8551 168.687 24.425 169.08 23.4784C169.473 22.5318 169.034 21.4159 168.092 20.991L167.892 21.4735Z" fill="white"/>
<path fill-rule="evenodd" clip-rule="evenodd" d="M166.829 23.9472C166.147 23.6393 165.819 22.8361 166.104 22.1509C166.388 21.4656 167.175 21.1651 167.857 21.473L168.057 20.9905C167.114 20.5649 166.033 20.9949 165.64 21.9415C165.246 22.8881 165.686 24.0041 166.629 24.4297L166.829 23.9472Z" fill="white"/>
<path fill-rule="evenodd" clip-rule="evenodd" d="M166.153 25.6165C166.836 25.9244 167.164 26.7276 166.879 27.4128C166.594 28.0981 165.808 28.3985 165.126 28.0907L164.925 28.5732C165.867 28.9981 166.948 28.5681 167.342 27.6215C167.735 26.6749 167.296 25.5589 166.354 25.134L166.153 25.6165Z" fill="white"/>
<path fill-rule="evenodd" clip-rule="evenodd" d="M165.091 28.0902C164.408 27.7824 164.08 26.9792 164.365 26.2939C164.65 25.6087 165.436 25.3082 166.118 25.616L166.319 25.1335C165.375 24.7079 164.294 25.138 163.901 26.0846C163.508 27.0312 163.947 28.1471 164.89 28.5727L165.091 28.0902Z" fill="white"/>
<path fill-rule="evenodd" clip-rule="evenodd" d="M164.47 29.7577C165.153 30.0655 165.481 30.8687 165.196 31.5539C164.912 32.2392 164.125 32.5397 163.443 32.2318L163.242 32.7143C164.184 33.1392 165.265 32.7092 165.659 31.7626C166.052 30.816 165.613 29.7 164.671 29.2751L164.47 29.7577Z" fill="white"/>
<path fill-rule="evenodd" clip-rule="evenodd" d="M163.408 32.2313C162.726 31.9235 162.398 31.1203 162.682 30.4351C162.967 29.7498 163.753 29.4493 164.435 29.7572L164.636 29.2746C163.693 28.8491 162.611 29.2791 162.218 30.2257C161.825 31.1723 162.264 32.2883 163.207 32.7138L163.408 32.2313Z" fill="white"/>
<path fill-rule="evenodd" clip-rule="evenodd" d="M162.732 33.9007C163.414 34.2085 163.742 35.0117 163.458 35.697C163.173 36.3823 162.387 36.6827 161.704 36.3749L161.504 36.8574C162.446 37.2823 163.527 36.8523 163.92 35.9057C164.313 34.9591 163.874 33.8431 162.932 33.4182L162.732 33.9007Z" fill="white"/>
<path fill-rule="evenodd" clip-rule="evenodd" d="M161.669 36.3744C160.987 36.0666 160.659 35.2634 160.944 34.5781C161.228 33.8929 162.015 33.5924 162.697 33.9002L162.897 33.4177C161.954 32.9921 160.873 33.4222 160.48 34.3688C160.086 35.3154 160.526 36.4313 161.469 36.8569L161.669 36.3744Z" fill="white"/>
<path fill-rule="evenodd" clip-rule="evenodd" d="M171.93 23.2874C172.613 23.5953 172.94 24.3985 172.656 25.0837C172.371 25.769 171.585 26.0694 170.903 25.7616L170.702 26.2441C171.644 26.669 172.725 26.239 173.118 25.2924C173.512 24.3458 173.072 23.2298 172.131 22.8049L171.93 23.2874Z" fill="white"/>
<path fill-rule="evenodd" clip-rule="evenodd" d="M170.868 25.7611C170.185 25.4533 169.857 24.6501 170.142 23.9648C170.427 23.2796 171.213 22.9791 171.895 23.2869L172.096 22.8044C171.152 22.3788 170.071 22.8089 169.678 23.7555C169.285 24.7021 169.724 25.818 170.667 26.2436L170.868 25.7611Z" fill="white"/>
<path fill-rule="evenodd" clip-rule="evenodd" d="M170.191 27.4305C170.874 27.7383 171.202 28.5415 170.917 29.2268C170.632 29.912 169.846 30.2125 169.164 29.9047L168.963 30.3872C169.905 30.8121 170.986 30.3821 171.38 29.4354C171.773 28.4888 171.334 27.3729 170.392 26.948L170.191 27.4305Z" fill="white"/>
<path fill-rule="evenodd" clip-rule="evenodd" d="M169.129 29.9042C168.446 29.5964 168.119 28.7932 168.403 28.1079C168.688 27.4226 169.474 27.1222 170.156 27.43L170.357 26.9475C169.413 26.5219 168.332 26.9519 167.939 27.8986C167.546 28.8452 167.985 29.9611 168.928 30.3867L169.129 29.9042Z" fill="white"/>
<path fill-rule="evenodd" clip-rule="evenodd" d="M168.453 31.5716C169.135 31.8794 169.463 32.6826 169.179 33.3679C168.894 34.0532 168.108 34.3536 167.425 34.0458L167.225 34.5283C168.167 34.9532 169.248 34.5232 169.641 33.5766C170.034 32.63 169.595 31.514 168.653 31.0891L168.453 31.5716Z" fill="white"/>
<path fill-rule="evenodd" clip-rule="evenodd" d="M167.39 34.0453C166.708 33.7375 166.38 32.9343 166.665 32.249C166.949 31.5638 167.736 31.2633 168.418 31.5711L168.618 31.0886C167.675 30.663 166.594 31.0931 166.201 32.0397C165.807 32.9863 166.247 34.1022 167.19 34.5278L167.39 34.0453Z" fill="white"/>
<path fill-rule="evenodd" clip-rule="evenodd" d="M166.77 35.7147C167.452 36.0225 167.78 36.8257 167.496 37.511C167.211 38.1962 166.425 38.4967 165.742 38.1889L165.542 38.6714C166.484 39.0963 167.565 38.6662 167.958 37.7196C168.351 36.773 167.912 35.6571 166.97 35.2322L166.77 35.7147Z" fill="white"/>
<path fill-rule="evenodd" clip-rule="evenodd" d="M165.707 38.1884C165.025 37.8805 164.697 37.0773 164.982 36.3921C165.266 35.7068 166.053 35.4064 166.735 35.7142L166.935 35.2317C165.992 34.8061 164.911 35.2361 164.518 36.1827C164.125 37.1293 164.564 38.2453 165.507 38.6709L165.707 38.1884Z" fill="white"/>
<path fill-rule="evenodd" clip-rule="evenodd" d="M175.912 25.1014C176.595 25.4092 176.923 26.2124 176.638 26.8977C176.353 27.5829 175.567 27.8834 174.885 27.5756L174.684 28.0581C175.626 28.483 176.707 28.053 177.101 27.1063C177.494 26.1597 177.055 25.0438 176.113 24.6189L175.912 25.1014Z" fill="white"/>
<path fill-rule="evenodd" clip-rule="evenodd" d="M174.85 27.5751C174.167 27.2673 173.839 26.4641 174.124 25.7788C174.409 25.0935 175.195 24.7931 175.877 25.1009L176.078 24.6184C175.134 24.1928 174.053 24.6228 173.66 25.5695C173.267 26.5161 173.706 27.632 174.649 28.0576L174.85 27.5751Z" fill="white"/>
<path fill-rule="evenodd" clip-rule="evenodd" d="M174.23 29.2445C174.912 29.5523 175.24 30.3555 174.955 31.0407C174.671 31.726 173.884 32.0265 173.202 31.7186L173.002 32.2012C173.944 32.6261 175.025 32.196 175.418 31.2494C175.811 30.3028 175.372 29.1869 174.43 28.762L174.23 29.2445Z" fill="white"/>
<path fill-rule="evenodd" clip-rule="evenodd" d="M173.167 31.7181C172.485 31.4103 172.157 30.6071 172.441 29.9219C172.726 29.2366 173.512 28.9361 174.195 29.244L174.395 28.7615C173.452 28.3359 172.371 28.7659 171.977 29.7125C171.584 30.6591 172.023 31.7751 172.967 32.2007L173.167 31.7181Z" fill="white"/>
<path fill-rule="evenodd" clip-rule="evenodd" d="M172.491 33.3856C173.173 33.6934 173.501 34.4966 173.217 35.1819C172.932 35.8671 172.146 36.1676 171.463 35.8598L171.263 36.3423C172.205 36.7672 173.286 36.3371 173.679 35.3905C174.072 34.4439 173.633 33.328 172.691 32.9031L172.491 33.3856Z" fill="white"/>
<path fill-rule="evenodd" clip-rule="evenodd" d="M171.428 35.8593C170.746 35.5514 170.418 34.7482 170.703 34.063C170.987 33.3777 171.774 33.0773 172.456 33.3851L172.656 32.9026C171.713 32.477 170.632 32.907 170.239 33.8536C169.846 34.8002 170.285 35.9162 171.228 36.3418L171.428 35.8593Z" fill="white"/>
<path fill-rule="evenodd" clip-rule="evenodd" d="M170.752 37.5286C171.435 37.8365 171.763 38.6397 171.478 39.3249C171.194 40.0102 170.407 40.3107 169.725 40.0028L169.524 40.4853C170.466 40.9102 171.547 40.4802 171.941 39.5336C172.334 38.587 171.895 37.471 170.953 37.0461L170.752 37.5286Z" fill="white"/>
<path fill-rule="evenodd" clip-rule="evenodd" d="M169.69 40.0023C169.008 39.6945 168.68 38.8913 168.964 38.2061C169.249 37.5208 170.035 37.2203 170.717 37.5281L170.918 37.0456C169.975 36.6201 168.893 37.0501 168.5 37.9967C168.107 38.9433 168.546 40.0593 169.489 40.4848L169.69 40.0023Z" fill="white"/>
<path fill-rule="evenodd" clip-rule="evenodd" d="M179.951 26.9154C180.633 27.2232 180.961 28.0264 180.676 28.7116C180.392 29.3969 179.605 29.6974 178.923 29.3895L178.723 29.8721C179.665 30.297 180.746 29.8669 181.139 28.9203C181.532 27.9737 181.093 26.8578 180.151 26.4329L179.951 26.9154Z" fill="white"/>
<path fill-rule="evenodd" clip-rule="evenodd" d="M178.888 29.389C178.206 29.0812 177.878 28.278 178.162 27.5928C178.447 26.9075 179.233 26.607 179.916 26.9149L180.116 26.4324C179.173 26.0068 178.092 26.4368 177.698 27.3834C177.305 28.33 177.744 29.446 178.688 29.8716L178.888 29.389Z" fill="white"/>
<path fill-rule="evenodd" clip-rule="evenodd" d="M178.212 31.0565C178.894 31.3643 179.222 32.1675 178.938 32.8528C178.653 33.538 177.867 33.8385 177.184 33.5307L176.984 34.0132C177.926 34.4381 179.007 34.008 179.4 33.0614C179.793 32.1148 179.354 30.9989 178.412 30.574L178.212 31.0565Z" fill="white"/>
<path fill-rule="evenodd" clip-rule="evenodd" d="M177.149 33.5302C176.467 33.2223 176.139 32.4191 176.424 31.7339C176.708 31.0486 177.495 30.7482 178.177 31.056L178.377 30.5735C177.434 30.1479 176.353 30.5779 175.96 31.5245C175.566 32.4711 176.006 33.5871 176.949 34.0127L177.149 33.5302Z" fill="white"/>
<path fill-rule="evenodd" clip-rule="evenodd" d="M176.529 35.1995C177.212 35.5074 177.54 36.3106 177.255 36.9958C176.97 37.6811 176.184 37.9816 175.502 37.6737L175.301 38.1562C176.243 38.5811 177.324 38.1511 177.717 37.2045C178.111 36.2579 177.672 35.1419 176.73 34.717L176.529 35.1995Z" fill="white"/>
<path fill-rule="evenodd" clip-rule="evenodd" d="M175.467 37.6732C174.784 37.3654 174.456 36.5622 174.741 35.8769C175.026 35.1917 175.812 34.8912 176.494 35.199L176.695 34.7165C175.751 34.291 174.67 34.721 174.277 35.6676C173.884 36.6142 174.323 37.7302 175.266 38.1557L175.467 37.6732Z" fill="white"/>
<path fill-rule="evenodd" clip-rule="evenodd" d="M174.791 39.3424C175.473 39.6502 175.801 40.4534 175.516 41.1386C175.232 41.8239 174.445 42.1244 173.763 41.8165L173.563 42.2991C174.504 42.724 175.586 42.2939 175.979 41.3473C176.372 40.4007 175.933 39.2848 174.991 38.8599L174.791 39.3424Z" fill="white"/>
<path fill-rule="evenodd" clip-rule="evenodd" d="M173.728 41.8161C173.046 41.5082 172.718 40.705 173.002 40.0198C173.287 39.3345 174.073 39.034 174.756 39.3419L174.956 38.8594C174.013 38.4338 172.931 38.8638 172.538 39.8104C172.145 40.757 172.584 41.873 173.528 42.2986L173.728 41.8161Z" fill="white"/>
<path d="M292.848 114.583H67.4165V121.235H292.848V114.583Z" fill="black"/>
<path fill-rule="evenodd" clip-rule="evenodd" d="M228.871 111.054H231.745V109.799H236.232V111.054H239.291V109.799H243.778V111.054H246.839V109.799H251.326V111.054H252.282C252.72 111.054 253.141 111.236 253.452 111.56C253.761 111.883 253.936 112.321 253.936 112.779V114.528H221.431C221.431 114.528 221.431 113.651 221.431 112.779C221.431 112.321 221.606 111.883 221.915 111.56C222.226 111.236 222.647 111.054 223.086 111.054H224.384V109.799H228.871V111.054Z" fill="#D2D3D5"/>
<path d="M117.648 110.352H78.1853V115.045H117.648V110.352Z" fill="white"/>
<path fill-rule="evenodd" clip-rule="evenodd" d="M99.5338 109.583V110.986H79.082V114.002H99.5338V115.404H78.4093C78.0378 115.404 77.7366 115.091 77.7366 114.703V110.284C77.7366 109.897 78.0378 109.583 78.4093 109.583H99.5338Z" fill="black"/>
<path fill-rule="evenodd" clip-rule="evenodd" d="M99.5468 109.583H118.234C118.605 109.583 118.906 109.897 118.906 110.284V114.703C118.906 115.091 118.605 115.404 118.234 115.404H99.5468C98.9208 114.717 99.1601 114.333 99.5468 114.002H117.561V110.986H99.5468C99.2918 110.468 99.2292 109.988 99.5468 109.583Z" fill="black"/>
<path fill-rule="evenodd" clip-rule="evenodd" d="M101.966 110.497L102.076 114.901C102.086 115.288 102.395 115.593 102.766 115.584C103.138 115.574 103.431 115.251 103.421 114.864L103.311 110.461C103.302 110.075 102.992 109.768 102.621 109.779C102.25 109.789 101.957 110.112 101.966 110.497ZM110.413 108.447V114.631C110.413 115.018 110.714 115.332 111.086 115.332C111.457 115.332 111.759 115.018 111.759 114.631V108.447C111.759 108.059 111.457 107.746 111.086 107.746C110.714 107.746 110.413 108.059 110.413 108.447ZM106.268 108.548V114.233C106.268 114.62 106.569 114.934 106.94 114.934C107.312 114.934 107.613 114.62 107.613 114.233V108.548C107.613 108.161 107.312 107.847 106.94 107.847C106.569 107.847 106.268 108.161 106.268 108.548ZM114.367 108.508V114.084C114.367 114.469 114.668 114.785 115.04 114.785C115.411 114.785 115.712 114.469 115.712 114.084V108.508C115.712 108.122 115.411 107.807 115.04 107.807C114.668 107.807 114.367 108.122 114.367 108.508Z" fill="black"/>
<path fill-rule="evenodd" clip-rule="evenodd" d="M127.401 77.0479H126.21C125.547 77.0479 125.009 76.487 125.009 75.7964C125.009 75.1056 125.547 74.5449 126.21 74.5449H156.075C156.739 74.5449 157.276 75.1056 157.276 75.7964C157.276 76.487 156.739 77.0479 156.075 77.0479H155.52C156.124 77.2691 156.68 77.63 157.141 78.1115C157.952 78.9551 158.406 80.0994 158.406 81.2923V114.536H124.513C124.513 114.536 124.513 91.3011 124.513 81.2923C124.513 80.0994 124.969 78.9551 125.778 78.1115C126.24 77.63 126.795 77.2691 127.401 77.0479Z" fill="#FFF4E5"/>
<path fill-rule="evenodd" clip-rule="evenodd" d="M155.535 77.0476C155.965 77.205 156.371 77.4336 156.736 77.7258L125.298 78.7284C125.444 78.5091 125.609 78.3024 125.793 78.1112C126.255 77.6297 126.81 77.2688 127.415 77.0476H155.535Z" fill="#F4978B"/>
<path d="M136.448 82.841L125.522 86.2925L131.263 106.032L142.189 102.581L136.448 82.841Z" fill="#F4978B"/>
<path fill-rule="evenodd" clip-rule="evenodd" d="M133.992 92.3405C135.273 92.3405 136.314 93.4255 136.314 94.7618C136.314 96.0982 135.273 97.183 133.992 97.183C133.712 97.183 133.487 97.4185 133.487 97.7088C133.487 97.9991 133.712 98.2346 133.992 98.2346C135.83 98.2346 137.323 96.6785 137.323 94.7618C137.323 92.8451 135.83 91.2888 133.992 91.2888C133.712 91.2888 133.487 91.5246 133.487 91.8147C133.487 92.1049 133.712 92.3405 133.992 92.3405Z" fill="#DE6647"/>
<path fill-rule="evenodd" clip-rule="evenodd" d="M134.014 97.183C132.731 97.183 131.692 96.0982 131.692 94.7618C131.692 93.4255 132.731 92.3405 134.014 92.3405C134.292 92.3405 134.519 92.1049 134.519 91.8147C134.519 91.5246 134.292 91.2888 134.014 91.2888C132.174 91.2888 130.683 92.8451 130.683 94.7618C130.683 96.6785 132.174 98.2346 134.014 98.2346C134.292 98.2346 134.519 97.9991 134.519 97.7088C134.519 97.4185 134.292 97.183 134.014 97.183Z" fill="#DE6647"/>
<path fill-rule="evenodd" clip-rule="evenodd" d="M135.084 104.819L134.213 102.04C134.098 101.672 134.292 101.276 134.643 101.156C134.996 101.036 135.376 101.237 135.492 101.605L136.372 104.412L135.084 104.819ZM136.895 104.247L136.308 102.269C136.199 101.899 136.397 101.506 136.752 101.392C137.107 101.277 137.484 101.485 137.593 101.854L138.183 103.84L136.895 104.247ZM132.62 84.0439L133.57 87.2453C133.679 87.6149 133.481 88.0079 133.126 88.1222C132.771 88.2366 132.395 88.0293 132.285 87.6596L131.332 84.4508L132.62 84.0439ZM130.513 84.7095L131.311 87.1366C131.433 87.5026 131.244 87.9017 130.893 88.0272C130.541 88.1527 130.159 87.9574 130.038 87.5913L129.224 85.1165L130.513 84.7095Z" fill="#DE6647"/>
<path d="M157.864 94.3682L146.835 91.2939L141.722 111.22L152.751 114.294L157.864 94.3682Z" fill="#F4978B"/>
<path fill-rule="evenodd" clip-rule="evenodd" d="M150.995 101.112C152.083 101.817 152.419 103.311 151.742 104.446C151.066 105.582 149.632 105.931 148.544 105.226C148.307 105.073 147.996 105.149 147.849 105.396C147.702 105.642 147.774 105.966 148.011 106.12C149.573 107.131 151.629 106.629 152.599 105.001C153.57 103.373 153.088 101.23 151.527 100.219C151.29 100.066 150.979 100.142 150.832 100.388C150.685 100.635 150.757 100.959 150.995 101.112Z" fill="#DE6647"/>
<path fill-rule="evenodd" clip-rule="evenodd" d="M148.59 105.226C147.499 104.521 147.165 103.028 147.842 101.892C148.518 100.757 149.95 100.407 151.04 101.112C151.276 101.265 151.588 101.19 151.735 100.943C151.882 100.696 151.808 100.371 151.573 100.219C150.01 99.2073 147.955 99.7094 146.984 101.338C146.014 102.966 146.494 105.108 148.057 106.12C148.293 106.272 148.605 106.197 148.752 105.95C148.899 105.704 148.825 105.379 148.59 105.226Z" fill="#DE6647"/>
<path fill-rule="evenodd" clip-rule="evenodd" d="M145.617 112.304L146.284 109.464C146.373 109.088 146.738 108.858 147.097 108.949C147.458 109.042 147.679 109.421 147.591 109.798L146.918 112.666L145.617 112.304ZM147.446 112.813L147.948 110.81C148.042 110.436 148.41 110.211 148.769 110.309C149.129 110.407 149.344 110.79 149.25 111.165L148.746 113.176L147.446 112.813ZM154.039 93.2996L153.226 96.5417C153.132 96.9158 152.764 97.1406 152.405 97.0426C152.045 96.9447 151.83 96.5615 151.924 96.1873L152.738 92.937L154.039 93.2996ZM151.912 92.7065L151.362 95.2076C151.28 95.5851 150.918 95.8207 150.555 95.734C150.193 95.6474 149.968 95.2717 150.05 94.894L150.611 92.344L151.912 92.7065Z" fill="#DE6647"/>
<path d="M147.207 89.2289C149.457 89.2289 151.281 87.3281 151.281 84.9832C151.281 82.6384 149.457 80.7375 147.207 80.7375C144.958 80.7375 143.134 82.6384 143.134 84.9832C143.134 87.3281 144.958 89.2289 147.207 89.2289Z" fill="#FFCF84"/>
<path fill-rule="evenodd" clip-rule="evenodd" d="M147.262 82.2786C148.734 82.2786 149.93 83.5251 149.93 85.0605C149.93 86.5962 148.734 87.8427 147.262 87.8427C147.12 87.8427 147.004 87.9625 147.004 88.1099C147.004 88.2574 147.12 88.3772 147.262 88.3772C149.017 88.3772 150.442 86.891 150.442 85.0605C150.442 83.2302 149.017 81.7441 147.262 81.7441C147.12 81.7441 147.004 81.8639 147.004 82.0114C147.004 82.1588 147.12 82.2786 147.262 82.2786Z" fill="#FDA92F"/>
<path fill-rule="evenodd" clip-rule="evenodd" d="M147.27 87.8427C145.796 87.8427 144.6 86.5962 144.6 85.0605C144.6 83.5251 145.796 82.2786 147.27 82.2786C147.409 82.2786 147.524 82.1588 147.524 82.0114C147.524 81.8639 147.409 81.7441 147.27 81.7441C145.513 81.7441 144.087 83.2302 144.087 85.0605C144.087 86.891 145.513 88.3772 147.27 88.3772C147.409 88.3772 147.524 88.2574 147.524 88.1099C147.524 87.9625 147.409 87.8427 147.27 87.8427Z" fill="#FDA92F"/>
<path fill-rule="evenodd" clip-rule="evenodd" d="M146.602 89.1835L146.639 88.1683C146.644 88.0209 146.763 87.9059 146.904 87.9117C147.047 87.9173 147.157 88.0416 147.152 88.189L147.113 89.2293C146.94 89.2251 146.768 89.2097 146.602 89.1835ZM148.093 89.1296L147.843 88.0924C147.809 87.9494 147.892 87.8041 148.029 87.7682C148.166 87.7322 148.305 87.8192 148.341 87.962L148.586 88.9807C148.426 89.0409 148.262 89.0906 148.093 89.1296ZM143.82 87.3417L144.587 86.7105C144.698 86.619 144.859 86.6388 144.947 86.7545C145.034 86.8702 145.016 87.0383 144.905 87.1298L144.131 87.7664C144.02 87.632 143.916 87.4902 143.82 87.3417ZM143.302 86.1942L144.261 85.6527C144.385 85.5824 144.541 85.6306 144.609 85.7603C144.676 85.8899 144.629 86.0522 144.504 86.1225L143.482 86.7007C143.411 86.537 143.352 86.3679 143.302 86.1942ZM151.237 85.6117L150.312 85.567C150.17 85.5602 150.061 85.435 150.068 85.2878C150.075 85.1404 150.194 85.0264 150.335 85.0331L151.28 85.0789C151.277 85.2594 151.262 85.4371 151.237 85.6117ZM150.058 81.9524C150.18 82.0774 150.295 82.2102 150.402 82.3504L149.651 83.155C149.551 83.2607 149.39 83.2631 149.289 83.1602C149.187 83.0573 149.185 82.888 149.284 82.7823L150.058 81.9524ZM145.179 81.3035L145.845 82.3401C145.924 82.4626 145.892 82.6286 145.774 82.7108C145.656 82.7929 145.497 82.7601 145.419 82.6376L144.752 81.5989C144.886 81.4914 145.029 81.3927 145.179 81.3035ZM147.562 80.7549C147.733 80.7703 147.903 80.797 148.07 80.8343L147.969 81.8951C147.954 82.042 147.828 82.1492 147.688 82.1345C147.547 82.12 147.444 81.989 147.458 81.8423L147.562 80.7549Z" fill="#FDA92F"/>
<path d="M136.203 93.895C135.948 96.2246 137.553 98.3289 139.788 98.595C142.024 98.861 144.043 97.1881 144.298 94.8584C144.553 92.5287 142.948 90.4245 140.713 90.1584C138.478 89.8924 136.459 91.5653 136.203 93.895Z" fill="#FFCF84"/>
<path fill-rule="evenodd" clip-rule="evenodd" d="M142.819 94.7377C142.652 96.2619 141.328 97.3588 139.865 97.1846C138.401 97.0104 137.348 95.6306 137.515 94.1064C137.531 93.9597 137.43 93.8254 137.29 93.8087C137.149 93.792 137.022 93.8991 137.006 94.0457C136.807 95.8633 138.061 97.5079 139.806 97.7156C141.551 97.9233 143.13 96.6159 143.329 94.7983C143.345 94.6517 143.244 94.5174 143.103 94.5007C142.963 94.484 142.835 94.591 142.819 94.7377Z" fill="#FDA92F"/>
<path fill-rule="evenodd" clip-rule="evenodd" d="M137.52 94.1076C137.687 92.5815 139.011 91.4846 140.475 91.6589C141.939 91.8331 142.991 93.2128 142.824 94.7389C142.808 94.8837 142.909 95.0161 143.05 95.0328C143.19 95.0496 143.318 94.9443 143.333 94.7995C143.533 92.9801 142.278 91.3355 140.533 91.1279C138.788 90.9202 137.21 92.2275 137.01 94.0469C136.994 94.1917 137.096 94.3241 137.236 94.3409C137.377 94.3576 137.504 94.2524 137.52 94.1076Z" fill="#FDA92F"/>
<path fill-rule="evenodd" clip-rule="evenodd" d="M136.295 93.2722L137.258 93.4257C137.398 93.4476 137.494 93.5843 137.473 93.73C137.451 93.8774 137.32 93.9765 137.18 93.9545L136.193 93.7964C136.217 93.6175 136.251 93.4416 136.295 93.2722ZM136.177 94.823L137.194 94.6812C137.334 94.6626 137.463 94.7644 137.482 94.9113C137.501 95.0564 137.402 95.1911 137.262 95.2115L136.263 95.3502C136.224 95.1779 136.195 95.0016 136.177 94.823ZM138.366 90.6008L138.881 91.4665C138.955 91.5918 138.918 91.7568 138.798 91.8342C138.678 91.9116 138.52 91.8734 138.445 91.7481L137.926 90.8747C138.067 90.7751 138.214 90.6832 138.366 90.6008ZM139.519 90.1946L139.926 91.2487C139.979 91.3855 139.915 91.542 139.784 91.597C139.653 91.6519 139.504 91.5847 139.451 91.4479L139.016 90.3235C139.18 90.2689 139.348 90.2271 139.519 90.1946ZM139.174 98.477L139.321 97.5242C139.344 97.3787 139.476 97.2797 139.615 97.3034C139.755 97.3271 139.85 97.4637 139.828 97.6092L139.677 98.5827C139.505 98.5587 139.337 98.5229 139.174 98.477ZM142.796 97.6714C142.663 97.7844 142.523 97.8877 142.377 97.9832L141.696 97.1135C141.606 96.9988 141.622 96.8313 141.732 96.7385C141.842 96.6439 142.003 96.6614 142.093 96.7761L142.796 97.6714ZM143.968 92.693L142.904 93.265C142.779 93.333 142.624 93.281 142.559 93.1498C142.494 93.0186 142.544 92.8569 142.669 92.7907L143.735 92.2172C143.822 92.3687 143.9 92.5279 143.968 92.693ZM144.221 95.2229C144.187 95.3988 144.142 95.5717 144.087 95.7398L143.088 95.515C142.949 95.4826 142.861 95.3399 142.891 95.197C142.921 95.0524 143.058 94.961 143.196 94.9916L144.221 95.2229Z" fill="#FDA92F"/>
<path d="M128.573 112.921C130.222 114.516 132.799 114.416 134.33 112.698C135.861 110.98 135.765 108.293 134.117 106.698C132.468 105.102 129.89 105.202 128.36 106.92C126.829 108.639 126.924 111.325 128.573 112.921Z" fill="#FFCF84"/>
<path fill-rule="evenodd" clip-rule="evenodd" d="M133.159 107.865C134.238 108.909 134.3 110.671 133.298 111.796C132.295 112.921 130.605 112.987 129.527 111.943C129.423 111.843 129.259 111.848 129.163 111.956C129.067 112.064 129.074 112.234 129.178 112.335C130.464 113.579 132.479 113.501 133.674 112.16C134.869 110.818 134.794 108.719 133.508 107.474C133.404 107.373 133.241 107.379 133.144 107.487C133.048 107.595 133.055 107.765 133.159 107.865Z" fill="#FDA92F"/>
<path fill-rule="evenodd" clip-rule="evenodd" d="M129.538 111.942C128.458 110.896 128.395 109.135 129.398 108.01C130.4 106.884 132.091 106.819 133.171 107.864C133.273 107.963 133.435 107.957 133.532 107.849C133.628 107.741 133.622 107.572 133.519 107.472C132.232 106.226 130.217 106.305 129.022 107.646C127.827 108.987 127.901 111.087 129.189 112.333C129.292 112.432 129.454 112.426 129.55 112.318C129.646 112.21 129.64 112.041 129.538 111.942Z" fill="#FDA92F"/>
<path fill-rule="evenodd" clip-rule="evenodd" d="M128.159 112.456L128.849 111.738C128.949 111.634 129.112 111.634 129.212 111.739C129.313 111.844 129.312 112.013 129.212 112.117L128.504 112.852C128.38 112.726 128.264 112.593 128.159 112.456ZM129.288 113.474L129.781 112.536C129.85 112.408 130.005 112.36 130.13 112.431C130.253 112.501 130.299 112.664 130.231 112.794L129.746 113.715C129.59 113.645 129.436 113.565 129.288 113.474ZM127.323 109.134L128.297 109.215C128.438 109.227 128.544 109.356 128.532 109.502C128.521 109.649 128.398 109.759 128.257 109.748L127.274 109.665C127.28 109.488 127.297 109.31 127.323 109.134ZM127.693 107.925L128.749 108.208C128.886 108.245 128.969 108.391 128.934 108.534C128.898 108.677 128.758 108.762 128.621 108.725L127.494 108.424C127.549 108.254 127.616 108.088 127.693 107.925ZM133.888 113.125L133.239 112.437C133.14 112.331 133.142 112.162 133.243 112.059C133.344 111.956 133.506 111.957 133.605 112.062L134.268 112.766C134.147 112.896 134.02 113.015 133.888 113.125ZM135.413 109.608C135.421 109.786 135.418 109.965 135.406 110.144L134.33 110.2C134.188 110.207 134.068 110.095 134.061 109.948C134.053 109.8 134.162 109.674 134.304 109.667L135.413 109.608ZM132.261 105.672L132.072 106.904C132.05 107.05 131.919 107.149 131.779 107.126C131.639 107.102 131.543 106.965 131.566 106.82L131.755 105.586C131.924 105.602 132.093 105.631 132.261 105.672ZM134.366 106.96C134.481 107.093 134.588 107.233 134.686 107.378L133.92 108.084C133.813 108.181 133.65 108.17 133.557 108.061C133.463 107.95 133.474 107.781 133.579 107.683L134.366 106.96Z" fill="#FDA92F"/>
<path d="M154.042 114.283C156.252 113.845 157.703 111.622 157.283 109.319C156.863 107.015 154.731 105.503 152.52 105.941C150.31 106.379 148.859 108.601 149.279 110.905C149.699 113.208 151.832 114.721 154.042 114.283Z" fill="#FFCF84"/>
<path fill-rule="evenodd" clip-rule="evenodd" d="M152.85 107.444C154.296 107.158 155.694 108.149 155.969 109.658C156.244 111.166 155.293 112.624 153.847 112.91C153.708 112.938 153.615 113.078 153.641 113.223C153.668 113.368 153.804 113.463 153.943 113.435C155.667 113.094 156.801 111.356 156.473 109.558C156.145 107.76 154.478 106.577 152.754 106.919C152.615 106.947 152.522 107.087 152.548 107.232C152.575 107.377 152.711 107.472 152.85 107.444Z" fill="#FDA92F"/>
<path fill-rule="evenodd" clip-rule="evenodd" d="M153.859 112.911C152.412 113.198 151.013 112.206 150.738 110.698C150.463 109.189 151.414 107.732 152.862 107.445C153 107.418 153.091 107.278 153.065 107.133C153.038 106.988 152.904 106.893 152.767 106.92C151.04 107.262 149.906 108.999 150.234 110.797C150.562 112.596 152.229 113.778 153.955 113.436C154.093 113.409 154.184 113.269 154.157 113.124C154.131 112.979 153.997 112.884 153.859 112.911Z" fill="#FDA92F"/>
<path fill-rule="evenodd" clip-rule="evenodd" d="M153.44 114.356L153.294 113.351C153.273 113.206 153.37 113.069 153.509 113.048C153.651 113.025 153.78 113.126 153.802 113.272L153.95 114.301C153.779 114.331 153.608 114.349 153.44 114.356ZM154.896 114.013L154.464 113.042C154.405 112.908 154.46 112.75 154.589 112.688C154.716 112.626 154.869 112.684 154.929 112.817L155.353 113.77C155.207 113.861 155.054 113.942 154.896 114.013ZM150.377 113.088L151.017 112.319C151.11 112.207 151.272 112.195 151.379 112.292C151.485 112.388 151.497 112.557 151.405 112.669L150.759 113.445C150.626 113.334 150.498 113.215 150.377 113.088ZM149.663 112.061L150.507 111.343C150.617 111.25 150.779 111.266 150.869 111.381C150.958 111.495 150.941 111.664 150.831 111.757L149.93 112.524C149.831 112.377 149.743 112.222 149.663 112.061ZM157.353 109.945L156.437 110.081C156.297 110.102 156.167 110 156.147 109.854C156.127 109.708 156.224 109.573 156.364 109.552L157.301 109.413C157.33 109.591 157.347 109.768 157.353 109.945ZM155.539 106.579C155.682 106.678 155.819 106.786 155.949 106.903L155.355 107.84C155.277 107.963 155.118 107.997 155.001 107.915C154.882 107.834 154.85 107.668 154.928 107.545L155.539 106.579ZM150.63 106.891L151.47 107.78C151.57 107.885 151.568 108.054 151.467 108.158C151.366 108.262 151.203 108.261 151.105 108.155L150.263 107.265C150.376 107.133 150.499 107.008 150.63 106.891ZM152.873 105.889C153.044 105.87 153.216 105.863 153.386 105.868L153.477 106.93C153.489 107.077 153.384 107.207 153.244 107.219C153.103 107.233 152.978 107.124 152.965 106.977L152.873 105.889Z" fill="#FDA92F"/>
<path fill-rule="evenodd" clip-rule="evenodd" d="M143.299 113.989L123.565 149.804H115.449C115.449 149.804 112.955 155.357 116.734 157.39H153.96C153.999 157.39 154.035 157.394 154.074 157.399C154.816 157.455 159.052 157.329 162.404 148.278C167.85 133.575 173.369 125.093 178.944 113.989H143.299Z" fill="#E9E9EB"/>
<path d="M135.249 146.955C138.481 147.435 141.941 145.154 142.977 141.861C144.014 138.569 142.234 135.511 139.002 135.031C135.77 134.552 132.31 136.833 131.274 140.125C130.237 143.418 132.017 146.476 135.249 146.955Z" fill="white"/>
<path d="M174.561 115.892L143.919 115.553L142.607 118.047L173.249 118.386L174.561 115.892Z" fill="#BABDC2"/>
<path d="M172.517 120.492L141.731 120.204L140.423 122.7L171.209 122.988L172.517 120.492Z" fill="#BABDC2"/>
<path d="M170.093 125.489L139.208 124.652L137.861 127.124L168.746 127.961L170.093 125.489Z" fill="#BABDC2"/>
<path d="M167.632 130.442L136.908 129.054L135.523 131.501L166.247 132.889L167.632 130.442Z" fill="#BABDC2"/>
<path d="M164.357 135.579L147.957 134.717L146.807 137.104L163.207 137.965L164.357 135.579Z" fill="#BABDC2"/>
<path d="M161.613 140.633L150.537 139.94L149.578 142.338L160.654 143.031L161.613 140.633Z" fill="#BABDC2"/>
<path d="M159.398 145.715L144.704 144.574L143.902 146.983L158.595 148.125L159.398 145.715Z" fill="#BABDC2"/>
<path fill-rule="evenodd" clip-rule="evenodd" d="M124.297 148.463H150.888C150.918 148.463 150.949 148.467 150.979 148.47C151.265 148.51 151.505 148.673 151.616 149.052C151.67 149.234 151.675 149.597 151.606 150.088C151.362 151.846 150.274 156.282 154.63 157.381C154.373 157.411 154.179 157.406 154.068 157.399C154.03 157.394 153.993 157.39 153.954 157.39H151.679C151.531 157.253 151.394 157.11 151.268 156.961C149.734 155.145 149.899 152.516 150.148 150.754C150.19 150.451 150.232 150.123 150.264 149.865L123.559 149.804L124.297 148.463Z" fill="black"/>
<path d="M134.4 142.165C134.859 142.785 135.51 143.175 136.356 143.358C137.372 143.552 137.987 143.307 138.233 142.627C138.416 142.07 138.188 141.665 137.551 141.412C137.249 141.306 136.925 141.196 136.572 141.068C135.942 140.828 135.509 140.483 135.281 140.044C135.046 139.592 135.023 139.094 135.203 138.547C135.416 137.895 135.806 137.413 136.395 137.106C136.962 136.795 137.648 136.721 138.447 136.871C139.409 137.088 140.162 137.521 140.708 138.159L139.748 138.963C139.291 138.478 138.714 138.148 138.02 137.996C137.661 137.923 137.328 137.946 137.03 138.076C136.721 138.204 136.5 138.451 136.372 138.807C136.3 139.028 136.325 139.235 136.44 139.449C136.556 139.663 136.801 139.836 137.159 139.987C137.355 140.06 137.636 140.162 137.992 140.279C138.691 140.521 139.142 140.882 139.356 141.363C139.563 141.831 139.585 142.329 139.41 142.866C138.908 144.29 137.755 144.83 135.973 144.492C134.829 144.26 133.951 143.712 133.348 142.861L134.4 142.165Z" fill="black"/>
<path fill-rule="evenodd" clip-rule="evenodd" d="M138.675 135.903L134.774 145.112L135.677 145.399L139.612 136.109L138.675 135.903Z" fill="black"/>
<path fill-rule="evenodd" clip-rule="evenodd" d="M221.714 133.757C221.275 133.256 220.689 132.977 220.213 133.303C218.542 134.448 217.402 135.669 215.762 136.86C210.693 140.54 203.582 141.566 200.439 147.604C197.252 153.721 197.091 161.218 194.255 167.576C190.436 176.143 184.968 183.745 180.919 192.187C175.904 202.635 168.093 225.548 168.093 225.548C165.571 225.509 153.13 227.2 145.568 228.417C145.28 228.462 145.076 228.732 145.098 229.034C145.12 229.337 145.362 229.57 145.653 229.57C163.484 229.57 215.765 229.57 227.928 229.57C228.548 229.57 229.122 229.225 229.433 228.666C229.744 228.107 229.747 227.416 229.438 226.855C227.881 224.017 225.185 222.354 222.183 221.579C219.874 220.983 217.645 221.276 215.319 221.481C215.232 221.488 215.121 221.504 215.054 221.432C215.037 221.414 215.013 221.383 215.003 221.362C214.386 220.026 214.716 212.444 214.736 210.738C214.822 203.632 215.126 196.505 215.711 189.424C215.9 187.151 216.29 180.615 216.29 180.615C216.29 180.615 221.534 179.863 223.039 179.507C226.745 178.634 229.773 176.133 231.892 172.879C235.035 168.054 235.239 161.5 236.661 156.011C237.85 151.415 240.075 147.834 241.977 143.618C242.965 141.431 242.617 138.199 240.334 137.023C238.103 135.871 235.763 138.278 234.359 139.816C229.89 144.721 229.662 151.469 225.844 156.333C223.136 159.781 217.674 160.414 217.674 160.414C217.674 160.414 217.506 156.209 217.674 155.041C218.517 149.199 221.677 145.485 222.963 140.109C223.335 138.553 223.125 135.363 221.714 133.757Z" fill="#DD6140"/>
<path fill-rule="evenodd" clip-rule="evenodd" d="M209.149 183.04C211.58 181.744 216.313 180.615 216.313 180.615C216.313 180.615 216.188 182.708 216.046 184.936C214.221 184.247 211.934 184.044 209.408 184.088C209.162 184.091 208.945 183.918 208.885 183.671C208.822 183.422 208.932 183.161 209.149 183.04Z" fill="black"/>
<path fill-rule="evenodd" clip-rule="evenodd" d="M211.552 141.571L212.632 142.4C212.931 142.629 213.353 142.563 213.573 142.251C213.794 141.941 213.73 141.501 213.431 141.271L212.351 140.442C212.051 140.212 211.631 140.279 211.411 140.589C211.19 140.901 211.253 141.341 211.552 141.571Z" fill="black"/>
<path fill-rule="evenodd" clip-rule="evenodd" d="M214.891 221.09C214.846 221.017 214.814 220.934 214.796 220.843C213.396 213.429 211.523 208.354 209.402 204.987C207.369 201.759 205.124 200.141 202.877 199.566C198.344 198.404 193.886 201.415 191.405 203.52C190.275 204.477 189.421 205.413 189.421 205.413C189.291 205.58 189.09 205.681 188.868 205.671C188.498 205.652 188.21 205.322 188.228 204.936C188.228 204.926 188.213 204.714 188.425 204.47C188.568 204.307 189.342 203.462 190.556 202.432C193.281 200.118 198.217 196.928 203.198 198.204C205.709 198.847 208.253 200.607 210.527 204.218C212.039 206.617 213.438 209.851 214.636 214.144C214.587 216.729 214.582 219.905 214.891 221.09ZM203.21 145.103C203.21 145.103 201.03 150.81 199.686 154.333C198.881 156.44 199.722 158.841 201.637 159.916C202.51 160.408 203.395 160.773 204.289 161.003C205.504 161.318 206.79 161.031 207.776 160.228C208.763 159.423 209.338 158.191 209.338 156.885C209.338 152.466 209.338 145.361 209.338 145.361C209.338 144.975 209.037 144.659 208.665 144.659C208.295 144.659 207.993 144.975 207.993 145.361C207.993 145.361 207.993 152.466 207.993 156.885C207.993 157.76 207.608 158.584 206.947 159.122C206.287 159.662 205.426 159.853 204.612 159.642C203.824 159.439 203.047 159.117 202.276 158.682C200.96 157.944 200.384 156.296 200.936 154.852C202.281 151.329 204.461 145.62 204.461 145.62C204.597 145.261 204.429 144.852 204.084 144.71C203.738 144.567 203.348 144.742 203.21 145.103ZM217.611 159.013C217.631 159.818 217.655 160.414 217.655 160.414C217.655 160.414 217.762 160.401 217.956 160.372C217.125 160.549 216.356 160.624 215.635 160.617C215.263 160.613 214.965 160.296 214.969 159.911C214.972 159.523 215.275 159.211 215.647 159.215C216.259 159.22 216.91 159.157 217.611 159.013ZM241.731 138.33C241.982 138.724 242.167 139.166 242.289 139.631C239.735 141.559 237.824 144.495 237.733 144.668C237.557 145.008 237.148 145.134 236.822 144.95C236.496 144.766 236.375 144.34 236.551 144C236.652 143.804 238.837 140.444 241.731 138.33ZM239.24 136.725C239.599 136.746 239.958 136.838 240.315 137.023C240.463 137.098 240.603 137.184 240.735 137.277C239.649 138.139 237.441 140.102 235.175 143.355C234.958 143.667 234.536 143.737 234.237 143.51C233.936 143.283 233.869 142.844 234.087 142.532C236.048 139.715 237.974 137.818 239.24 136.725ZM217.961 135.061C218.659 134.465 219.36 133.874 220.194 133.303C220.67 132.977 221.255 133.256 221.694 133.757C222.027 134.136 222.293 134.602 222.502 135.115C220.591 137.182 218.48 135.527 217.961 135.061Z" fill="black"/>
<defs>
<linearGradient id="paint0_linear" x1="93.7699" y1="177.421" x2="263.224" y2="81.5486" gradientUnits="userSpaceOnUse">
<stop stop-color="#B8D8D5"/>
<stop offset="0.42" stop-color="#CEE0DA"/>
<stop offset="1" stop-color="#FFF0E6"/>
</linearGradient>
<linearGradient id="paint1_linear" x1="39.2053" y1="54.8854" x2="-46.8797" y2="158.384" gradientUnits="userSpaceOnUse">
<stop stop-color="#B8D8D5"/>
<stop offset="0.47" stop-color="#CCDFDA"/>
<stop offset="1" stop-color="#FFF0E6"/>
</linearGradient>
<linearGradient id="paint2_linear" x1="280.186" y1="77.4761" x2="332.805" y2="126.64" gradientUnits="userSpaceOnUse">
<stop stop-color="#FFBF2F"/>
<stop offset="1" stop-color="#FD9500"/>
</linearGradient>
<linearGradient id="paint3_linear" x1="314.797" y1="173.455" x2="230.193" y2="118.74" gradientUnits="userSpaceOnUse">
<stop stop-color="#FFBF2F"/>
<stop offset="0.48" stop-color="#FEB422"/>
<stop offset="1" stop-color="#FD9500"/>
</linearGradient>
</defs>
</svg>
