<svg width="316" height="248" viewBox="0 0 316 248" fill="none" xmlns="http://www.w3.org/2000/svg">
<path fill-rule="evenodd" clip-rule="evenodd" d="M87.2721 111.409C87.2721 111.409 56.6573 107.971 44.8022 130.097C40.8129 137.542 11.244 206.582 8.10953 233.791C8.10953 233.791 0.988972 236.043 0 239.698H41.9461C42.3906 239.698 42.7917 239.431 42.963 239.02C46.0238 231.698 72.8824 167.435 72.8824 167.435C72.8824 167.435 76.3359 225.687 77.041 237.589C77.1117 238.774 78.0928 239.698 79.279 239.698C87.2308 239.698 114.927 239.698 114.927 239.698C114.927 239.698 113.945 235.858 106.752 233.791C106.752 233.791 110.641 143.175 99.8429 120.487L87.2721 111.409Z" fill="url(#paint0_linear)"/>
<path fill-rule="evenodd" clip-rule="evenodd" d="M66.9297 181.665L70.7159 143.465C70.7418 143.199 70.9676 142.999 71.2349 143.006C71.5004 143.013 71.7159 143.225 71.728 143.492L72.8073 167.603L66.9297 181.665Z" fill="#13524E"/>
<path fill-rule="evenodd" clip-rule="evenodd" d="M107.435 198.874C107.435 199.454 107.433 200.028 107.432 200.598H74.8504L74.7487 198.874H107.435ZM17.311 198.874H59.7437L59.0232 200.598H16.7324L16.7415 200.571C16.9245 200.023 17.1084 199.476 17.2933 198.928L17.311 198.874Z" fill="#82B5B2"/>
<path d="M63.793 58.3535C70.0155 58.3535 75.0599 53.3091 75.0599 47.0866C75.0599 40.864 70.0155 35.8196 63.793 35.8196C57.5704 35.8196 52.526 40.864 52.526 47.0866C52.526 53.3091 57.5704 58.3535 63.793 58.3535Z" fill="#A8CFCC"/>
<path fill-rule="evenodd" clip-rule="evenodd" d="M62.9607 35.8484C63.5297 38.1448 64.3521 43.9359 60.0714 49.0528C59.6176 48.318 58.7964 47.8266 57.8597 47.8266C56.4319 47.8266 55.2729 48.9676 55.2729 50.3728C55.2729 51.7782 56.4319 52.9192 57.8597 52.9192C58.1066 52.9192 58.3455 52.8849 58.5719 52.8211C58.6042 53.7085 58.3747 54.9492 57.2864 56.282C54.407 54.2406 52.526 50.8807 52.526 47.085C52.526 41.1464 57.1304 36.2748 62.9607 35.8484Z" fill="black"/>
<path fill-rule="evenodd" clip-rule="evenodd" d="M54.5446 52.7893C54.2243 52.9772 53.4175 52.949 53.0506 53.0226C51.8472 53.2638 50.6506 53.5436 49.4592 53.8381C45.7746 54.7486 42.1423 55.8443 38.7049 57.4719C36.204 58.6561 33.5855 60.1551 32.4022 62.7792C30.6822 66.5937 33.7391 70.0174 37.7133 69.6591C41.5461 69.3136 44.5542 66.5366 47.108 63.9252C50.096 60.8699 53.5077 57.5766 55.7986 53.9302" fill="black"/>
<path fill-rule="evenodd" clip-rule="evenodd" d="M41.3804 78.1098C39.4735 80.1415 22.6975 98.4821 10.0926 112.632C5.86357 117.418 5.48047 124.483 9.16722 129.699C9.1667 129.7 9.16687 129.7 9.16687 129.7C12.405 134.282 18.2659 136.194 23.5827 134.404C29.3436 132.463 37.2114 127.98 46.3675 117.937C51.0185 112.835 54.716 108.176 57.767 105.324C57.767 105.324 71.1523 109.63 78.0368 102.25C78.0368 102.25 94.8438 123.725 111.109 132.285C117.542 135.63 125.468 133.385 129.191 127.163C130.923 124.29 131.651 120.831 129.701 117.076C121.163 100.628 107.756 88.1831 87.2645 68.4807C83.2868 64.6552 76.3316 59.1912 62.8609 62.3093C57.7855 63.4841 51.5989 67.2223 41.3804 78.1098Z" fill="#A8CFCC"/>
<path fill-rule="evenodd" clip-rule="evenodd" d="M70.8724 91.6284C70.8724 91.6284 71.3138 91.5146 71.8345 91.5616C72.2759 91.6015 72.7983 91.7575 73.0673 92.313C73.4276 93.0601 72.8828 93.6768 72.0517 94.307C70.3672 95.5853 67.4 96.7032 64.7724 97.773C64.4189 97.9165 64.2499 98.3193 64.3931 98.6718C64.5362 99.0243 64.9396 99.1941 65.2913 99.0505C68.0379 97.933 71.1259 96.7413 72.8862 95.4058C74.3552 94.2915 74.9466 93.0353 74.3086 91.7135C73.7879 90.6351 72.8155 90.2654 71.9586 90.1878C71.181 90.1176 70.5207 90.2949 70.5207 90.2949C70.1517 90.3921 69.9328 90.7699 70.0293 91.1378C70.1276 91.5059 70.5052 91.7258 70.8724 91.6284Z" fill="#82B5B2"/>
<path fill-rule="evenodd" clip-rule="evenodd" d="M76.21 88.809C76.21 88.809 77.0306 88.0133 78.1479 87.3783C78.8462 86.9819 79.6634 86.6374 80.4652 86.6416C80.7928 86.6421 81.1014 86.7843 81.3134 87.0312C81.5255 87.278 81.6186 87.6049 81.5686 87.9262C81.4341 88.7006 81.0652 89.7518 80.1134 90.7549C78.8048 92.1351 75.4927 96.3022 64.9444 97.6379C64.5668 97.6856 64.2995 98.0311 64.3478 98.4087C64.3961 98.7863 64.7409 99.0541 65.1185 99.0063C76.2513 97.5961 79.7324 93.1613 81.1152 91.7042C82.3048 90.4507 82.7583 89.1343 82.9307 88.1495C83.0428 87.4167 82.8341 86.6857 82.3617 86.1336C81.8876 85.5816 81.1979 85.2633 80.4703 85.2623C79.4358 85.2571 78.3686 85.6667 77.4669 86.1788C76.1858 86.9064 75.2479 87.82 75.2479 87.82C74.9755 88.0854 74.9686 88.5224 75.2341 88.7954C75.4996 89.0681 75.9358 89.0743 76.21 88.809Z" fill="#82B5B2"/>
<path fill-rule="evenodd" clip-rule="evenodd" d="M78.0035 93.3309C78.0035 93.3309 76.2362 97.8417 74.4914 99.5849C74.2224 99.8541 74.2224 100.291 74.4914 100.56C74.7603 100.83 75.1983 100.83 75.4672 100.56C77.3465 98.6817 79.2862 93.8392 79.2862 93.8392C79.4259 93.4854 79.2535 93.0842 78.8983 92.9439C78.5448 92.8037 78.1431 92.9771 78.0035 93.3309Z" fill="#82B5B2"/>
<path fill-rule="evenodd" clip-rule="evenodd" d="M72.6796 96.309V97.9323C72.6796 98.313 72.9883 98.622 73.3693 98.622C73.7486 98.622 74.059 98.313 74.059 97.9323V96.309C74.059 95.9285 73.7486 95.6194 73.3693 95.6194C72.9883 95.6194 72.6796 95.9285 72.6796 96.309Z" fill="#82B5B2"/>
<path fill-rule="evenodd" clip-rule="evenodd" d="M77.6121 70.2458C77.6121 70.2458 76.5087 70.7031 75.9897 71.9608C75.6707 72.7329 75.5535 73.8301 76.1569 75.3374C76.8535 77.0741 78.6449 82.2149 76.2104 86.1719C76.0104 86.4961 76.1121 86.9211 76.4345 87.1207C76.7604 87.3202 77.1845 87.219 77.3845 86.8949C80.0983 82.4864 78.2121 76.7593 77.4363 74.8241C77.019 73.7794 77.0431 73.0224 77.2638 72.4874C77.5552 71.7848 78.1535 71.5141 78.1535 71.5141C78.5035 71.3644 78.6673 70.9587 78.5173 70.6087C78.3673 70.2589 77.9621 70.0962 77.6121 70.2458Z" fill="#82B5B2"/>
<path fill-rule="evenodd" clip-rule="evenodd" d="M51.2951 112.362C49.7799 114.106 48.1432 115.988 46.3675 117.937C37.2114 127.98 29.3436 132.463 23.5827 134.404C18.2659 136.194 12.405 134.282 9.16687 129.7C9.16687 129.7 9.1667 129.7 9.16722 129.699C5.48047 124.483 5.86357 117.418 10.0926 112.632C22.6975 98.4821 39.4735 80.1415 41.3804 78.1098C51.5989 67.2223 57.7855 63.4841 62.8609 62.3093C76.3316 59.1912 83.2868 64.6552 87.2645 68.4807C107.756 88.1831 121.163 100.628 129.701 117.076C131.651 120.831 130.923 124.29 129.191 127.163C126.184 132.188 120.434 134.619 114.944 133.606L110.28 131.838C104.663 128.735 99.0145 124.164 94.0473 119.537C91.2197 116.599 89.2817 114.361 89.2817 114.361L97.5214 94.0131L84.2506 84.6031C83.692 80.7534 83.4713 78.293 82.2799 75.742C81.9558 75.044 81.5575 74.3394 81.0592 73.5977C78.7437 70.1444 77.2851 72.1999 77.2851 72.1999C76.2092 70.8718 75.2109 70.2601 74.5454 69.9792C74.1937 69.8394 73.7989 69.864 73.4678 70.0464C73.1385 70.2288 72.9075 70.5499 72.8385 70.9211C72.6781 71.8338 73.2368 72.863 73.5385 73.3354C73.6316 73.4785 73.7385 73.6125 73.8575 73.7352C80.3972 80.496 76.7816 88.0848 76.7816 88.0848C73.5506 92.0619 67.7816 91.9676 67.7816 91.9676C63.5626 92.3071 60.9091 91.0064 59.4043 89.8204C57.1667 88.0619 54.2072 87.5164 51.4896 88.3617C44.8568 90.4755 37.6998 96.7723 37.6998 96.7723L51.2951 112.362Z" fill="url(#paint1_linear)"/>
<path fill-rule="evenodd" clip-rule="evenodd" d="M57.7872 105.33L64.5481 97.7686C64.5481 97.7686 72.6947 101.488 75.2758 98.578L78.5499 102.891C78.2137 102.476 78.0379 102.249 78.0379 102.249C71.3051 109.468 58.3514 105.507 57.7872 105.33Z" fill="#82B5B2"/>
<path fill-rule="evenodd" clip-rule="evenodd" d="M39.2258 95.5204C38.2709 96.2786 37.709 96.773 37.709 96.773L38.8214 98.0486L18.6046 114.808C18.2382 115.111 17.6944 115.06 17.3906 114.694C17.087 114.327 17.1379 113.784 17.5042 113.48L39.0133 95.6498C39.0792 95.5953 39.1509 95.5521 39.2258 95.5204ZM96.5375 93.3095C96.7185 93.3209 96.8996 93.3897 97.0479 93.5181L116.736 110.579C117.095 110.891 117.134 111.435 116.822 111.795C116.51 112.155 115.965 112.194 115.607 111.882L96.8703 95.6459L97.5306 94.0138L96.5375 93.3095ZM41.1868 94.0265C41.2884 92.3664 41.5761 89.1184 42.3572 86.2767C42.4413 86.0146 42.688 85.8393 42.9632 85.846C43.2384 85.8527 43.4763 86.0398 43.5475 86.3056C43.9713 87.8782 44.5523 90.0429 44.9437 91.5019C43.5565 92.3496 42.2744 93.2317 41.1868 94.0265ZM88.7064 87.7574L89.6306 83.3579C89.6651 83.1932 89.7978 83.0668 89.9633 83.0396C90.1288 83.0123 90.2944 83.0898 90.3789 83.2346C90.9013 84.3886 91.6875 86.6112 92.0685 90.1415L88.7064 87.7574Z" fill="#13524E"/>
<path d="M67.1857 92.2945C73.2338 92.2945 78.1367 87.4589 78.1367 81.4938C78.1367 75.5288 73.2338 70.6931 67.1857 70.6931C61.1377 70.6931 56.2347 75.5288 56.2347 81.4938C56.2347 87.4589 61.1377 92.2945 67.1857 92.2945Z" fill="#FFCD80"/>
<path d="M67.165 90.4763C72.2331 90.4763 76.3416 86.4242 76.3416 81.4256C76.3416 76.4271 72.2331 72.375 67.165 72.375C62.097 72.375 57.9885 76.4271 57.9885 81.4256C57.9885 86.4242 62.097 90.4763 67.165 90.4763Z" fill="#FFB000"/>
<path d="M63.8608 83.869C64.4743 84.7623 65.3074 85.329 66.3667 85.6023C67.6374 85.8953 68.3787 85.5529 68.6314 84.5851C68.8154 83.7906 68.504 83.2082 67.6974 82.838C67.3161 82.682 66.9076 82.5194 66.4617 82.3318C65.6653 81.9799 65.1047 81.4794 64.7901 80.8488C64.4654 80.1998 64.4001 79.4872 64.5805 78.7076C64.7956 77.7782 65.2416 77.0949 65.9458 76.6643C66.6226 76.2271 67.4652 76.131 68.4633 76.3578C69.6691 76.6825 70.6315 77.3123 71.354 78.2321L70.2277 79.3676C69.627 78.6674 68.889 78.1872 68.0205 77.9603C67.5708 77.851 67.1615 77.8782 66.8028 78.0602C66.4304 78.2389 66.1767 78.5889 66.0451 79.0953C65.9722 79.4101 66.0188 79.7064 66.1778 80.0143C66.3368 80.3221 66.6529 80.5731 67.1055 80.794C67.354 80.9019 67.708 81.0512 68.1574 81.2238C69.039 81.5806 69.6234 82.1027 69.9241 82.7933C70.2146 83.4656 70.28 84.1782 70.103 84.9428C69.5902 86.9717 68.2063 87.7279 65.9784 87.2181C64.5477 86.8703 63.4223 86.0743 62.6123 84.8482L63.8608 83.869Z" fill="#FFCD80"/>
<path fill-rule="evenodd" clip-rule="evenodd" d="M67.3134 74.1427L65.7641 88.9434L67.6324 89.2025L68.8997 74.3627L67.3134 74.1427Z" fill="#FFCD80"/>
<path fill-rule="evenodd" clip-rule="evenodd" d="M24.3425 213.635C23.3015 213.447 22.5111 212.535 22.5111 211.44V206.978C22.5111 205.747 23.5108 204.747 24.742 204.747H49.8017C51.0331 204.747 52.0327 205.747 52.0327 206.978V211.44C52.0327 212.535 51.2424 213.447 50.2013 213.635C51.2424 213.824 52.0327 214.736 52.0327 215.831V220.293C52.0327 221.388 51.2424 222.298 50.2013 222.488C51.2424 222.676 52.0327 223.588 52.0327 224.683V229.145C52.0327 230.24 51.2424 231.152 50.2013 231.34C51.2424 231.53 52.0327 232.44 52.0327 233.535V237.997C52.0327 239.228 51.0331 240.228 49.8017 240.228H24.742C23.5108 240.228 22.5111 239.228 22.5111 237.997V233.535C22.5111 232.44 23.3015 231.53 24.3425 231.34C23.3015 231.152 22.5111 230.24 22.5111 229.145V224.683C22.5111 223.588 23.3015 222.676 24.3425 222.488C23.3015 222.298 22.5111 221.388 22.5111 220.293V215.831C22.5111 214.736 23.3015 213.824 24.3425 213.635Z" fill="#FFCD80"/>
<path fill-rule="evenodd" clip-rule="evenodd" d="M46.1315 204.747V211.886H51.9188C51.9467 211.886 51.9743 211.888 52.0014 211.89C51.8278 212.738 51.1731 213.41 50.3357 213.61H50.2912V213.621C50.2662 213.626 50.241 213.631 50.2155 213.635C50.241 213.64 50.2662 213.645 50.2912 213.65V220.736H51.9188C51.9467 220.736 51.9745 220.738 52.0017 220.74C51.829 221.586 51.1773 222.259 50.3426 222.46H48.4988V229.588H51.9188C51.9469 229.588 51.9747 229.588 52.0021 229.592C51.8304 230.435 51.1814 231.107 50.3495 231.312H45.7765V240.228H44.0524V231.312H42.4208V240.228H40.6967V231.312H29.2459V240.228H27.5218V231.312H24.2228C23.3897 231.107 22.7398 230.433 22.5693 229.588H33.403V222.46H24.2297C23.3936 222.259 22.741 221.585 22.5696 220.736H25.0533V213.61H24.2366C23.3979 213.41 22.7426 212.735 22.57 211.886H29.8111V204.747H31.5352V211.886H40.906V204.747H42.6301V211.886H44.4074V204.747H46.1315ZM35.1271 222.46V229.588H36.4304V222.46H35.1271ZM38.1546 222.46V229.588H46.7746V222.46H38.1546ZM26.7774 213.61V220.736H39.6318V213.61H26.7774ZM41.356 213.61V220.736H48.5671V213.61H41.356Z" fill="#FDA425"/>
<path fill-rule="evenodd" clip-rule="evenodd" d="M256.111 94.8191C254.932 94.2369 254.12 93.0213 254.12 91.6177V84.4818C254.12 82.5124 255.718 80.9138 257.687 80.9138H311.87C313.839 80.9138 315.438 82.5124 315.438 84.4818V91.6177C315.438 93.0213 314.626 94.2369 313.445 94.8191C314.626 95.4015 315.438 96.6171 315.438 98.0207V105.157C315.438 106.391 314.81 107.479 313.857 108.12C314.81 108.761 315.438 109.849 315.438 111.084V118.22C315.438 119.454 314.81 120.542 313.857 121.184C314.81 121.823 315.438 122.913 315.438 124.146V131.282C315.438 132.517 314.81 133.604 313.857 134.246C314.81 134.887 315.438 135.975 315.438 137.21V144.346C315.438 145.579 314.81 146.668 313.857 147.31C314.81 147.949 315.438 149.039 315.438 150.272V157.408C315.438 158.643 314.81 159.731 313.857 160.372C314.81 161.013 315.438 162.101 315.438 163.336V170.472C315.438 171.705 314.81 172.794 313.857 173.434C314.81 174.076 315.438 175.163 315.438 176.398V183.534C315.438 184.769 314.81 185.857 313.857 186.498C314.81 187.139 315.438 188.227 315.438 189.462V196.598C315.438 197.831 314.81 198.921 313.857 199.56C314.81 200.202 315.438 201.29 315.438 202.524V209.66C315.438 210.895 314.81 211.983 313.857 212.624C314.81 213.264 315.438 214.353 315.438 215.588V222.722C315.438 223.957 314.81 225.047 313.857 225.686C314.81 226.328 315.438 227.416 315.438 228.65V235.786C315.438 237.755 313.839 239.354 311.87 239.354H257.687C255.718 239.354 254.12 237.755 254.12 235.786V228.65C254.12 227.416 254.748 226.328 255.701 225.686C254.748 225.047 254.12 223.957 254.12 222.722V215.588C254.12 214.353 254.748 213.264 255.701 212.624C254.748 211.983 254.12 210.895 254.12 209.66V202.524C254.12 201.29 254.748 200.202 255.701 199.56C254.748 198.921 254.12 197.831 254.12 196.598V189.462C254.12 188.227 254.748 187.139 255.701 186.498C254.748 185.857 254.12 184.769 254.12 183.534V176.398C254.12 175.163 254.748 174.076 255.701 173.434C254.748 172.794 254.12 171.705 254.12 170.472V163.336C254.12 162.101 254.748 161.013 255.701 160.372C254.748 159.731 254.12 158.643 254.12 157.408V150.272C254.12 149.039 254.748 147.949 255.701 147.31C254.748 146.668 254.12 145.579 254.12 144.346V137.21C254.12 135.975 254.748 134.887 255.701 134.246C254.748 133.604 254.12 132.517 254.12 131.282V124.146C254.12 122.913 254.748 121.823 255.701 121.184C254.748 120.542 254.12 119.454 254.12 118.22V111.084C254.12 109.849 254.748 108.761 255.701 108.12C254.748 107.479 254.12 106.391 254.12 105.157V98.0207C254.12 96.6171 254.932 95.4015 256.111 94.8191Z" fill="#FFCD80"/>
<path fill-rule="evenodd" clip-rule="evenodd" d="M298.789 80.9138V93.0087H305.392C305.48 92.6265 305.823 92.341 306.232 92.341C306.641 92.341 306.984 92.6265 307.072 93.0087H315.165C314.854 93.7405 314.308 94.3474 313.62 94.7329H307.094V106.442H315.208C314.942 107.13 314.47 107.715 313.866 108.12C313.889 108.135 313.91 108.15 313.932 108.166H312.42V119.792C312.42 119.82 312.418 119.847 312.416 119.875H315.041C314.763 120.403 314.358 120.853 313.866 121.184C314.049 121.306 314.22 121.446 314.377 121.599H305.278V132.658H315.172C314.901 133.306 314.442 133.858 313.866 134.246C313.93 134.289 313.994 134.335 314.054 134.382H310.458V145.708H315.177C314.906 146.363 314.446 146.918 313.866 147.31C313.925 147.348 313.982 147.389 314.039 147.432H304.337V158.775H315.177C314.904 159.427 314.446 159.982 313.866 160.372C313.927 160.413 313.985 160.455 314.042 160.5H310.101V171.948H315.127C314.853 172.553 314.413 173.067 313.866 173.434C313.975 173.508 314.08 173.588 314.18 173.672H302.644V184.857H315.194C314.925 185.527 314.46 186.1 313.866 186.498C313.906 186.524 313.944 186.551 313.982 186.581H307.658V197.755H315.254C315.015 198.453 314.566 199.053 313.982 199.479H302.097V211.003H315.185C314.916 211.665 314.453 212.229 313.866 212.624C313.915 212.657 313.963 212.691 314.011 212.728H308.727V223.898H315.249C315.004 224.598 314.549 225.198 313.958 225.623H296.518V239.354H294.794V225.623H291.311V239.354H289.587V225.623H266.94V239.354H265.216V225.623H255.62C255.028 225.198 254.573 224.598 254.328 223.898H257.392V212.728H255.566C255.613 212.691 255.661 212.657 255.711 212.624C255.125 212.229 254.661 211.665 254.39 211.003H265.466V199.479H255.595C255.011 199.053 254.561 198.453 254.321 197.755H258.632V186.581H255.594C255.632 186.551 255.671 186.524 255.711 186.498C255.118 186.1 254.651 185.527 254.383 184.857H263.747V173.672H255.395C255.497 173.588 255.601 173.508 255.711 173.434C255.164 173.067 254.725 172.553 254.449 171.948H258.197V160.5H255.533C255.592 160.455 255.651 160.413 255.711 160.372C255.132 159.982 254.671 159.427 254.401 158.775H264.368V147.432H255.538C255.595 147.389 255.652 147.348 255.711 147.31C255.13 146.918 254.67 146.363 254.399 145.708H256.995V134.382H255.521C255.583 134.335 255.647 134.289 255.711 134.246C255.133 133.858 254.676 133.306 254.404 132.658H260.037V121.599H255.201C255.357 121.446 255.528 121.306 255.711 121.184C255.22 120.853 254.814 120.403 254.537 119.875H270.18V108.166H261.351C261.239 108.219 261.114 108.249 260.983 108.249C260.851 108.249 260.726 108.219 260.614 108.166H255.644C255.666 108.15 255.688 108.135 255.711 108.12C255.107 107.715 254.635 107.13 254.368 106.442H260.121V94.7329H255.957C255.27 94.3474 254.721 93.7403 254.411 93.0087H260.142C260.232 92.6265 260.573 92.341 260.983 92.341C261.392 92.341 261.735 92.6265 261.823 93.0087H272.658V80.9138H274.382V93.0087H276.252V80.9138H277.977V93.0087H282.932C283.02 92.6265 283.363 92.341 283.773 92.341C284.182 92.341 284.525 92.6265 284.613 93.0087H287.227C287.316 92.6265 287.658 92.341 288.068 92.341C288.477 92.341 288.82 92.6265 288.908 93.0087H297.065V80.9138H298.789ZM259.116 212.728V223.898H274.537V212.728H259.116ZM276.261 212.728V223.898H278.896V212.728H276.261ZM280.62 212.728V223.898H307.003V212.728H280.62ZM267.19 199.479V211.003H283.206V199.479H267.19ZM297.084 199.479H284.93V211.003H297.078V199.571L297.084 199.479ZM298.803 211.003H300.373V199.479H298.797C298.801 199.508 298.803 199.54 298.803 199.571V211.003ZM295.108 186.581V197.755H305.934V186.581H295.108ZM276.309 197.755H293.384V186.581H276.294C276.304 186.633 276.309 186.686 276.309 186.739V197.755ZM274.599 186.581H260.356V197.755H274.585V186.739C274.585 186.688 274.589 186.634 274.599 186.583V186.581ZM288.682 173.672V184.857H300.92V173.672H288.682ZM284.787 173.672V184.857H286.958V173.672H284.787ZM265.471 173.672V184.857H283.063V173.672H265.471ZM273.021 160.5V171.948H294.125V160.5H273.021ZM259.921 160.5V171.948H271.297V160.5H259.921ZM295.849 160.5V171.948H308.377V160.5H295.849ZM281.023 147.432V158.775H282.733V147.432H281.023ZM272.309 158.775H279.299V147.432H266.092V158.775H272.009C272.058 158.767 272.108 158.762 272.159 158.762C272.211 158.762 272.261 158.767 272.309 158.775ZM284.458 147.432V158.775H302.613V147.432H284.458ZM303.732 145.708H308.734V134.382H294.62V145.708H303.218C303.299 145.682 303.385 145.668 303.475 145.668C303.565 145.668 303.651 145.682 303.732 145.708ZM290.466 134.382V145.708H292.896V134.382H290.466ZM258.72 134.382V145.708H275.613V134.382H258.72ZM277.337 134.382V145.708H288.742V134.382H277.337ZM261.761 121.599V132.658H263.866V121.599H261.761ZM285.435 121.599V132.658H303.554V121.599H285.435ZM265.59 121.599V132.658H283.711V121.599H265.59ZM274.956 108.166H271.904V119.875H274.961C274.958 119.847 274.956 119.82 274.956 119.792V108.166ZM295.801 108.166H288.435C288.325 108.219 288.199 108.249 288.068 108.249C287.935 108.249 287.811 108.219 287.699 108.166H284.14C284.028 108.219 283.904 108.249 283.773 108.249C283.64 108.249 283.516 108.219 283.404 108.166H276.68V119.792C276.68 119.82 276.68 119.847 276.677 119.875H295.804C295.801 119.847 295.801 119.82 295.801 119.792V108.166ZM310.696 108.166H306.601C306.489 108.219 306.365 108.249 306.232 108.249C306.101 108.249 305.975 108.219 305.865 108.166H297.525V119.792C297.525 119.82 297.523 119.847 297.52 119.875H310.699C310.697 119.847 310.696 119.82 310.696 119.792V108.166ZM261.845 94.7329V106.442H282.911V94.7329H261.845ZM284.635 94.7329V106.442H287.206V94.7329H284.635ZM288.93 94.7329V106.442H305.37V94.7329H288.93Z" fill="#FDA425"/>
<path fill-rule="evenodd" clip-rule="evenodd" d="M164.42 173.916C163.467 173.277 162.839 172.187 162.839 170.954V163.818C162.839 161.849 164.437 160.249 166.406 160.249H220.588C222.559 160.249 224.157 161.849 224.157 163.818V170.954C224.157 172.187 223.529 173.277 222.576 173.916C223.529 174.558 224.157 175.646 224.157 176.88V184.016C224.157 185.251 223.529 186.339 222.576 186.98C223.529 187.62 224.157 188.71 224.157 189.944V197.079C224.157 198.313 223.529 199.403 222.576 200.042C223.529 200.684 224.157 201.772 224.157 203.006V210.143C224.157 211.377 223.529 212.465 222.576 213.106C223.529 213.746 224.157 214.836 224.157 216.068V223.205C224.157 224.439 223.529 225.527 222.576 226.169C223.529 226.81 224.157 227.898 224.157 229.132V236.269C224.157 238.238 222.559 239.836 220.588 239.836H166.406C164.437 239.836 162.839 238.238 162.839 236.269V229.132C162.839 227.898 163.467 226.81 164.42 226.169C163.467 225.527 162.839 224.439 162.839 223.205V216.068C162.839 214.836 163.467 213.746 164.42 213.106C163.467 212.465 162.839 211.377 162.839 210.143V203.006C162.839 201.772 163.467 200.684 164.42 200.042C163.467 199.403 162.839 198.313 162.839 197.079V189.944C162.839 188.71 163.467 187.62 164.42 186.98C163.467 186.339 162.839 185.251 162.839 184.016V176.88C162.839 175.646 163.467 174.558 164.42 173.916Z" fill="#FFCD80"/>
<path fill-rule="evenodd" clip-rule="evenodd" d="M211.424 172.451H223.827C223.551 173.047 223.115 173.554 222.575 173.916C222.693 173.996 222.805 174.082 222.913 174.175H217.798V185.339V185.341H223.901C223.634 186.011 223.167 186.582 222.575 186.98C222.615 187.008 222.656 187.035 222.696 187.065H212.486V198.155C212.486 198.205 212.482 198.253 212.474 198.299H223.941C223.684 199.005 223.212 199.606 222.603 200.023H219.456V211.187C219.456 211.236 219.451 211.284 219.444 211.33H223.953C223.705 212.032 223.244 212.632 222.648 213.055H213.253V224.415H223.944C223.691 225.12 223.222 225.72 222.617 226.139H219.034V239.836H217.31V226.139H206.187C206.187 226.155 206.189 226.169 206.189 226.182V239.836H204.465V226.182C204.465 226.169 204.465 226.155 204.465 226.139H195.961C195.851 226.191 195.73 226.219 195.603 226.219C195.473 226.219 195.353 226.191 195.242 226.139H184.196V239.836H182.472V226.139H179.458V239.836H177.734V226.139H164.377C163.771 225.72 163.303 225.12 163.049 224.415H174.946V213.055H164.346C163.751 212.632 163.289 212.032 163.04 211.33H167.42V200.023H164.392C163.782 199.606 163.309 199.005 163.052 198.299H173.637V187.065H164.297C164.339 187.035 164.378 187.008 164.42 186.98C163.827 186.582 163.361 186.011 163.092 185.341H166.863V174.175H164.082C164.189 174.082 164.301 173.996 164.42 173.916C163.878 173.554 163.444 173.047 163.166 172.451H171.092V160.249H172.816V172.451H174.582V160.249H176.306V172.451H192.141V160.249H193.865V172.451H209.699V160.249H211.424V172.451ZM176.67 213.055V224.415H194.741V213.055H176.67ZM196.465 213.055V224.415H208.115V213.055H196.465ZM209.839 213.055V224.415H211.529V213.055H209.839ZM169.144 200.023V211.33H183.092V200.023H169.144ZM201.73 200.023H184.816V211.33H201.777C201.748 211.243 201.73 211.148 201.73 211.049V200.023ZM217.732 200.023H203.455V211.049C203.455 211.148 203.439 211.243 203.408 211.33H217.743C217.736 211.284 217.732 211.236 217.732 211.187V200.023ZM175.361 187.065V198.299H188.61V187.065H175.361ZM190.334 187.065V198.299H192.372V187.065H190.334ZM210.761 187.065H194.096V198.299H202.327C202.41 198.272 202.499 198.258 202.592 198.258C202.686 198.258 202.775 198.272 202.86 198.299H210.775C210.767 198.253 210.761 198.205 210.761 198.155V187.065ZM168.587 174.175V185.341H183.77V174.175H168.587ZM185.494 174.175V185.341H199.222V174.175H185.494ZM200.946 174.175V185.341H203.253V174.175H200.946ZM216.074 174.175H204.977V185.341H216.074V185.339V174.175Z" fill="#FDA425"/>
<path fill-rule="evenodd" clip-rule="evenodd" d="M224.19 122.845H240.799C269.373 122.845 292.573 149.784 292.573 182.963C292.573 213.577 272.854 239.351 247.356 243.081C245.218 243.395 224.302 243.081 224.302 243.081C195.728 243.081 172.528 216.143 172.528 182.963C172.528 149.827 195.668 122.914 224.19 122.845Z" fill="#FDA425"/>
<path d="M224.301 243.081C252.895 243.081 276.075 216.166 276.075 182.963C276.075 149.761 252.895 122.845 224.301 122.845C195.708 122.845 172.528 149.761 172.528 182.963C172.528 216.166 195.708 243.081 224.301 243.081Z" fill="#FFCD80"/>
<path fill-rule="evenodd" clip-rule="evenodd" d="M224.438 147.225L222.646 147.127L222.685 144.458L225.811 144.628C226.551 144.668 227.14 145.299 227.13 146.035L227.065 150.549C229.8 150.82 232.419 151.402 234.919 152.292C238.114 153.427 241.119 155.066 243.93 157.205C244.249 157.445 244.448 157.809 244.482 158.199C244.512 158.589 244.374 158.967 244.098 159.234L237.985 165.163C237.524 165.608 236.797 165.643 236.262 165.243C233.489 163.172 230.372 161.832 226.912 161.222L226.697 176.263C239.567 179.696 245.681 186.207 245.373 195.436C245.226 200.45 243.296 204.506 239.604 207.589C236.229 210.516 231.758 212.276 226.173 212.826L226.062 220.581C226.051 221.317 225.445 221.88 224.705 221.84L221.636 221.673L221.674 219.007L223.409 219.102L223.518 211.514C223.527 210.838 224.04 210.298 224.713 210.255C230.206 209.892 234.578 208.34 237.826 205.526C240.956 202.912 242.577 199.484 242.702 195.245C242.978 186.942 236.981 181.513 225.074 178.58C224.446 178.423 224 177.848 224.009 177.209L224.261 159.611C224.266 159.243 224.425 158.901 224.697 158.661C224.969 158.425 225.332 158.314 225.7 158.359C229.835 158.844 233.556 160.21 236.86 162.453L241.071 158.371C238.874 156.864 236.557 155.674 234.113 154.808C231.446 153.858 228.637 153.294 225.679 153.108C224.946 153.062 224.364 152.434 224.374 151.701L224.438 147.225ZM226.327 202.033C228.278 201.552 229.71 200.802 230.581 199.722C231.124 199.024 231.526 198.227 231.786 197.333L234.355 198.184C233.997 199.391 233.449 200.469 232.701 201.432C231.272 203.201 228.802 204.436 225.225 204.998C224.831 205.059 224.421 204.94 224.11 204.669C223.802 204.399 223.625 204.007 223.631 203.604L223.766 194.172L226.438 194.318L226.327 202.033ZM212.245 163.5C212.731 162.32 213.357 161.349 214.109 160.583C214.127 160.564 214.149 160.545 214.167 160.526C215.861 159.006 217.859 158.184 220.156 158.061C220.532 158.041 220.909 158.184 221.188 158.451C221.467 158.72 221.623 159.091 221.618 159.467L221.507 167.191L218.835 167.046L218.922 160.956C217.852 161.234 216.888 161.755 216.029 162.519C215.495 163.072 215.062 163.776 214.714 164.622C214.706 164.644 214.695 164.667 214.684 164.689C214.267 165.562 214.066 166.638 214.047 167.902L211.375 167.756C211.399 166.082 211.699 164.666 212.245 163.5Z" fill="#FDA31F"/>
<path fill-rule="evenodd" clip-rule="evenodd" d="M213.337 173.452C212.043 171.88 211.394 169.982 211.425 167.748L214.094 167.893C214.073 169.425 214.488 170.733 215.377 171.809L215.409 171.848C216.104 172.754 217.235 173.5 218.778 174.144L218.877 167.035L221.547 167.18L221.422 176.092C221.416 176.506 221.218 176.886 220.886 177.123C220.557 177.356 220.127 177.421 219.728 177.294C216.645 176.31 214.535 174.994 213.337 173.452Z" fill="#FDA31F"/>
<path fill-rule="evenodd" clip-rule="evenodd" d="M226.515 187.932L226.425 194.32L223.756 194.175L223.868 186.166C223.874 185.775 224.05 185.414 224.351 185.176C224.654 184.938 225.049 184.848 225.434 184.932C229.153 185.742 231.624 187.078 232.931 188.757L232.959 188.798C234.229 190.557 234.855 192.544 234.824 194.764C234.807 196.005 234.64 197.147 234.336 198.187L231.769 197.337C232.013 196.51 232.141 195.604 232.154 194.619C232.177 193.024 231.739 191.596 230.834 190.33C230.012 189.286 228.56 188.517 226.515 187.932Z" fill="#FDA31F"/>
<path fill-rule="evenodd" clip-rule="evenodd" d="M218.62 185.932C206.235 182.501 200.421 176.171 200.831 167.3C201.015 161.949 202.797 157.854 206.095 154.98C209.114 152.35 213.448 150.739 219.131 150.226L219.197 145.587C219.208 144.851 219.814 144.285 220.552 144.325L222.743 144.444L222.705 147.113L221.853 147.067L221.789 151.543C221.779 152.221 221.262 152.764 220.585 152.804C215.008 153.149 210.767 154.523 207.897 157.023C205.103 159.46 203.663 162.963 203.505 167.516C203.136 175.463 208.845 180.708 220.254 183.633C220.876 183.792 221.319 184.364 221.31 184.997L221.046 203.44C221.041 203.816 220.874 204.164 220.595 204.403C220.312 204.641 219.938 204.744 219.563 204.689C216.219 204.194 213.394 203.293 211.091 202.007C209.063 200.984 207.253 199.753 205.658 198.311L200.473 202.338C202.922 204.223 205.643 205.849 208.626 207.217C212.108 208.776 215.775 209.682 219.631 209.943C220.365 209.994 220.943 210.619 220.933 211.349L220.824 218.935L221.734 218.985L221.696 221.65L219.447 221.529C218.709 221.488 218.12 220.86 218.131 220.125L218.24 212.495C214.533 212.112 210.992 211.161 207.606 209.644C203.822 207.91 200.452 205.792 197.482 203.294C197.17 203.032 196.986 202.643 196.984 202.24C196.979 201.838 197.16 201.462 197.472 201.22L204.86 195.483C205.382 195.075 206.148 195.136 206.635 195.628C208.228 197.229 210.101 198.566 212.243 199.644L212.3 199.673C214.006 200.63 216.038 201.334 218.393 201.795L218.62 185.932Z" fill="#FDA31F"/>
<path fill-rule="evenodd" clip-rule="evenodd" d="M221.805 134.746C242.689 134.746 259.462 156.465 259.462 183.042C259.462 209.617 242.689 231.336 221.805 231.336C221.044 231.336 220.425 231.954 220.425 232.715C220.425 233.476 221.044 234.095 221.805 234.095C244.011 234.095 262.22 211.298 262.22 183.042C262.22 154.784 244.011 131.988 221.805 131.988C221.044 131.988 220.425 132.606 220.425 133.367C220.425 134.128 221.044 134.746 221.805 134.746Z" fill="#FDA425"/>
<path fill-rule="evenodd" clip-rule="evenodd" d="M221.799 231.336C200.914 231.336 184.142 209.617 184.142 183.042C184.142 156.465 200.914 134.746 221.799 134.746C222.56 134.746 223.177 134.128 223.177 133.367C223.177 132.606 222.56 131.988 221.799 131.988C199.593 131.988 181.383 154.784 181.383 183.042C181.383 211.298 199.593 234.095 221.799 234.095C222.56 234.095 223.177 233.476 223.177 232.715C223.177 231.954 222.56 231.336 221.799 231.336Z" fill="#FDA425"/>
<path fill-rule="evenodd" clip-rule="evenodd" d="M262.202 238.151H242.447C241.686 238.151 241.068 237.532 241.068 236.771C241.068 236.009 241.686 235.392 242.447 235.392H266.176C266.337 235.392 266.49 235.42 266.633 235.47C265.199 236.444 263.721 237.339 262.202 238.151ZM284.74 214.925C284.24 215.861 283.721 216.781 283.18 217.683H264.209C263.447 217.683 262.83 217.066 262.83 216.304C262.83 215.542 263.447 214.925 264.209 214.925H284.74ZM288.483 206.504C288.145 207.437 287.787 208.356 287.413 209.262H266.176C265.414 209.262 264.797 208.645 264.797 207.883C264.797 207.123 265.414 206.504 266.176 206.504H288.483ZM292.43 178.505C292.489 179.421 292.528 180.34 292.551 181.264H273.607C272.845 181.264 272.228 180.647 272.228 179.885C272.228 179.124 272.845 178.505 273.607 178.505H292.43ZM289.416 162.267C289.702 163.178 289.973 164.098 290.223 165.026H269.585C268.825 165.026 268.206 164.409 268.206 163.647C268.206 162.886 268.825 162.267 269.585 162.267H289.416ZM286.585 154.897C286.997 155.803 287.392 156.722 287.764 157.655H268.842C268.081 157.655 267.462 157.038 267.462 156.276C267.462 155.516 268.081 154.897 268.842 154.897H286.585ZM268.235 131.988C269.425 132.853 270.582 133.772 271.706 134.746H249.878C249.118 134.746 248.499 134.127 248.499 133.367C248.499 132.605 249.118 131.988 249.878 131.988H268.235Z" fill="#FFCD80"/>
<path fill-rule="evenodd" clip-rule="evenodd" d="M184.361 26.2581C183.34 22.5982 180.419 12.1408 179.595 7.08008L189.934 7.1108C189.934 7.1108 195.534 26.5422 197.363 31.9349L187.329 35.7482C186.22 32.8996 185.387 29.9403 184.361 26.2581Z" fill="#82B5B2"/>
<path d="M186.16 27.8577C188.926 27.8577 191.168 25.5114 191.168 22.6171C191.168 19.7228 188.926 17.3765 186.16 17.3765C183.395 17.3765 181.153 19.7228 181.153 22.6171C181.153 25.5114 183.395 27.8577 186.16 27.8577Z" fill="#A8CFCC" fill-opacity="0.63"/>
<path fill-rule="evenodd" clip-rule="evenodd" d="M182.58 29.0552C183.395 26.7819 187.945 14.9907 190.752 11.447L203.826 18.795C203.826 18.795 196.78 37.5186 195.173 42.9098L179.687 38.6965C180.356 35.748 181.304 32.6106 182.58 29.0552Z" fill="#A8CFCC"/>
<path d="M191.651 33.2197C194.417 33.2197 196.659 30.8734 196.659 27.9791C196.659 25.0848 194.417 22.7385 191.651 22.7385C188.886 22.7385 186.644 25.0848 186.644 27.9791C186.644 30.8734 188.886 33.2197 191.651 33.2197Z" fill="#82B5B2"/>
<path d="M223.995 30.043C230.095 30.043 235.039 25.0982 235.039 18.9984C235.039 12.8987 230.095 7.95386 223.995 7.95386C217.895 7.95386 212.95 12.8987 212.95 18.9984C212.95 25.0982 217.895 30.043 223.995 30.043Z" fill="#E86135"/>
<path fill-rule="evenodd" clip-rule="evenodd" d="M216.63 10.7546C218.584 9.01301 221.158 7.95386 223.977 7.95386C230.073 7.95386 235.022 12.9029 235.022 18.9984C235.022 21.0898 234.439 23.0464 233.429 24.7138C225.227 21.0291 226.429 12.1392 226.429 12.1392C221.92 13.6122 218.553 12.1204 216.63 10.7546Z" fill="black"/>
<path fill-rule="evenodd" clip-rule="evenodd" d="M176.659 159.375C176.659 159.375 173.43 153.127 176.659 148.446L170.926 138.373C170.926 138.373 168.14 136.589 164.976 134.561C157.823 129.977 153.719 121.875 154.256 113.397C154.297 112.751 154.371 112.159 154.483 111.641C151.193 108.537 148.476 101.57 149.476 94.9046C149.476 94.9044 149.476 94.9044 149.476 94.9044C150.868 85.6204 158.58 78.5853 167.952 78.0514C183.035 77.1958 208.92 76.6112 224.834 81.1748L221.254 72.2641C221.254 72.2641 195.789 81.3702 189.339 60.4588C174.719 66.362 158.44 70.6772 142.343 73.0122C135.614 73.9915 128.974 70.7289 125.638 64.8028C125.631 64.807 125.631 64.807 125.631 64.807C122.809 59.7945 123.711 53.5108 127.828 49.4936C131.967 45.4996 139.028 40.333 151.085 34.3888C151.085 34.3888 163.163 28.0022 170.235 24.2624C173.395 22.5917 177.142 22.4461 180.421 23.867C187.389 26.8846 198.899 31.8714 198.899 31.8714L200.244 28.477C208.237 29.8081 216.09 32.2295 223.79 35.2261C231.968 38.4187 238.304 45.0777 241.085 53.4024C247.934 73.9025 260.865 113.263 262.561 123.123H267.41C270.134 123.123 272.494 125.013 273.089 127.672C273.553 129.749 274.001 131.754 274.001 131.754C274.001 131.754 277.089 135.208 277.993 138.373C278.36 139.663 276.303 141.167 274.001 138.751C273.32 138.036 266.706 132.817 263.736 132.491C261.463 132.241 259.453 131.98 257.579 131.751C251.825 131.046 246.718 127.725 243.737 122.751C241.744 119.427 239.911 116.368 239.911 116.368C239.911 116.368 233.697 126.334 216.64 124.535L219.29 158.984C219.29 158.984 215.887 158.179 214.749 152.617C214.749 152.617 195.527 150.056 184.578 145.42C184.578 145.42 180.259 149.708 176.659 159.375Z" fill="url(#paint2_linear)"/>
<path fill-rule="evenodd" clip-rule="evenodd" d="M262.475 122.63C262.507 122.802 262.537 122.966 262.564 123.123H264.859C265.969 123.902 267.657 125.126 269.487 126.585L270.075 125.923C270.328 125.638 270.764 125.612 271.049 125.866C271.333 126.118 271.359 126.554 271.106 126.838L270.559 127.454C271.597 128.311 272.652 129.228 273.651 130.169L274.004 131.754L262.768 123.357C262.521 123.195 262.413 122.9 262.475 122.63Z" fill="#D1343D"/>
<path fill-rule="evenodd" clip-rule="evenodd" d="M196.909 149.257L206.459 122.143C206.617 121.693 207.111 121.457 207.559 121.616C208.007 121.774 208.243 122.266 208.086 122.716L198.597 149.654C198.036 149.526 197.474 149.393 196.909 149.257ZM170.938 138.373C170.938 138.373 174.635 140.361 177.816 142.005C181.847 144.093 186.069 146.045 184.59 145.419C184.59 145.419 184.178 145.83 183.502 146.68C179.876 145.055 175.702 142.866 172.502 141.121L170.938 138.373ZM153.179 110.151C155.946 96.8778 166.291 89.3361 178.326 85.1413C195.336 79.2116 215.704 80.0152 222.074 80.4533C223.011 80.6737 224.371 80.9654 225.247 81.2157C225.297 81.3397 225.681 81.5776 225.668 81.7192C225.618 82.1925 226.275 82.539 225.8 82.4902C225.8 82.4902 199.348 80.8188 178.893 86.7694C166.193 90.4636 157.414 99.6669 154.495 111.64C154.043 111.213 153.602 110.713 153.179 110.151Z" fill="#D1343D"/>
<path fill-rule="evenodd" clip-rule="evenodd" d="M216.786 126.244C213.608 125.756 209.577 124.433 205.325 122.704C192.867 117.642 178.444 109.17 178.444 109.17C178.034 108.929 177.898 108.4 178.137 107.99C178.379 107.58 178.908 107.442 179.318 107.683C179.318 107.683 193.618 116.087 205.974 121.108C210.432 122.92 217.019 124.578 216.632 124.539L216.786 126.244Z" fill="#8A2208"/>
<path fill-rule="evenodd" clip-rule="evenodd" d="M223.851 78.7253L221.254 72.264C221.254 72.264 195.789 81.3701 189.339 60.4588C174.719 66.3619 158.44 70.6772 142.343 73.0122C135.614 73.9915 128.974 70.7289 125.638 64.8028C125.631 64.8069 125.631 64.8069 125.631 64.8069C122.809 59.7945 123.711 53.5108 127.828 49.4936C131.967 45.4996 139.028 40.333 151.085 34.3888C151.085 34.3888 163.163 28.0022 170.235 24.2624C173.395 22.5917 177.142 22.4461 180.421 23.867C187.389 26.8846 198.899 31.8714 198.899 31.8714L200.244 28.477C208.237 29.8081 216.09 32.2295 223.791 35.2261C231.968 38.4187 238.304 45.0777 241.085 53.4024C245.199 65.7147 251.506 84.8305 256.255 100.271L236.406 106.324C232.101 97.2952 227.735 88.3398 223.92 78.7367L223.851 78.7253Z" fill="#D1343D"/>
<path fill-rule="evenodd" clip-rule="evenodd" d="M217.56 73.2736C216.929 70.1211 216.781 66.8125 216.84 63.4373C216.841 63.2516 216.976 63.0939 217.159 63.0597C217.341 63.0254 217.522 63.124 217.593 63.2958C219.276 67.3977 223.397 77.4367 223.397 77.4367H223.333L221.253 72.2615C221.253 72.2615 219.824 72.7722 217.56 73.2736ZM162.991 52.8759L141.803 64.8116C141.387 65.0451 141.241 65.5713 141.474 65.9858C141.708 66.4003 142.234 66.5473 142.649 66.3137L163.838 54.3781C164.253 54.1447 164.4 53.6185 164.165 53.204C163.932 52.7893 163.407 52.6424 162.991 52.8759ZM184.876 62.1895C185.677 56.3907 187.584 52.3245 188.912 50.0814C188.996 49.9576 189.16 49.915 189.296 49.9814C189.431 50.0476 189.498 50.2027 189.452 50.3464C188.081 55.2738 189.258 60.1428 189.334 60.4418L189.338 60.4563C187.867 61.0502 186.379 61.628 184.876 62.1895Z" fill="#8A2208"/>
<path fill-rule="evenodd" clip-rule="evenodd" d="M152.001 33.8993L170.225 24.2624C173.385 22.5917 177.132 22.4461 180.411 23.867L198.387 31.6543C198.508 31.7347 198.618 31.8071 198.716 31.8714C201.713 33.835 199.346 35.7764 198.508 35.4993C200.554 36.4719 200.485 38.0881 200.003 38.7885C199.208 39.9438 196.363 39.5223 196.363 39.5223C197.154 39.8045 197.88 41.3489 197.266 42.4944C196.28 44.336 193.582 43.2172 193.582 43.2172C194.071 45.7853 191.416 45.7937 188.177 45.1077C185.668 44.5765 184.518 44.0144 182.383 43.482C178.933 52.6817 168.632 51.6191 168.632 51.6191L161.844 55.4674L152.001 33.8993Z" fill="url(#paint3_linear)"/>
<path fill-rule="evenodd" clip-rule="evenodd" d="M193.589 43.2703L182.053 38.7921C181.698 38.6544 181.522 38.2544 181.66 37.8995C181.798 37.5447 182.198 37.3685 182.553 37.5063L196.829 43.0484C195.653 44.0767 193.579 43.2168 193.579 43.2168C193.582 43.2349 193.586 43.2527 193.589 43.2703ZM196.534 39.6053L183.418 34.5135C183.063 34.3757 182.887 33.9759 183.025 33.6211C183.163 33.2662 183.563 33.09 183.918 33.2276L198.951 39.0639C199.089 39.1173 199.2 39.2102 199.276 39.3249C198.138 39.7854 196.36 39.522 196.36 39.522C196.419 39.543 196.477 39.5709 196.534 39.6053ZM198.644 35.5242L184.991 30.2236C184.636 30.0859 184.458 29.6859 184.596 29.331C184.734 28.9762 185.134 28.8 185.489 28.9377L200.02 34.579C199.719 35.1735 199.069 35.5494 198.644 35.5242Z" fill="#D1343D"/>
<path fill-rule="evenodd" clip-rule="evenodd" d="M157.33 233.995C156.354 233.338 155.709 232.222 155.709 230.959V223.646C155.709 221.629 157.347 219.991 159.366 219.991H214.885C216.903 219.991 218.541 221.629 218.541 223.646V230.959C218.541 232.222 217.898 233.338 216.92 233.995C217.898 234.652 218.541 235.767 218.541 237.031V244.343C218.541 246.362 216.903 248 214.885 248H159.366C157.347 248 155.709 246.362 155.709 244.343V237.031C155.709 235.767 156.354 234.652 157.33 233.995Z" fill="#FFDBA3"/>
<path fill-rule="evenodd" clip-rule="evenodd" d="M201.944 232.514H218.191C217.908 233.115 217.465 233.628 216.917 233.995C217.029 234.071 217.136 234.152 217.239 234.238H211.975V248H210.251V234.238H195.839V248H194.115V234.238H191.915V248H190.191V234.238H167.928V248H166.204V234.238H157.006C157.108 234.152 157.215 234.071 157.327 233.995C156.78 233.628 156.337 233.115 156.054 232.514H176.235V219.991H177.959V232.514H180.16V219.991H181.884V232.514H200.22V219.991H201.944V232.514Z" fill="#FDA425"/>
<defs>
<linearGradient id="paint0_linear" x1="57.4637" y1="175.456" x2="57.1138" y2="274.006" gradientUnits="userSpaceOnUse">
<stop stop-color="#A8CFCC"/>
<stop offset="1" stop-color="#59A09B"/>
</linearGradient>
<linearGradient id="paint1_linear" x1="68.7523" y1="98.2268" x2="73.3061" y2="185.717" gradientUnits="userSpaceOnUse">
<stop stop-color="#82B5B2"/>
<stop offset="0.45" stop-color="#A7C6C1"/>
<stop offset="1" stop-color="#FFF0E6"/>
</linearGradient>
<linearGradient id="paint2_linear" x1="230.253" y1="116.137" x2="132.995" y2="29.9552" gradientUnits="userSpaceOnUse">
<stop stop-color="#E86135"/>
<stop offset="0.48" stop-color="#EE734F"/>
<stop offset="1" stop-color="#FFA396"/>
</linearGradient>
<linearGradient id="paint3_linear" x1="176.149" y1="42.0406" x2="183.126" y2="-3.77127" gradientUnits="userSpaceOnUse">
<stop stop-color="#E86135"/>
<stop offset="1" stop-color="#FFA396"/>
</linearGradient>
</defs>
</svg>
