<svg width="451" height="256" viewBox="0 0 451 256" fill="none" xmlns="http://www.w3.org/2000/svg">
<path d="M81.9766 24H83.002L85.2114 18.1284H93.1338L95.3433 24H96.3809L89.667 6.38525H88.6904L81.9766 24ZM89.1299 7.70361H89.2275L92.8164 17.2617H85.541L89.1299 7.70361ZM111.197 25.7334H112.601V23.7192C116.068 23.4873 118.546 21.6929 118.546 18.6533V18.6289C118.546 15.9556 116.8 14.6128 113.468 13.856L112.601 13.6729V9.4248C113.968 9.63232 114.884 10.4136 115.055 11.7197L115.067 11.7441L118.302 11.7319L118.314 11.7197C118.192 8.85107 115.983 6.92236 112.601 6.66602V4.61523H111.197V6.66602C107.84 6.86133 105.448 8.69238 105.448 11.5977V11.6221C105.448 14.2466 107.193 15.6748 110.379 16.395L111.197 16.5903V20.9727C109.525 20.814 108.658 20.0083 108.451 18.7632V18.751H105.192L105.179 18.7632C105.277 21.8027 107.767 23.5361 111.197 23.7314V25.7334ZM108.854 11.3535V11.3291C108.854 10.3403 109.659 9.5835 111.197 9.4126V13.3433C109.549 12.9038 108.854 12.2935 108.854 11.3535ZM115.14 18.9951V19.0195C115.14 20.1182 114.298 20.8262 112.601 20.9849V16.9077C114.493 17.3838 115.14 17.9331 115.14 18.9951ZM130.013 24H133.529V20.7651H135.824V17.811H133.529V6.38525H128.353C126.009 9.99854 123.617 13.9048 121.383 17.8721V20.7651H130.013V24ZM124.703 17.9087V17.7134C126.29 14.8691 128.182 11.8052 129.891 9.18066H130.086V17.9087H124.703ZM150.591 24.2075C153.387 24.2075 155.291 22.7427 155.779 20.5088L155.792 20.4478L154.852 20.46L154.827 20.4966C154.376 22.2422 152.764 23.3408 150.591 23.3408C147.649 23.3408 145.757 21.0093 145.757 17.396V17.3716C145.757 13.8071 147.637 11.5122 150.591 11.5122C152.752 11.5122 154.388 12.7329 154.852 14.5151L154.864 14.5396L155.804 14.5273L155.816 14.5151C155.376 12.269 153.35 10.6577 150.591 10.6577C147.039 10.6577 144.793 13.27 144.793 17.3716V17.396C144.793 21.5586 147.039 24.2075 150.591 24.2075ZM163.914 24.2075C166.099 24.2075 167.771 23.0967 168.406 21.2778H168.492V24H169.444V10.853H168.492V18.7021C168.492 21.4487 166.722 23.3408 164.085 23.3408C161.619 23.3408 160.13 21.7539 160.13 19.1904V10.853H159.178V19.4468C159.178 22.3398 161.009 24.2075 163.914 24.2075ZM173.648 28.3091H174.588V20.7773H174.685C175.418 22.877 177.285 24.2075 179.507 24.2075C182.827 24.2075 185.134 21.4365 185.134 17.4326V17.4082C185.134 13.4165 182.839 10.6577 179.507 10.6577C177.236 10.6577 175.405 12.0249 174.685 14.1733H174.588V10.853H173.648V28.3091ZM179.373 23.3408C176.541 23.3408 174.575 20.9482 174.575 17.4448V17.4204C174.575 13.917 176.528 11.5122 179.373 11.5122C182.229 11.5122 184.17 13.917 184.17 17.4204V17.4448C184.17 20.9482 182.229 23.3408 179.373 23.3408ZM199.963 24.2075C203.54 24.2075 205.822 21.583 205.822 17.4448V17.4204C205.822 13.27 203.54 10.6577 199.963 10.6577C196.386 10.6577 194.104 13.27 194.104 17.4204V17.4448C194.104 21.583 196.386 24.2075 199.963 24.2075ZM199.963 23.3408C196.96 23.3408 195.068 21.0459 195.068 17.4448V17.4204C195.068 13.8071 196.96 11.5122 199.963 11.5122C202.954 11.5122 204.858 13.8193 204.858 17.4204V17.4448C204.858 21.0337 202.954 23.3408 199.963 23.3408ZM210.234 24H211.174V11.6831H214.372V10.853H211.174V8.8999C211.174 7.26416 211.992 6.32422 213.518 6.32422C213.896 6.32422 214.262 6.34863 214.506 6.38525V5.57959C214.152 5.53076 213.811 5.50635 213.383 5.50635C211.357 5.50635 210.234 6.67822 210.234 8.8877V10.853H208.049V11.6831H210.234V24ZM228.908 24.2075C231.703 24.2075 233.608 22.7427 234.096 20.5088L234.108 20.4478L233.168 20.46L233.144 20.4966C232.692 22.2422 231.081 23.3408 228.908 23.3408C225.966 23.3408 224.074 21.0093 224.074 17.396V17.3716C224.074 13.8071 225.954 11.5122 228.908 11.5122C231.068 11.5122 232.704 12.7329 233.168 14.5151L233.18 14.5396L234.12 14.5273L234.132 14.5151C233.693 12.269 231.667 10.6577 228.908 10.6577C225.356 10.6577 223.11 13.27 223.11 17.3716V17.396C223.11 21.5586 225.356 24.2075 228.908 24.2075ZM242.78 24.2075C246.356 24.2075 248.639 21.583 248.639 17.4448V17.4204C248.639 13.27 246.356 10.6577 242.78 10.6577C239.203 10.6577 236.92 13.27 236.92 17.4204V17.4448C236.92 21.583 239.203 24.2075 242.78 24.2075ZM242.78 23.3408C239.777 23.3408 237.885 21.0459 237.885 17.4448V17.4204C237.885 13.8071 239.777 11.5122 242.78 11.5122C245.77 11.5122 247.675 13.8193 247.675 17.4204V17.4448C247.675 21.0337 245.77 23.3408 242.78 23.3408ZM253.051 24H253.99V11.6831H257.189V10.853H253.99V8.8999C253.99 7.26416 254.808 6.32422 256.334 6.32422C256.713 6.32422 257.079 6.34863 257.323 6.38525V5.57959C256.969 5.53076 256.627 5.50635 256.2 5.50635C254.174 5.50635 253.051 6.67822 253.051 8.8877V10.853H250.865V11.6831H253.051V24ZM261.295 24H262.235V11.6831H265.433V10.853H262.235V8.8999C262.235 7.26416 263.053 6.32422 264.579 6.32422C264.957 6.32422 265.323 6.34863 265.567 6.38525V5.57959C265.213 5.53076 264.872 5.50635 264.444 5.50635C262.418 5.50635 261.295 6.67822 261.295 8.8877V10.853H259.11V11.6831H261.295V24ZM273.165 24.2075C275.826 24.2075 277.779 22.8403 278.39 21.0581L278.426 20.9604H277.462L277.425 21.0337C276.888 22.3521 275.277 23.3408 273.177 23.3408C270.223 23.3408 268.294 21.1436 268.258 17.6035H278.682V17.1274C278.682 13.2822 276.51 10.6577 273.043 10.6577C269.576 10.6577 267.293 13.2822 267.293 17.4448V17.4692C267.293 21.583 269.564 24.2075 273.165 24.2075ZM273.043 11.5122C275.741 11.5122 277.596 13.4653 277.743 16.7856H268.258C268.404 13.502 270.333 11.5122 273.043 11.5122ZM287.415 24.2075C290.076 24.2075 292.029 22.8403 292.64 21.0581L292.676 20.9604H291.712L291.675 21.0337C291.138 22.3521 289.527 23.3408 287.427 23.3408C284.473 23.3408 282.545 21.1436 282.508 17.6035H292.933V17.1274C292.933 13.2822 290.76 10.6577 287.293 10.6577C283.826 10.6577 281.544 13.2822 281.544 17.4448V17.4692C281.544 21.583 283.814 24.2075 287.415 24.2075ZM287.293 11.5122C289.991 11.5122 291.846 13.4653 291.993 16.7856H282.508C282.654 13.502 284.583 11.5122 287.293 11.5122ZM303.233 7.88672C303.684 7.88672 304.063 7.52051 304.063 7.06885C304.063 6.61719 303.684 6.23877 303.233 6.23877C302.781 6.23877 302.415 6.61719 302.415 7.06885C302.415 7.52051 302.781 7.88672 303.233 7.88672ZM302.757 24H303.709V10.853H302.757V24ZM312.295 24.2075C314.981 24.2075 317.105 22.6694 317.105 20.5332V20.5088C317.105 18.5923 315.823 17.6279 313.198 17.0176L311.66 16.6514C309.646 16.1875 308.657 15.4917 308.657 14.1855V14.1611C308.657 12.6353 310.305 11.4878 312.234 11.4878C314.187 11.4878 315.664 12.4521 315.957 13.917H316.885C316.567 11.9395 314.724 10.6577 312.234 10.6577C309.768 10.6577 307.693 12.147 307.693 14.1855V14.21C307.693 15.98 308.889 16.9199 311.294 17.4814L312.832 17.8354C315.151 18.3726 316.152 19.1172 316.152 20.5698V20.5942C316.152 22.1812 314.431 23.3774 312.319 23.3774C310.11 23.3774 308.572 22.3765 308.218 20.7773H307.241C307.546 22.9014 309.5 24.2075 312.295 24.2075ZM329.126 24H330.249L333.886 12.1104H333.972L337.622 24H338.733L342.553 10.853H341.601L338.208 22.877H338.122L334.472 10.853H333.398L329.748 22.877H329.663L326.306 10.853H325.354L329.126 24ZM350.151 24.2075C353.728 24.2075 356.01 21.583 356.01 17.4448V17.4204C356.01 13.27 353.728 10.6577 350.151 10.6577C346.574 10.6577 344.292 13.27 344.292 17.4204V17.4448C344.292 21.583 346.574 24.2075 350.151 24.2075ZM350.151 23.3408C347.148 23.3408 345.256 21.0459 345.256 17.4448V17.4204C345.256 13.8071 347.148 11.5122 350.151 11.5122C353.142 11.5122 355.046 13.8193 355.046 17.4204V17.4448C355.046 21.0337 353.142 23.3408 350.151 23.3408ZM359.531 24H360.47V15.7358C360.47 13.3433 362.07 11.5488 364.157 11.5488C364.719 11.5488 365.182 11.6221 365.683 11.7808V10.8408C365.231 10.7065 364.804 10.6577 364.218 10.6577C362.448 10.6577 361.105 11.6465 360.568 13.3066H360.47V10.853H359.531V24ZM372.816 24.0854C373.195 24.0854 373.5 24.0488 373.83 24V23.1699C373.561 23.1943 373.268 23.2188 372.914 23.2188C371.278 23.2188 370.644 22.4863 370.644 20.7773V11.6831H373.83V10.853H370.644V7.43506H369.679V10.853H367.519V11.6831H369.679V20.9238C369.679 23.1455 370.583 24.0854 372.816 24.0854ZM377.387 24H378.327V16.1631C378.327 13.4531 380.219 11.5122 382.843 11.5122C385.333 11.5122 386.701 12.9893 386.701 15.6626V24H387.653V15.4062C387.653 12.4277 385.919 10.6577 383.014 10.6577C380.841 10.6577 379.181 11.7563 378.424 13.6118H378.327V5.61621H377.387V24ZM393.09 13.3188C393.59 13.3188 393.993 12.9282 393.993 12.4155C393.993 11.915 393.59 11.5122 393.09 11.5122C392.577 11.5122 392.186 11.915 392.186 12.4155C392.186 12.9282 392.577 13.3188 393.09 13.3188ZM393.09 24.0732C393.59 24.0732 393.993 23.6826 393.993 23.1821C393.993 22.6694 393.59 22.2788 393.09 22.2788C392.577 22.2788 392.186 22.6694 392.186 23.1821C392.186 23.6826 392.577 24.0732 393.09 24.0732Z" fill="black"/>
<g filter="url(#filter0_d)">
<path d="M47.1387 109.879C56.001 109.879 61.6406 105.606 61.6406 98.917V98.8682C61.6406 94.2051 58.2471 91.2754 52.9736 90.7383V90.5674C56.9531 89.7617 60.249 86.9541 60.249 82.5352V82.4863C60.249 76.7246 55.1221 72.8916 47.0898 72.8916C39.2529 72.8916 34.0771 77.1396 33.6133 83.7314L33.5889 84.0732H41.7188L41.7432 83.8291C41.9873 81.2412 43.9893 79.5566 47.0898 79.5566C50.1172 79.5566 51.9238 81.168 51.9238 83.707V83.7559C51.9238 86.2461 49.8242 87.8818 46.3818 87.8818H42.6221V93.9609H46.4307C50.3369 93.9609 52.5342 95.5234 52.5342 98.3555V98.4043C52.5342 101.017 50.459 102.848 47.1387 102.848C43.7939 102.848 41.6455 101.114 41.3525 98.7705L41.3037 98.502H32.7588L32.7832 98.8193C33.2959 105.484 38.8135 109.879 47.1387 109.879ZM81.555 109.879C90.4173 109.879 96.0569 105.606 96.0569 98.917V98.8682C96.0569 94.2051 92.6634 91.2754 87.3899 90.7383V90.5674C91.3694 89.7617 94.6653 86.9541 94.6653 82.5352V82.4863C94.6653 76.7246 89.5384 72.8916 81.5062 72.8916C73.6692 72.8916 68.4935 77.1396 68.0296 83.7314L68.0052 84.0732H76.1351L76.1595 83.8291C76.4036 81.2412 78.4056 79.5566 81.5062 79.5566C84.5335 79.5566 86.3401 81.168 86.3401 83.707V83.7559C86.3401 86.2461 84.2405 87.8818 80.7981 87.8818H77.0384V93.9609H80.847C84.7532 93.9609 86.9505 95.5234 86.9505 98.3555V98.4043C86.9505 101.017 84.8753 102.848 81.555 102.848C78.2103 102.848 76.0618 101.114 75.7689 98.7705L75.72 98.502H67.1751L67.1995 98.8193C67.7122 105.484 73.2298 109.879 81.555 109.879Z" fill="#8908B6"/>
</g>
<path d="M23.707 139H25.2656V128.776H25.3677L29.5981 139H31.0083L35.2388 128.776H35.3408V139H36.8994V125.613H34.9604L30.3774 136.783H30.229L25.646 125.613H23.707V139ZM40.1595 139H41.8294V125.613H40.1595V139ZM45.0895 139H46.7408V128.619H46.8893L54.1534 139H55.777V125.613H54.1256V136.031H53.9772L46.713 125.613H45.0895V139ZM64.3437 139.315C67.665 139.315 69.6503 137.312 69.6503 134.398V125.613H67.9804V134.287C67.9804 136.347 66.663 137.775 64.3437 137.775C62.0243 137.775 60.6884 136.347 60.6884 134.287V125.613H59.0185V134.398C59.0185 137.312 61.0224 139.315 64.3437 139.315ZM76.3708 139H78.0407V127.116H82.3547V125.613H72.0569V127.116H76.3708V139ZM84.7798 139H93.0737V137.497H86.4497V132.896H92.7305V131.411H86.4497V127.116H93.0737V125.613H84.7798V139ZM100.332 139.315C103.32 139.315 105.277 137.757 105.277 135.252V135.243C105.277 133.313 104.173 132.19 101.381 131.569L99.8963 131.235C98.0779 130.836 97.345 130.112 97.345 129.045V129.036C97.345 127.635 98.6346 126.847 100.305 126.837C102.049 126.828 103.162 127.7 103.347 128.878L103.366 128.999H105.036L105.027 128.869C104.888 126.875 103.023 125.297 100.351 125.297C97.5863 125.297 95.6473 126.865 95.638 129.083V129.092C95.638 131.031 96.7977 132.265 99.4788 132.858L100.963 133.183C102.8 133.591 103.57 134.352 103.57 135.465V135.475C103.57 136.838 102.243 137.775 100.425 137.775C98.4954 137.775 97.1038 136.931 96.9832 135.595L96.9739 135.493H95.304L95.3133 135.595C95.5081 137.775 97.4007 139.315 100.332 139.315Z" fill="black"/>
<path d="M19.7759 251.733H21.1797V249.719C24.6465 249.487 27.1245 247.693 27.1245 244.653V244.629C27.1245 241.956 25.3789 240.613 22.0464 239.856L21.1797 239.673V235.425C22.5469 235.632 23.4624 236.414 23.6333 237.72L23.6455 237.744L26.8804 237.732L26.8926 237.72C26.7705 234.851 24.561 232.922 21.1797 232.666V230.615H19.7759V232.666C16.4189 232.861 14.0264 234.692 14.0264 237.598V237.622C14.0264 240.247 15.772 241.675 18.958 242.395L19.7759 242.59V246.973C18.1035 246.814 17.2368 246.008 17.0293 244.763V244.751H13.77L13.7578 244.763C13.8555 247.803 16.3457 249.536 19.7759 249.731V251.733ZM17.4321 237.354V237.329C17.4321 236.34 18.2378 235.583 19.7759 235.413V239.343C18.1279 238.904 17.4321 238.293 17.4321 237.354ZM23.7188 244.995V245.02C23.7188 246.118 22.8765 246.826 21.1797 246.985V242.908C23.0718 243.384 23.7188 243.933 23.7188 244.995ZM31.2064 250H35.0638L42.4246 235.352V232.373H29.827V235.315H38.7137V235.522L31.2064 250ZM45.1393 250.305C46.3966 250.305 47.2877 249.39 47.2877 248.181C47.2877 246.973 46.3966 246.069 45.1393 246.069C43.8941 246.069 42.9908 246.973 42.9908 248.181C42.9908 249.39 43.8941 250.305 45.1393 250.305ZM50.8691 250H63.5766V247.034H55.8129V246.753L59.0722 243.713C62.2826 240.747 63.3202 239.087 63.3202 237.085V237.048C63.3202 234.009 60.7812 231.934 57.1557 231.934C53.2983 231.934 50.6615 234.253 50.6615 237.634L50.6737 237.683H54.0795V237.622C54.0795 235.95 55.2636 234.802 56.9848 234.802C58.6693 234.802 59.6947 235.852 59.6947 237.354V237.39C59.6947 238.623 59.0233 239.514 56.5453 241.919L50.8691 247.522V250ZM73.4812 250.452C77.4362 250.452 80.1706 247.925 80.1706 244.214V244.189C80.1706 240.833 77.8025 238.416 74.5188 238.416C72.8342 238.416 71.467 239.148 70.759 240.332H70.5393L70.9787 235.315H79.1208V232.385H68.1101L67.2922 242.81H70.4538C70.6491 242.432 70.9421 242.102 71.2717 241.833C71.8576 241.333 72.6145 241.077 73.5056 241.077C75.3733 241.077 76.7038 242.383 76.7038 244.263V244.287C76.7038 246.179 75.3855 247.51 73.4934 247.51C71.8332 247.51 70.6247 246.472 70.3684 245.178L70.344 245.093H66.9992L67.0114 245.264C67.219 248.206 69.7092 250.452 73.4812 250.452ZM89.8311 231.421H86.5474L81.4693 254.456H84.753L89.8311 231.421ZM91.7156 250H95.2801V242.224C95.2801 240.405 96.2811 239.221 97.929 239.221C99.6136 239.221 100.395 240.222 100.395 242.114V250H103.959V241.309C103.959 238.098 102.348 236.267 99.3572 236.267C97.4407 236.267 96.1102 237.183 95.4998 238.635H95.2801V231.421H91.7156V250ZM107.26 250H110.824V242.48C110.824 240.576 112.106 239.417 114.132 239.417C114.682 239.417 115.231 239.502 115.768 239.624V236.511C115.414 236.414 114.914 236.34 114.438 236.34C112.692 236.34 111.471 237.195 111.044 238.647H110.824V236.56H107.26V250Z" fill="#50A55B"/>
<path d="M8.95705 179H10.1909V170.038H12.5288V169.008H10.1909V167.756C10.1909 166.596 10.7197 165.965 11.8701 165.965C12.1577 165.965 12.4361 165.984 12.6216 166.012V165.019C12.3155 164.963 12.0093 164.936 11.6475 164.936C9.90334 164.936 8.95705 165.873 8.95705 167.728V169.008H7.29641V170.038H8.95705V179ZM18.368 179.167C21.1605 179.167 22.9139 177.191 22.9139 174.009V173.99C22.9139 170.808 21.1605 168.841 18.368 168.841C15.5755 168.841 13.8314 170.808 13.8314 173.99V174.009C13.8314 177.191 15.5755 179.167 18.368 179.167ZM18.368 178.072C16.3084 178.072 15.0838 176.532 15.0838 174.009V173.99C15.0838 171.467 16.3084 169.936 18.368 169.936C20.4276 169.936 21.6522 171.467 21.6522 173.99V174.009C21.6522 176.532 20.4276 178.072 18.368 178.072ZM25.3854 179H26.61V172.766C26.61 171.151 27.7604 170.01 29.319 170.01C29.6993 170.01 30.0241 170.047 30.3859 170.14V168.934C30.1447 168.878 29.8107 168.841 29.4489 168.841C28.0944 168.841 27.1202 169.509 26.7306 170.65H26.61V169.008H25.3854V179ZM40.0417 179.167C41.5168 179.167 42.7136 178.471 43.3074 177.284H43.4187V179H44.6526V172.172C44.6526 170.066 43.2888 168.841 40.9509 168.841C38.8821 168.841 37.3699 169.862 37.1101 171.458L37.1008 171.495H38.3347L38.344 171.476C38.6038 170.483 39.5593 169.936 40.9138 169.936C42.5281 169.936 43.4187 170.715 43.4187 172.181V173.118L40.3015 173.322C37.9914 173.48 36.7019 174.491 36.7019 176.226V176.245C36.7019 178.026 38.1121 179.167 40.0417 179.167ZM37.9543 176.226V176.208C37.9543 175.076 38.7707 174.436 40.4685 174.324L43.4187 174.12V175.28C43.4187 176.866 42.0642 178.091 40.2737 178.091C38.9285 178.091 37.9543 177.367 37.9543 176.226ZM52.5457 179H53.7704V172.868C53.7704 171.235 54.8836 169.936 56.3309 169.936C57.7132 169.936 58.6224 170.873 58.6224 172.311V179H59.847V172.664C59.847 171.114 60.8768 169.936 62.4168 169.936C63.9198 169.936 64.7083 170.808 64.7083 172.441V179H65.9422V172.163C65.9422 170.047 64.7826 168.841 62.7787 168.841C61.3407 168.841 60.1717 169.611 59.6615 170.808H59.5409C59.1141 169.611 58.1122 168.841 56.7113 168.841C55.3475 168.841 54.3177 169.574 53.891 170.771H53.7704V169.008H52.5457V179ZM69.5085 166.93C70.0002 166.93 70.4084 166.531 70.4084 166.03C70.4084 165.529 70.0002 165.13 69.5085 165.13C69.0075 165.13 68.5993 165.529 68.5993 166.03C68.5993 166.531 69.0075 166.93 69.5085 166.93ZM68.8869 179H70.1115V169.008H68.8869V179ZM73.1489 179H74.3735V173.062C74.3735 171.179 75.5703 169.936 77.333 169.936C79.0678 169.936 79.9306 170.91 79.9306 172.812V179H81.1552V172.506C81.1552 170.177 79.8842 168.841 77.6577 168.841C76.0991 168.841 75.0229 169.556 74.4941 170.762H74.3735V169.008H73.1489V179ZM84.7307 166.93C85.2224 166.93 85.6306 166.531 85.6306 166.03C85.6306 165.529 85.2224 165.13 84.7307 165.13C84.2297 165.13 83.8215 165.529 83.8215 166.03C83.8215 166.531 84.2297 166.93 84.7307 166.93ZM84.1091 179H85.3337V169.008H84.1091V179ZM88.3712 179H89.5958V172.868C89.5958 171.235 90.709 169.936 92.1563 169.936C93.5386 169.936 94.4478 170.873 94.4478 172.311V179H95.6724V172.664C95.6724 171.114 96.7022 169.936 98.2422 169.936C99.7452 169.936 100.534 170.808 100.534 172.441V179H101.768V172.163C101.768 170.047 100.608 168.841 98.6041 168.841C97.1661 168.841 95.9971 169.611 95.4869 170.808H95.3663C94.9395 169.611 93.9376 168.841 92.5367 168.841C91.1729 168.841 90.1431 169.574 89.7164 170.771H89.5958V169.008H88.3712V179ZM108.08 179.167C109.629 179.167 110.752 178.462 111.244 177.256H111.355V179H112.579V169.008H111.355V174.946C111.355 176.838 110.242 178.072 108.377 178.072C106.661 178.072 105.798 177.061 105.798 175.196V169.008H104.573V175.502C104.573 177.794 105.835 179.167 108.08 179.167ZM115.561 179H116.786V172.868C116.786 171.235 117.899 169.936 119.346 169.936C120.729 169.936 121.638 170.873 121.638 172.311V179H122.862V172.664C122.862 171.114 123.892 169.936 125.432 169.936C126.935 169.936 127.724 170.808 127.724 172.441V179H128.958V172.163C128.958 170.047 127.798 168.841 125.794 168.841C124.356 168.841 123.187 169.611 122.677 170.808H122.556C122.13 169.611 121.128 168.841 119.727 168.841C118.363 168.841 117.333 169.574 116.906 170.771H116.786V169.008H115.561V179ZM16.5376 202H17.8179L20.2763 193.706H20.397L22.8554 202H24.145L26.9931 192.008H25.7685L23.5327 200.488H23.4214L20.9536 192.008H19.7383L17.2705 200.488H17.1592L14.9419 192.008H13.708L16.5376 202ZM31.4685 202.167C32.9436 202.167 34.1404 201.471 34.7342 200.284H34.8455V202H36.0794V195.172C36.0794 193.066 34.7156 191.841 32.3777 191.841C30.3089 191.841 28.7967 192.862 28.5369 194.458L28.5276 194.495H29.7615L29.7708 194.476C30.0306 193.483 30.9861 192.936 32.3406 192.936C33.9549 192.936 34.8455 193.715 34.8455 195.181V196.118L31.7283 196.322C29.4182 196.48 28.1287 197.491 28.1287 199.226V199.245C28.1287 201.026 29.5389 202.167 31.4685 202.167ZM29.3811 199.226V199.208C29.3811 198.076 30.1975 197.436 31.8953 197.324L34.8455 197.12V198.28C34.8455 199.866 33.491 201.091 31.7005 201.091C30.3553 201.091 29.3811 200.367 29.3811 199.226ZM43.0597 205.488C45.6851 205.488 47.4015 204.06 47.4015 201.879V192.008H46.1676V194.031H46.0841C45.5089 192.695 44.275 191.841 42.7349 191.841C40.1558 191.841 38.5045 193.882 38.5045 196.74V196.758C38.5045 199.625 40.1466 201.638 42.7164 201.638C44.2472 201.638 45.4718 200.877 46.0655 199.56H46.1861V201.796C46.1861 203.41 44.9893 204.394 43.0597 204.394C41.5382 204.394 40.4991 203.791 40.2765 202.918L40.2672 202.909H38.9962L38.9869 202.918C39.2467 204.468 40.7682 205.488 43.0597 205.488ZM42.9576 200.543C40.963 200.543 39.7569 198.994 39.7569 196.758V196.74C39.7569 194.504 40.963 192.936 42.9576 192.936C44.9337 192.936 46.2047 194.522 46.2047 196.758V196.777C46.2047 199.013 44.9615 200.543 42.9576 200.543ZM54.4003 202.167C56.6083 202.167 58.0648 200.961 58.4545 199.606L58.4823 199.532H57.2484L57.2113 199.597C56.8866 200.376 55.8847 201.063 54.4281 201.063C52.4428 201.063 51.1625 199.662 51.1254 197.324H58.6308V196.805C58.6308 193.845 56.9794 191.841 54.2982 191.841C51.6171 191.841 49.8729 193.901 49.8729 197.018V197.037C49.8729 200.172 51.5985 202.167 54.4003 202.167ZM54.2982 192.936C56.0145 192.936 57.2484 194.105 57.3876 196.322H51.1347C51.2924 194.161 52.5726 192.936 54.2982 192.936ZM67.9619 202H69.2422L71.7007 193.706H71.8213L74.2798 202H75.5693L78.4175 192.008H77.1929L74.957 200.488H74.8457L72.3779 192.008H71.1626L68.6948 200.488H68.5835L66.3662 192.008H65.1323L67.9619 202ZM84.136 202.167C86.9285 202.167 88.6819 200.191 88.6819 197.009V196.99C88.6819 193.808 86.9285 191.841 84.136 191.841C81.3436 191.841 79.5994 193.808 79.5994 196.99V197.009C79.5994 200.191 81.3436 202.167 84.136 202.167ZM84.136 201.072C82.0765 201.072 80.8519 199.532 80.8519 197.009V196.99C80.8519 194.467 82.0765 192.936 84.136 192.936C86.1956 192.936 87.4202 194.467 87.4202 196.99V197.009C87.4202 199.532 86.1956 201.072 84.136 201.072ZM91.1534 202H92.378V195.766C92.378 194.151 93.5284 193.01 95.087 193.01C95.4674 193.01 95.7921 193.047 96.1539 193.14V191.934C95.9127 191.878 95.5787 191.841 95.2169 191.841C93.8624 191.841 92.8883 192.509 92.4986 193.65H92.378V192.008H91.1534V202ZM98.1801 202H99.4047V198.122L100.527 197.064L104.554 202H106.112L101.409 196.239L105.908 192.008H104.387L99.5253 196.684H99.4047V188.028H98.1801V202ZM111.682 202.167C113.89 202.167 115.347 200.961 115.737 199.606L115.764 199.532H114.53L114.493 199.597C114.169 200.376 113.167 201.063 111.71 201.063C109.725 201.063 108.445 199.662 108.407 197.324H115.913V196.805C115.913 193.845 114.261 191.841 111.58 191.841C108.899 191.841 107.155 193.901 107.155 197.018V197.037C107.155 200.172 108.881 202.167 111.682 202.167ZM111.58 192.936C113.297 192.936 114.53 194.105 114.67 196.322H108.417C108.574 194.161 109.855 192.936 111.58 192.936ZM118.394 202H119.618V195.766C119.618 194.151 120.769 193.01 122.327 193.01C122.708 193.01 123.032 193.047 123.394 193.14V191.934C123.153 191.878 122.819 191.841 122.457 191.841C121.103 191.841 120.128 192.509 119.739 193.65H119.618V192.008H118.394V202Z" fill="black"/>
<path d="M184.707 139H186.266V128.776H186.368L190.598 139H192.008L196.239 128.776H196.341V139H197.899V125.613H195.96L191.377 136.783H191.229L186.646 125.613H184.707V139ZM201.159 139H202.829V125.613H201.159V139ZM206.089 139H207.741V128.619H207.889L215.153 139H216.777V125.613H215.126V136.031H214.977L207.713 125.613H206.089V139ZM225.344 139.315C228.665 139.315 230.65 137.312 230.65 134.398V125.613H228.98V134.287C228.98 136.347 227.663 137.775 225.344 137.775C223.024 137.775 221.688 136.347 221.688 134.287V125.613H220.018V134.398C220.018 137.312 222.022 139.315 225.344 139.315ZM237.371 139H239.041V127.116H243.355V125.613H233.057V127.116H237.371V139ZM245.78 139H254.074V137.497H247.45V132.896H253.73V131.411H247.45V127.116H254.074V125.613H245.78V139ZM261.332 139.315C264.32 139.315 266.277 137.757 266.277 135.252V135.243C266.277 133.313 265.173 132.19 262.381 131.569L260.896 131.235C259.078 130.836 258.345 130.112 258.345 129.045V129.036C258.345 127.635 259.635 126.847 261.305 126.837C263.049 126.828 264.162 127.7 264.347 128.878L264.366 128.999H266.036L266.027 128.869C265.888 126.875 264.023 125.297 261.351 125.297C258.586 125.297 256.647 126.865 256.638 129.083V129.092C256.638 131.031 257.798 132.265 260.479 132.858L261.963 133.183C263.8 133.591 264.57 134.352 264.57 135.465V135.475C264.57 136.838 263.243 137.775 261.425 137.775C259.495 137.775 258.104 136.931 257.983 135.595L257.974 135.493H256.304L256.313 135.595C256.508 137.775 258.401 139.315 261.332 139.315Z" fill="black"/>
<g filter="url(#filter1_d)">
<path d="M205.987 109H214.923V73.7705H205.987L197.027 79.874V87.5889L205.523 81.8516H205.987V109ZM238.939 109.952C247.313 109.952 253.05 104.532 253.05 97.2568V97.208C253.05 90.5918 248.582 85.7822 241.6 85.7822C236.668 85.7822 233.934 88.1504 232.664 90.7871H232.152C232.152 90.5186 232.152 90.25 232.176 90.0059C232.445 84.0977 234.471 79.752 238.89 79.752C241.356 79.752 243.114 81.0459 243.846 82.8525L243.919 83.0479H252.611L252.562 82.8525C251.536 77.1641 246.117 72.8428 238.841 72.8428C229.564 72.8428 223.704 79.8496 223.704 91.5195V91.5684C223.704 103.507 229.857 109.952 238.939 109.952ZM233.299 97.4521V97.4033C233.299 94.2539 235.765 92.0566 238.914 92.0566C242.137 92.0566 244.481 94.3516 244.481 97.5498V97.5986C244.481 100.675 241.991 103.067 238.89 103.067C235.765 103.067 233.299 100.65 233.299 97.4521Z" fill="#8908B6"/>
</g>
<path d="M173.776 251.733H175.18V249.719C178.646 249.487 181.125 247.693 181.125 244.653V244.629C181.125 241.956 179.379 240.613 176.046 239.856L175.18 239.673V235.425C176.547 235.632 177.462 236.414 177.633 237.72L177.646 237.744L180.88 237.732L180.893 237.72C180.771 234.851 178.561 232.922 175.18 232.666V230.615H173.776V232.666C170.419 232.861 168.026 234.692 168.026 237.598V237.622C168.026 240.247 169.772 241.675 172.958 242.395L173.776 242.59V246.973C172.104 246.814 171.237 246.008 171.029 244.763V244.751H167.77L167.758 244.763C167.855 247.803 170.346 249.536 173.776 249.731V251.733ZM171.432 237.354V237.329C171.432 236.34 172.238 235.583 173.776 235.413V239.343C172.128 238.904 171.432 238.293 171.432 237.354ZM177.719 244.995V245.02C177.719 246.118 176.876 246.826 175.18 246.985V242.908C177.072 243.384 177.719 243.933 177.719 244.995ZM188.734 250H192.421V232.385H188.746L184.193 235.547V238.867L188.514 235.864H188.734V250ZM203.741 250.452C207.696 250.452 210.431 247.925 210.431 244.214V244.189C210.431 240.833 208.063 238.416 204.779 238.416C203.094 238.416 201.727 239.148 201.019 240.332H200.799L201.239 235.315H209.381V232.385H198.37L197.552 242.81H200.714C200.909 242.432 201.202 242.102 201.532 241.833C202.118 241.333 202.875 241.077 203.766 241.077C205.633 241.077 206.964 242.383 206.964 244.263V244.287C206.964 246.179 205.646 247.51 203.754 247.51C202.093 247.51 200.885 246.472 200.629 245.178L200.604 245.093H197.259L197.272 245.264C197.479 248.206 199.969 250.452 203.741 250.452ZM215.099 250.305C216.356 250.305 217.247 249.39 217.247 248.181C217.247 246.973 216.356 246.069 215.099 246.069C213.853 246.069 212.95 246.973 212.95 248.181C212.95 249.39 213.853 250.305 215.099 250.305ZM226.676 250.452C231.033 250.452 233.67 246.887 233.67 241.199V241.174C233.67 235.474 231.033 231.934 226.676 231.934C222.33 231.934 219.681 235.474 219.681 241.174V241.199C219.681 246.887 222.33 250.452 226.676 250.452ZM226.676 247.534C224.6 247.534 223.416 245.178 223.416 241.199V241.174C223.416 237.183 224.6 234.851 226.676 234.851C228.763 234.851 229.947 237.183 229.947 241.174V241.199C229.947 245.178 228.763 247.534 226.676 247.534ZM243.636 250.452C247.994 250.452 250.63 246.887 250.63 241.199V241.174C250.63 235.474 247.994 231.934 243.636 231.934C239.29 231.934 236.641 235.474 236.641 241.174V241.199C236.641 246.887 239.29 250.452 243.636 250.452ZM243.636 247.534C241.561 247.534 240.376 245.178 240.376 241.199V241.174C240.376 237.183 241.561 234.851 243.636 234.851C245.723 234.851 246.907 237.183 246.907 241.174V241.199C246.907 245.178 245.723 247.534 243.636 247.534ZM260.401 231.421H257.117L252.039 254.456H255.323L260.401 231.421ZM262.285 250H265.85V242.224C265.85 240.405 266.851 239.221 268.499 239.221C270.183 239.221 270.964 240.222 270.964 242.114V250H274.529V241.309C274.529 238.098 272.918 236.267 269.927 236.267C268.01 236.267 266.68 237.183 266.069 238.635H265.85V231.421H262.285V250ZM277.83 250H281.394V242.48C281.394 240.576 282.676 239.417 284.702 239.417C285.251 239.417 285.801 239.502 286.338 239.624V236.511C285.984 236.414 285.483 236.34 285.007 236.34C283.262 236.34 282.041 237.195 281.614 238.647H281.394V236.56H277.83V250Z" fill="#50A55B"/>
<path d="M182.097 179H183.33V170.038H185.668V169.008H183.33V167.756C183.33 166.596 183.859 165.965 185.01 165.965C185.297 165.965 185.576 165.984 185.761 166.012V165.019C185.455 164.963 185.149 164.936 184.787 164.936C183.043 164.936 182.097 165.873 182.097 167.728V169.008H180.436V170.038H182.097V179ZM191.507 179.167C194.3 179.167 196.053 177.191 196.053 174.009V173.99C196.053 170.808 194.3 168.841 191.507 168.841C188.715 168.841 186.971 170.808 186.971 173.99V174.009C186.971 177.191 188.715 179.167 191.507 179.167ZM191.507 178.072C189.448 178.072 188.223 176.532 188.223 174.009V173.99C188.223 171.467 189.448 169.936 191.507 169.936C193.567 169.936 194.792 171.467 194.792 173.99V174.009C194.792 176.532 193.567 178.072 191.507 178.072ZM198.525 179H199.749V172.766C199.749 171.151 200.9 170.01 202.458 170.01C202.839 170.01 203.164 170.047 203.525 170.14V168.934C203.284 168.878 202.95 168.841 202.588 168.841C201.234 168.841 200.26 169.509 199.87 170.65H199.749V169.008H198.525V179ZM213.729 179.065C214.025 179.065 214.304 179.037 214.582 178.991V177.933C214.332 177.961 214.146 177.97 213.868 177.97C212.736 177.97 212.3 177.46 212.3 176.235V170.038H214.582V169.008H212.3V166.411H211.029V169.008H209.424V170.038H211.029V176.514C211.029 178.332 211.817 179.065 213.729 179.065ZM217.081 179H218.306V173.062C218.306 171.179 219.503 169.936 221.265 169.936C222.991 169.936 223.863 170.91 223.863 172.812V179H225.088V172.506C225.088 170.177 223.817 168.841 221.59 168.841C220.032 168.841 218.955 169.546 218.427 170.762H218.306V165.028H217.081V179ZM232.012 179.167C234.22 179.167 235.677 177.961 236.067 176.606L236.094 176.532H234.861L234.823 176.597C234.499 177.376 233.497 178.063 232.04 178.063C230.055 178.063 228.775 176.662 228.737 174.324H236.243V173.805C236.243 170.845 234.591 168.841 231.91 168.841C229.229 168.841 227.485 170.901 227.485 174.018V174.037C227.485 177.172 229.211 179.167 232.012 179.167ZM231.91 169.936C233.627 169.936 234.861 171.105 235 173.322H228.747C228.904 171.161 230.185 169.936 231.91 169.936ZM243.691 179H244.915V173.062C244.915 171.179 246.112 169.936 247.875 169.936C249.61 169.936 250.472 170.91 250.472 172.812V179H251.697V172.506C251.697 170.177 250.426 168.841 248.199 168.841C246.641 168.841 245.565 169.556 245.036 170.762H244.915V169.008H243.691V179ZM258.622 179.167C260.83 179.167 262.286 177.961 262.676 176.606L262.704 176.532H261.47L261.433 176.597C261.108 177.376 260.106 178.063 258.649 178.063C256.664 178.063 255.384 176.662 255.347 174.324H262.852V173.805C262.852 170.845 261.201 168.841 258.52 168.841C255.838 168.841 254.094 170.901 254.094 174.018V174.037C254.094 177.172 255.82 179.167 258.622 179.167ZM258.52 169.936C260.236 169.936 261.47 171.105 261.609 173.322H255.356C255.514 171.161 256.794 169.936 258.52 169.936ZM267.216 179H268.496L270.955 170.706H271.076L273.534 179H274.824L277.672 169.008H276.447L274.211 177.488H274.1L271.632 169.008H270.417L267.949 177.488H267.838L265.62 169.008H264.387L267.216 179ZM165.128 202H166.353V195.868C166.353 194.235 167.466 192.936 168.913 192.936C170.296 192.936 171.205 193.873 171.205 195.311V202H172.43V195.664C172.43 194.114 173.459 192.936 174.999 192.936C176.502 192.936 177.291 193.808 177.291 195.441V202H178.525V195.163C178.525 193.047 177.365 191.841 175.361 191.841C173.923 191.841 172.754 192.611 172.244 193.808H172.123C171.697 192.611 170.695 191.841 169.294 191.841C167.93 191.841 166.9 192.574 166.473 193.771H166.353V192.008H165.128V202ZM182.091 189.93C182.583 189.93 182.991 189.531 182.991 189.03C182.991 188.529 182.583 188.13 182.091 188.13C181.59 188.13 181.182 188.529 181.182 189.03C181.182 189.531 181.59 189.93 182.091 189.93ZM181.469 202H182.694V192.008H181.469V202ZM185.731 202H186.956V196.062C186.956 194.179 188.153 192.936 189.915 192.936C191.65 192.936 192.513 193.91 192.513 195.812V202H193.738V195.506C193.738 193.177 192.467 191.841 190.24 191.841C188.682 191.841 187.605 192.556 187.077 193.762H186.956V192.008H185.731V202ZM197.313 189.93C197.805 189.93 198.213 189.531 198.213 189.03C198.213 188.529 197.805 188.13 197.313 188.13C196.812 188.13 196.404 188.529 196.404 189.03C196.404 189.531 196.812 189.93 197.313 189.93ZM196.692 202H197.916V192.008H196.692V202ZM200.954 202H202.178V195.868C202.178 194.235 203.292 192.936 204.739 192.936C206.121 192.936 207.03 193.873 207.03 195.311V202H208.255V195.664C208.255 194.114 209.285 192.936 210.825 192.936C212.328 192.936 213.116 193.808 213.116 195.441V202H214.35V195.163C214.35 193.047 213.19 191.841 211.187 191.841C209.749 191.841 208.58 192.611 208.069 193.808H207.949C207.522 192.611 206.52 191.841 205.119 191.841C203.755 191.841 202.726 192.574 202.299 193.771H202.178V192.008H200.954V202ZM220.662 202.167C222.212 202.167 223.334 201.462 223.826 200.256H223.937V202H225.162V192.008H223.937V197.946C223.937 199.838 222.824 201.072 220.959 201.072C219.243 201.072 218.38 200.061 218.38 198.196V192.008H217.156V198.502C217.156 200.794 218.417 202.167 220.662 202.167ZM228.144 202H229.368V195.868C229.368 194.235 230.482 192.936 231.929 192.936C233.311 192.936 234.22 193.873 234.22 195.311V202H235.445V195.664C235.445 194.114 236.475 192.936 238.015 192.936C239.518 192.936 240.306 193.808 240.306 195.441V202H241.54V195.163C241.54 193.047 240.381 191.841 238.377 191.841C236.939 191.841 235.77 192.611 235.259 193.808H235.139C234.712 192.611 233.71 191.841 232.309 191.841C230.945 191.841 229.916 192.574 229.489 193.771H229.368V192.008H228.144V202ZM251.28 202H252.56L255.018 193.706H255.139L257.597 202H258.887L261.735 192.008H260.511L258.275 200.488H258.163L255.696 192.008H254.48L252.012 200.488H251.901L249.684 192.008H248.45L251.28 202ZM266.211 202.167C267.686 202.167 268.882 201.471 269.476 200.284H269.587V202H270.821V195.172C270.821 193.066 269.458 191.841 267.12 191.841C265.051 191.841 263.539 192.862 263.279 194.458L263.27 194.495H264.503L264.513 194.476C264.773 193.483 265.728 192.936 267.083 192.936C268.697 192.936 269.587 193.715 269.587 195.181V196.118L266.47 196.322C264.16 196.48 262.871 197.491 262.871 199.226V199.245C262.871 201.026 264.281 202.167 266.211 202.167ZM264.123 199.226V199.208C264.123 198.076 264.94 197.436 266.637 197.324L269.587 197.12V198.28C269.587 199.866 268.233 201.091 266.442 201.091C265.097 201.091 264.123 200.367 264.123 199.226ZM277.802 205.488C280.427 205.488 282.143 204.06 282.143 201.879V192.008H280.91V194.031H280.826C280.251 192.695 279.017 191.841 277.477 191.841C274.898 191.841 273.246 193.882 273.246 196.74V196.758C273.246 199.625 274.889 201.638 277.458 201.638C278.989 201.638 280.214 200.877 280.807 199.56H280.928V201.796C280.928 203.41 279.731 204.394 277.802 204.394C276.28 204.394 275.241 203.791 275.018 202.918L275.009 202.909H273.738L273.729 202.918C273.989 204.468 275.51 205.488 277.802 205.488ZM277.7 200.543C275.705 200.543 274.499 198.994 274.499 196.758V196.74C274.499 194.504 275.705 192.936 277.7 192.936C279.676 192.936 280.947 194.522 280.947 196.758V196.777C280.947 199.013 279.703 200.543 277.7 200.543ZM289.142 202.167C291.35 202.167 292.807 200.961 293.196 199.606L293.224 199.532H291.99L291.953 199.597C291.629 200.376 290.627 201.063 289.17 201.063C287.185 201.063 285.904 199.662 285.867 197.324H293.373V196.805C293.373 193.845 291.721 191.841 289.04 191.841C286.359 191.841 284.615 193.901 284.615 197.018V197.037C284.615 200.172 286.34 202.167 289.142 202.167ZM289.04 192.936C290.757 192.936 291.99 194.105 292.13 196.322H285.877C286.034 194.161 287.315 192.936 289.04 192.936Z" fill="black"/>
<g filter="url(#filter2_d)">
<path d="M381.987 109H390.923V73.7705H381.987L373.027 79.874V87.5889L381.523 81.8516H381.987V109Z" fill="#8908B6"/>
</g>
<path d="M321.707 139H323.266V128.776H323.368L327.598 139H329.008L333.239 128.776H333.341V139H334.899V125.613H332.96L328.377 136.783H328.229L323.646 125.613H321.707V139ZM338.159 139H339.829V125.613H338.159V139ZM343.089 139H351.216V137.497H344.759V125.613H343.089V139ZM353.734 139H361.861V137.497H355.404V125.613H353.734V139ZM364.379 139H366.049V125.613H364.379V139ZM373.697 139.315C376.685 139.315 378.642 137.757 378.642 135.252V135.243C378.642 133.313 377.538 132.19 374.746 131.569L373.261 131.235C371.443 130.836 370.71 130.112 370.71 129.045V129.036C370.71 127.635 372 126.847 373.669 126.837C375.414 126.828 376.527 127.7 376.712 128.878L376.731 128.999H378.401L378.392 128.869C378.252 126.875 376.388 125.297 373.716 125.297C370.951 125.297 369.012 126.865 369.003 129.083V129.092C369.003 131.031 370.163 132.265 372.844 132.858L374.328 133.183C376.165 133.591 376.935 134.352 376.935 135.465V135.475C376.935 136.838 375.608 137.775 373.79 137.775C371.86 137.775 370.469 136.931 370.348 135.595L370.339 135.493H368.669L368.678 135.595C368.873 137.775 370.766 139.315 373.697 139.315ZM381.271 139H389.565V137.497H382.941V132.896H389.222V131.411H382.941V127.116H389.565V125.613H381.271V139ZM397.826 139.315C400.674 139.315 402.789 137.729 403.234 135.28V135.261H401.546L401.527 135.28C401.11 136.82 399.691 137.775 397.826 137.775C395.247 137.775 393.632 135.669 393.632 132.32V132.302C393.632 128.953 395.247 126.837 397.817 126.837C399.663 126.837 401.091 127.923 401.537 129.639L401.546 129.658H403.225L403.234 129.639C402.836 127.069 400.637 125.297 397.817 125.297C394.18 125.297 391.916 127.988 391.916 132.302V132.32C391.916 136.625 394.189 139.315 397.826 139.315ZM411.504 139.315C415.327 139.315 417.646 136.579 417.646 132.311V132.292C417.646 128.006 415.308 125.297 411.504 125.297C407.719 125.297 405.363 127.997 405.363 132.292V132.311C405.363 136.588 407.664 139.315 411.504 139.315ZM411.504 137.775C408.721 137.775 407.07 135.623 407.07 132.311V132.292C407.07 128.953 408.777 126.837 411.504 126.837C414.241 126.837 415.939 128.953 415.939 132.292V132.311C415.939 135.623 414.25 137.775 411.504 137.775ZM420.386 139H422.038V128.619H422.186L429.45 139H431.074V125.613H429.423V136.031H429.274L422.01 125.613H420.386V139ZM434.334 139H438.926C442.906 139 445.244 136.523 445.244 132.311V132.292C445.244 128.09 442.897 125.613 438.926 125.613H434.334V139ZM436.004 137.497V127.116H438.815C441.784 127.116 443.537 129.045 443.537 132.311V132.33C443.537 135.586 441.802 137.497 438.815 137.497H436.004Z" fill="black"/>
<path d="M330.776 251.733H332.18V249.719C335.646 249.487 338.125 247.693 338.125 244.653V244.629C338.125 241.956 336.379 240.613 333.046 239.856L332.18 239.673V235.425C333.547 235.632 334.462 236.414 334.633 237.72L334.646 237.744L337.88 237.732L337.893 237.72C337.771 234.851 335.561 232.922 332.18 232.666V230.615H330.776V232.666C327.419 232.861 325.026 234.692 325.026 237.598V237.622C325.026 240.247 326.772 241.675 329.958 242.395L330.776 242.59V246.973C329.104 246.814 328.237 246.008 328.029 244.763V244.751H324.77L324.758 244.763C324.855 247.803 327.346 249.536 330.776 249.731V251.733ZM328.432 237.354V237.329C328.432 236.34 329.238 235.583 330.776 235.413V239.343C329.128 238.904 328.432 238.293 328.432 237.354ZM334.719 244.995V245.02C334.719 246.118 333.876 246.826 332.18 246.985V242.908C334.072 243.384 334.719 243.933 334.719 244.995ZM345.734 250H349.421V232.385H345.746L341.193 235.547V238.867L345.514 235.864H345.734V250ZM360.644 250.391C364.757 250.391 367.504 248.23 367.504 245.032V245.007C367.504 242.615 365.795 241.101 363.171 240.857V240.784C365.234 240.356 366.845 238.928 366.845 236.731V236.707C366.845 233.899 364.403 231.995 360.619 231.995C356.921 231.995 354.442 234.045 354.186 237.195L354.174 237.341H357.567L357.58 237.231C357.726 235.767 358.886 234.827 360.619 234.827C362.353 234.827 363.366 235.73 363.366 237.195V237.219C363.366 238.647 362.17 239.624 360.314 239.624H358.349V242.249H360.363C362.499 242.249 363.756 243.176 363.756 244.861V244.885C363.756 246.375 362.524 247.424 360.644 247.424C358.739 247.424 357.482 246.448 357.323 245.081L357.311 244.946H353.783L353.796 245.105C354.04 248.254 356.664 250.391 360.644 250.391ZM372.221 250.305C373.478 250.305 374.369 249.39 374.369 248.181C374.369 246.973 373.478 246.069 372.221 246.069C370.975 246.069 370.072 246.973 370.072 248.181C370.072 249.39 370.975 250.305 372.221 250.305ZM385.995 250H389.51V246.765H391.805V243.811H389.51V232.385H384.335C381.991 235.999 379.598 239.905 377.364 243.872V246.765H385.995V250ZM380.685 243.909V243.713C382.272 240.869 384.164 237.805 385.873 235.181H386.068V243.909H380.685ZM395.216 250H398.5V238.013H398.744L403.26 250H405.567L410.084 238.013H410.328V250H413.612V232.385H409.388L404.53 245.276H404.31L399.439 232.385H395.216V250ZM423.968 231.421H420.684L415.606 254.456H418.89L423.968 231.421ZM425.853 250H429.417V242.224C429.417 240.405 430.418 239.221 432.066 239.221C433.751 239.221 434.532 240.222 434.532 242.114V250H438.096V241.309C438.096 238.098 436.485 236.267 433.494 236.267C431.578 236.267 430.247 237.183 429.637 238.635H429.417V231.421H425.853V250ZM441.397 250H444.961V242.48C444.961 240.576 446.243 239.417 448.269 239.417C448.819 239.417 449.368 239.502 449.905 239.624V236.511C449.551 236.414 449.051 236.34 448.575 236.34C446.829 236.34 445.608 237.195 445.181 238.647H444.961V236.56H441.397V250Z" fill="#50A55B"/>
<path d="M329.284 179H330.518V170.038H332.855V169.008H330.518V167.756C330.518 166.596 331.046 165.965 332.197 165.965C332.484 165.965 332.763 165.984 332.948 166.012V165.019C332.642 164.963 332.336 164.936 331.974 164.936C330.23 164.936 329.284 165.873 329.284 167.728V169.008H327.623V170.038H329.284V179ZM338.695 179.167C341.487 179.167 343.241 177.191 343.241 174.009V173.99C343.241 170.808 341.487 168.841 338.695 168.841C335.902 168.841 334.158 170.808 334.158 173.99V174.009C334.158 177.191 335.902 179.167 338.695 179.167ZM338.695 178.072C336.635 178.072 335.41 176.532 335.41 174.009V173.99C335.41 171.467 336.635 169.936 338.695 169.936C340.754 169.936 341.979 171.467 341.979 173.99V174.009C341.979 176.532 340.754 178.072 338.695 178.072ZM345.712 179H346.937V172.766C346.937 171.151 348.087 170.01 349.646 170.01C350.026 170.01 350.351 170.047 350.713 170.14V168.934C350.471 168.878 350.137 168.841 349.776 168.841C348.421 168.841 347.447 169.509 347.057 170.65H346.937V169.008H345.712V179ZM360.582 179.278C362.975 179.278 364.423 177.794 364.423 175.363V165.613H363.152V175.308C363.152 177.098 362.224 178.1 360.582 178.1C359.135 178.1 358.272 177.163 358.179 175.976L358.17 175.911H356.899L356.908 176.003C357.019 177.877 358.374 179.278 360.582 179.278ZM371.579 179.167C373.787 179.167 375.244 177.961 375.633 176.606L375.661 176.532H374.427L374.39 176.597C374.065 177.376 373.064 178.063 371.607 178.063C369.622 178.063 368.341 176.662 368.304 174.324H375.81V173.805C375.81 170.845 374.158 168.841 371.477 168.841C368.796 168.841 367.052 170.901 367.052 174.018V174.037C367.052 177.172 368.777 179.167 371.579 179.167ZM371.477 169.936C373.193 169.936 374.427 171.105 374.566 173.322H368.314C368.471 171.161 369.752 169.936 371.477 169.936ZM378.958 179H380.192V170.038H382.53V169.008H380.192V167.756C380.192 166.596 380.721 165.965 381.871 165.965C382.159 165.965 382.437 165.984 382.623 166.012V165.019C382.317 164.963 382.011 164.936 381.649 164.936C379.905 164.936 378.958 165.873 378.958 167.728V169.008H377.298V170.038H378.958V179ZM385.465 179H386.699V170.038H389.037V169.008H386.699V167.756C386.699 166.596 387.228 165.965 388.379 165.965C388.666 165.965 388.944 165.984 389.13 166.012V165.019C388.824 164.963 388.518 164.936 388.156 164.936C386.412 164.936 385.465 165.873 385.465 167.728V169.008H383.805V170.038H385.465V179ZM396.42 179H401.3C404.269 179 405.902 177.608 405.902 175.345V175.326C405.902 173.48 404.594 172.255 402.766 172.023V171.912C404.185 171.652 405.215 170.4 405.215 168.934V168.916C405.215 166.912 403.694 165.613 401.226 165.613H396.42V179ZM400.975 166.735C402.831 166.735 403.935 167.645 403.935 169.11V169.129C403.935 170.678 402.757 171.56 400.688 171.56H397.691V166.735H400.975ZM401.012 172.654C403.285 172.654 404.603 173.591 404.603 175.261V175.28C404.603 176.931 403.443 177.877 401.115 177.877H397.691V172.654H401.012ZM412.39 179.167C414.598 179.167 416.055 177.961 416.444 176.606L416.472 176.532H415.238L415.201 176.597C414.877 177.376 413.875 178.063 412.418 178.063C410.433 178.063 409.152 176.662 409.115 174.324H416.621V173.805C416.621 170.845 414.969 168.841 412.288 168.841C409.607 168.841 407.863 170.901 407.863 174.018V174.037C407.863 177.172 409.588 179.167 412.39 179.167ZM412.288 169.936C414.004 169.936 415.238 171.105 415.378 173.322H409.125C409.282 171.161 410.563 169.936 412.288 169.936ZM418.749 179H426.347V177.97H420.224V177.859L426.328 169.945V169.008H418.758V170.038H424.872V170.149L418.749 178.072V179ZM432.687 179.167C435.48 179.167 437.233 177.191 437.233 174.009V173.99C437.233 170.808 435.48 168.841 432.687 168.841C429.895 168.841 428.151 170.808 428.151 173.99V174.009C428.151 177.191 429.895 179.167 432.687 179.167ZM432.687 178.072C430.628 178.072 429.403 176.532 429.403 174.009V173.99C429.403 171.467 430.628 169.936 432.687 169.936C434.747 169.936 435.971 171.467 435.971 173.99V174.009C435.971 176.532 434.747 178.072 432.687 178.072ZM443.063 179.167C445.243 179.167 446.922 177.961 446.922 176.245V176.226C446.922 174.788 445.985 174.009 444.056 173.545L442.673 173.22C441.347 172.905 440.734 172.432 440.734 171.615V171.597C440.734 170.604 441.764 169.871 443.072 169.871C444.399 169.871 445.327 170.502 445.549 171.43H446.755C446.523 169.853 445.095 168.841 443.082 168.841C441.068 168.841 439.482 170.038 439.482 171.652V171.662C439.482 173.062 440.345 173.833 442.2 174.269L443.592 174.603C445.048 174.946 445.67 175.456 445.67 176.319V176.337C445.67 177.376 444.566 178.128 443.1 178.128C441.653 178.128 440.697 177.488 440.428 176.495H439.166C439.371 178.128 440.883 179.167 443.063 179.167Z" fill="black"/>
<defs>
<filter id="filter0_d" x="28.7588" y="72.8916" width="71.2981" height="44.9873" filterUnits="userSpaceOnUse" color-interpolation-filters="sRGB">
<feFlood flood-opacity="0" result="BackgroundImageFix"/>
<feColorMatrix in="SourceAlpha" type="matrix" values="0 0 0 0 0 0 0 0 0 0 0 0 0 0 0 0 0 0 127 0"/>
<feOffset dy="4"/>
<feGaussianBlur stdDeviation="2"/>
<feColorMatrix type="matrix" values="0 0 0 0 0 0 0 0 0 0 0 0 0 0 0 0 0 0 0.25 0"/>
<feBlend mode="normal" in2="BackgroundImageFix" result="effect1_dropShadow"/>
<feBlend mode="normal" in="SourceGraphic" in2="effect1_dropShadow" result="shape"/>
</filter>
<filter id="filter1_d" x="193.027" y="72.8428" width="64.0228" height="45.1094" filterUnits="userSpaceOnUse" color-interpolation-filters="sRGB">
<feFlood flood-opacity="0" result="BackgroundImageFix"/>
<feColorMatrix in="SourceAlpha" type="matrix" values="0 0 0 0 0 0 0 0 0 0 0 0 0 0 0 0 0 0 127 0"/>
<feOffset dy="4"/>
<feGaussianBlur stdDeviation="2"/>
<feColorMatrix type="matrix" values="0 0 0 0 0 0 0 0 0 0 0 0 0 0 0 0 0 0 0.25 0"/>
<feBlend mode="normal" in2="BackgroundImageFix" result="effect1_dropShadow"/>
<feBlend mode="normal" in="SourceGraphic" in2="effect1_dropShadow" result="shape"/>
</filter>
<filter id="filter2_d" x="369.027" y="73.7705" width="25.8955" height="43.2295" filterUnits="userSpaceOnUse" color-interpolation-filters="sRGB">
<feFlood flood-opacity="0" result="BackgroundImageFix"/>
<feColorMatrix in="SourceAlpha" type="matrix" values="0 0 0 0 0 0 0 0 0 0 0 0 0 0 0 0 0 0 127 0"/>
<feOffset dy="4"/>
<feGaussianBlur stdDeviation="2"/>
<feColorMatrix type="matrix" values="0 0 0 0 0 0 0 0 0 0 0 0 0 0 0 0 0 0 0.25 0"/>
<feBlend mode="normal" in2="BackgroundImageFix" result="effect1_dropShadow"/>
<feBlend mode="normal" in="SourceGraphic" in2="effect1_dropShadow" result="shape"/>
</filter>
</defs>
</svg>
